<svg xmlns="http://www.w3.org/2000/svg" viewBox="0 0 746.5 434" width="746.5" height="434" style="max-width:100%;height:auto"><defs><filter id="rf-shadow" x="-20%" y="-20%" width="140%" height="160%"><feDropShadow dx="0" dy="1.5" stdDeviation="2.5" flood-color="#22222a" flood-opacity="0.12"/></filter></defs><path d="M74.13,216 L113.41499999999999,216 L113.41499999999999,139 L152.7,139" fill="none" stroke="#b1b1b7" stroke-width="1.5" stroke-dasharray="5 4" stroke-linejoin="round"/><circle cx="74.1" cy="216.0" r="2.5" fill="#fff" stroke="#bbb" stroke-width="1"/><circle cx="152.7" cy="139.0" r="2.5" fill="#fff" stroke="#bbb" stroke-width="1"/><path d="M74.13,270 L113.41499999999999,270 L113.41499999999999,347 L152.7,347" fill="none" stroke="#b1b1b7" stroke-width="1.5" stroke-dasharray="5 4" stroke-linejoin="round"/><circle cx="74.1" cy="270.0" r="2.5" fill="#fff" stroke="#bbb" stroke-width="1"/><circle cx="152.7" cy="347.0" r="2.5" fill="#fff" stroke="#bbb" stroke-width="1"/><path d="M225.01,112 L266.105,112 L266.105,35 L307.2,35" fill="none" stroke="#b1b1b7" stroke-width="1.5" stroke-dasharray="5 4" stroke-linejoin="round"/><circle cx="225.0" cy="112.0" r="2.5" fill="#fff" stroke="#bbb" stroke-width="1"/><circle cx="307.2" cy="35.0" r="2.5" fill="#fff" stroke="#bbb" stroke-width="1"/><path d="M257.2,139 L282.2,139 L282.2,139 L307.2,139" fill="none" stroke="#b1b1b7" stroke-width="1.5" stroke-dasharray="5 4" stroke-linejoin="round"/><circle cx="257.2" cy="139.0" r="2.5" fill="#fff" stroke="#bbb" stroke-width="1"/><circle cx="307.2" cy="139.0" r="2.5" fill="#fff" stroke="#bbb" stroke-width="1"/><path d="M225.01,166 L266.33,166 L266.33,243 L307.65,243" fill="none" stroke="#b1b1b7" stroke-width="1.5" stroke-dasharray="5 4" stroke-linejoin="round"/><circle cx="225.0" cy="166.0" r="2.5" fill="#fff" stroke="#bbb" stroke-width="1"/><circle cx="307.6" cy="243.0" r="2.5" fill="#fff" stroke="#bbb" stroke-width="1"/><path d="M420.15,243 L445.375,243 L445.375,243 L470.6,243" fill="none" stroke="#b1b1b7" stroke-width="1.5" stroke-dasharray="5 4" stroke-linejoin="round"/><circle cx="420.1" cy="243.0" r="2.5" fill="#fff" stroke="#bbb" stroke-width="1"/><circle cx="470.6" cy="243.0" r="2.5" fill="#fff" stroke="#bbb" stroke-width="1"/><path d="M257.2,347 L284.42499999999995,347 L284.42499999999995,347 L311.65,347" fill="none" stroke="#b1b1b7" stroke-width="1.5" stroke-dasharray="5 4" stroke-linejoin="round"/><circle cx="257.2" cy="347.0" r="2.5" fill="#fff" stroke="#bbb" stroke-width="1"/><circle cx="311.6" cy="347.0" r="2.5" fill="#fff" stroke="#bbb" stroke-width="1"/><path d="M416.15,347 L445.6,347 L445.6,347 L475.05,347" fill="none" stroke="#b1b1b7" stroke-width="1.5" stroke-dasharray="5 4" stroke-linejoin="round"/><circle cx="416.1" cy="347.0" r="2.5" fill="#fff" stroke="#bbb" stroke-width="1"/><circle cx="475.1" cy="347.0" r="2.5" fill="#fff" stroke="#bbb" stroke-width="1"/><path d="M569.72,320 L601.86,320 L601.86,295 L634,295" fill="none" stroke="#b1b1b7" stroke-width="1.5" stroke-dasharray="5 4" stroke-linejoin="round"/><circle cx="569.7" cy="320.0" r="2.5" fill="#fff" stroke="#bbb" stroke-width="1"/><circle cx="634.0" cy="295.0" r="2.5" fill="#fff" stroke="#bbb" stroke-width="1"/><path d="M569.72,374 L601.86,374 L601.86,399 L634,399" fill="none" stroke="#b1b1b7" stroke-width="1.5" stroke-dasharray="5 4" stroke-linejoin="round"/><circle cx="569.7" cy="374.0" r="2.5" fill="#fff" stroke="#bbb" stroke-width="1"/><circle cx="634.0" cy="399.0" r="2.5" fill="#fff" stroke="#bbb" stroke-width="1"/><rect x="8" y="216" width="94.7" height="54" rx="7" fill="#ffffff" stroke="#e2e2e7" stroke-width="1" filter="url(#rf-shadow)"/><text x="55.4" y="243.0" text-anchor="middle" dominant-baseline="central" font-size="14" fill="#1a192b" font-family="-apple-system,BlinkMacSystemFont,'Segoe UI',Roboto,sans-serif">input</text><rect x="152.7" y="112" width="104.5" height="54" rx="7" fill="#ffffff" stroke="#e2e2e7" stroke-width="1" filter="url(#rf-shadow)"/><text x="204.9" y="139.0" text-anchor="middle" dominant-baseline="central" font-size="14" fill="#1a192b" font-family="-apple-system,BlinkMacSystemFont,'Segoe UI',Roboto,sans-serif">node2</text><rect x="152.7" y="320" width="104.5" height="54" rx="7" fill="#ffffff" stroke="#e2e2e7" stroke-width="1" filter="url(#rf-shadow)"/><text x="204.9" y="347.0" text-anchor="middle" dominant-baseline="central" font-size="14" fill="#1a192b" font-family="-apple-system,BlinkMacSystemFont,'Segoe UI',Roboto,sans-serif">node3</text><rect x="307.2" y="8" width="113.4" height="54" rx="7" fill="#ffffff" stroke="#e2e2e7" stroke-width="1" filter="url(#rf-shadow)"/><text x="363.9" y="35.0" text-anchor="middle" dominant-baseline="central" font-size="14" fill="#1a192b" font-family="-apple-system,BlinkMacSystemFont,'Segoe UI',Roboto,sans-serif">node2a</text><rect x="307.2" y="112" width="113.4" height="54" rx="7" fill="#ffffff" stroke="#e2e2e7" stroke-width="1" filter="url(#rf-shadow)"/><text x="363.9" y="139.0" text-anchor="middle" dominant-baseline="central" font-size="14" fill="#1a192b" font-family="-apple-system,BlinkMacSystemFont,'Segoe UI',Roboto,sans-serif">node2b</text><rect x="307.65" y="216" width="112.5" height="54" rx="7" fill="#ffffff" stroke="#e2e2e7" stroke-width="1" filter="url(#rf-shadow)"/><text x="363.9" y="243.0" text-anchor="middle" dominant-baseline="central" font-size="14" fill="#1a192b" font-family="-apple-system,BlinkMacSystemFont,'Segoe UI',Roboto,sans-serif">node2c</text><rect x="470.6" y="216" width="113.4" height="54" rx="7" fill="#ffffff" stroke="#e2e2e7" stroke-width="1" filter="url(#rf-shadow)"/><text x="527.3" y="243.0" text-anchor="middle" dominant-baseline="central" font-size="14" fill="#1a192b" font-family="-apple-system,BlinkMacSystemFont,'Segoe UI',Roboto,sans-serif">node2d</text><rect x="311.65" y="320" width="104.5" height="54" rx="7" fill="#ffffff" stroke="#e2e2e7" stroke-width="1" filter="url(#rf-shadow)"/><text x="363.9" y="347.0" text-anchor="middle" dominant-baseline="central" font-size="14" fill="#1a192b" font-family="-apple-system,BlinkMacSystemFont,'Segoe UI',Roboto,sans-serif">node4</text><rect x="475.05" y="320" width="104.5" height="54" rx="7" fill="#ffffff" stroke="#e2e2e7" stroke-width="1" filter="url(#rf-shadow)"/><text x="527.3" y="347.0" text-anchor="middle" dominant-baseline="central" font-size="14" fill="#1a192b" font-family="-apple-system,BlinkMacSystemFont,'Segoe UI',Roboto,sans-serif">node5</text><rect x="634" y="268" width="104.5" height="54" rx="7" fill="#ffffff" stroke="#e2e2e7" stroke-width="1" filter="url(#rf-shadow)"/><text x="686.3" y="295.0" text-anchor="middle" dominant-baseline="central" font-size="14" fill="#1a192b" font-family="-apple-system,BlinkMacSystemFont,'Segoe UI',Roboto,sans-serif">output</text><rect x="634" y="372" width="104.5" height="54" rx="7" fill="#ffffff" stroke="#e2e2e7" stroke-width="1" filter="url(#rf-shadow)"/><text x="686.3" y="399.0" text-anchor="middle" dominant-baseline="central" font-size="14" fill="#1a192b" font-family="-apple-system,BlinkMacSystemFont,'Segoe UI',Roboto,sans-serif">output</text></svg>
