<svg xmlns="http://www.w3.org/2000/svg" viewBox="0 0 687.5 486" width="687.5" height="486" style="max-width:100%;height:auto"><defs><filter id="rf-shadow" x="-20%" y="-20%" width="140%" height="160%"><feDropShadow dx="0" dy="1.5" stdDeviation="2.5" flood-color="#22222a" flood-opacity="0.12"/></filter></defs><path class="rf-edge" d="M389.05,62 L389.05,87 L228.1,87 L228.1,112" fill="none" stroke="#b1b1b7" stroke-width="1.5" stroke-dasharray="5 4" stroke-linejoin="round"/><path class="rf-edge" d="M389.05,62 L389.05,87 L550,87 L550,112" fill="none" stroke="#b1b1b7" stroke-width="1.5" stroke-dasharray="5 4" stroke-linejoin="round"/><path class="rf-edge" d="M228.1,166 L228.1,191 L64.7,191 L64.7,216" fill="none" stroke="#b1b1b7" stroke-width="1.5" stroke-dasharray="5 4" stroke-linejoin="round"/><path class="rf-edge" d="M228.1,166 L228.1,191 L228.10000000000002,191 L228.10000000000002,216" fill="none" stroke="#b1b1b7" stroke-width="1.5" stroke-dasharray="5 4" stroke-linejoin="round"/><path class="rf-edge" d="M228.1,166 L228.1,191 L391.05,191 L391.05,216" fill="none" stroke="#b1b1b7" stroke-width="1.5" stroke-dasharray="5 4" stroke-linejoin="round"/><path class="rf-edge" d="M391.05,270 L391.05,295 L391.05,295 L391.05,320" fill="none" stroke="#b1b1b7" stroke-width="1.5" stroke-dasharray="5 4" stroke-linejoin="round"/><path class="rf-edge" d="M550,166 L550,191 L550,191 L550,216" fill="none" stroke="#b1b1b7" stroke-width="1.5" stroke-dasharray="5 4" stroke-linejoin="round"/><path class="rf-edge" d="M550,270 L550,295 L550,295 L550,320" fill="none" stroke="#b1b1b7" stroke-width="1.5" stroke-dasharray="5 4" stroke-linejoin="round"/><path class="rf-edge" d="M550,374 L550,399 L472.75,399 L472.75,424" fill="none" stroke="#b1b1b7" stroke-width="1.5" stroke-dasharray="5 4" stroke-linejoin="round"/><path class="rf-edge" d="M550,374 L550,399 L627.25,399 L627.25,424" fill="none" stroke="#b1b1b7" stroke-width="1.5" stroke-dasharray="5 4" stroke-linejoin="round"/><rect x="341.7" y="8" width="94.7" height="54" rx="7" fill="#ffffff" stroke="#e2e2e7" stroke-width="1" filter="url(#rf-shadow)"/><text x="389.1" y="35.0" text-anchor="middle" dominant-baseline="central" font-size="14" fill="#1a192b" font-family="-apple-system,BlinkMacSystemFont,'Segoe UI',Roboto,sans-serif">input</text><rect x="175.85" y="112" width="104.5" height="54" rx="7" fill="#ffffff" stroke="#e2e2e7" stroke-width="1" filter="url(#rf-shadow)"/><text x="228.1" y="139.0" text-anchor="middle" dominant-baseline="central" font-size="14" fill="#1a192b" font-family="-apple-system,BlinkMacSystemFont,'Segoe UI',Roboto,sans-serif">node2</text><rect x="497.75" y="112" width="104.5" height="54" rx="7" fill="#ffffff" stroke="#e2e2e7" stroke-width="1" filter="url(#rf-shadow)"/><text x="550.0" y="139.0" text-anchor="middle" dominant-baseline="central" font-size="14" fill="#1a192b" font-family="-apple-system,BlinkMacSystemFont,'Segoe UI',Roboto,sans-serif">node3</text><rect x="8" y="216" width="113.4" height="54" rx="7" fill="#ffffff" stroke="#e2e2e7" stroke-width="1" filter="url(#rf-shadow)"/><text x="64.7" y="243.0" text-anchor="middle" dominant-baseline="central" font-size="14" fill="#1a192b" font-family="-apple-system,BlinkMacSystemFont,'Segoe UI',Roboto,sans-serif">node2a</text><rect x="171.4" y="216" width="113.4" height="54" rx="7" fill="#ffffff" stroke="#e2e2e7" stroke-width="1" filter="url(#rf-shadow)"/><text x="228.1" y="243.0" text-anchor="middle" dominant-baseline="central" font-size="14" fill="#1a192b" font-family="-apple-system,BlinkMacSystemFont,'Segoe UI',Roboto,sans-serif">node2b</text><rect x="334.8" y="216" width="112.5" height="54" rx="7" fill="#ffffff" stroke="#e2e2e7" stroke-width="1" filter="url(#rf-shadow)"/><text x="391.1" y="243.0" text-anchor="middle" dominant-baseline="central" font-size="14" fill="#1a192b" font-family="-apple-system,BlinkMacSystemFont,'Segoe UI',Roboto,sans-serif">node2c</text><rect x="334.35" y="320" width="113.4" height="54" rx="7" fill="#ffffff" stroke="#e2e2e7" stroke-width="1" filter="url(#rf-shadow)"/><text x="391.1" y="347.0" text-anchor="middle" dominant-baseline="central" font-size="14" fill="#1a192b" font-family="-apple-system,BlinkMacSystemFont,'Segoe UI',Roboto,sans-serif">node2d</text><rect x="497.75" y="216" width="104.5" height="54" rx="7" fill="#ffffff" stroke="#e2e2e7" stroke-width="1" filter="url(#rf-shadow)"/><text x="550.0" y="243.0" text-anchor="middle" dominant-baseline="central" font-size="14" fill="#1a192b" font-family="-apple-system,BlinkMacSystemFont,'Segoe UI',Roboto,sans-serif">node4</text><rect x="497.75" y="320" width="104.5" height="54" rx="7" fill="#ffffff" stroke="#e2e2e7" stroke-width="1" filter="url(#rf-shadow)"/><text x="550.0" y="347.0" text-anchor="middle" dominant-baseline="central" font-size="14" fill="#1a192b" font-family="-apple-system,BlinkMacSystemFont,'Segoe UI',Roboto,sans-serif">node5</text><rect x="420.5" y="424" width="104.5" height="54" rx="7" fill="#ffffff" stroke="#e2e2e7" stroke-width="1" filter="url(#rf-shadow)"/><text x="472.8" y="451.0" text-anchor="middle" dominant-baseline="central" font-size="14" fill="#1a192b" font-family="-apple-system,BlinkMacSystemFont,'Segoe UI',Roboto,sans-serif">output</text><rect x="575" y="424" width="104.5" height="54" rx="7" fill="#ffffff" stroke="#e2e2e7" stroke-width="1" filter="url(#rf-shadow)"/><text x="627.3" y="451.0" text-anchor="middle" dominant-baseline="central" font-size="14" fill="#1a192b" font-family="-apple-system,BlinkMacSystemFont,'Segoe UI',Roboto,sans-serif">output</text><circle cx="389.1" cy="62.0" r="2.5" fill="#fff" stroke="#bbb" stroke-width="1"/><circle cx="228.1" cy="112.0" r="2.5" fill="#fff" stroke="#bbb" stroke-width="1"/><circle cx="550.0" cy="112.0" r="2.5" fill="#fff" stroke="#bbb" stroke-width="1"/><circle cx="228.1" cy="166.0" r="2.5" fill="#fff" stroke="#bbb" stroke-width="1"/><circle cx="64.7" cy="216.0" r="2.5" fill="#fff" stroke="#bbb" stroke-width="1"/><circle cx="228.1" cy="216.0" r="2.5" fill="#fff" stroke="#bbb" stroke-width="1"/><circle cx="391.1" cy="216.0" r="2.5" fill="#fff" stroke="#bbb" stroke-width="1"/><circle cx="391.1" cy="270.0" r="2.5" fill="#fff" stroke="#bbb" stroke-width="1"/><circle cx="391.1" cy="320.0" r="2.5" fill="#fff" stroke="#bbb" stroke-width="1"/><circle cx="550.0" cy="166.0" r="2.5" fill="#fff" stroke="#bbb" stroke-width="1"/><circle cx="550.0" cy="216.0" r="2.5" fill="#fff" stroke="#bbb" stroke-width="1"/><circle cx="550.0" cy="270.0" r="2.5" fill="#fff" stroke="#bbb" stroke-width="1"/><circle cx="550.0" cy="320.0" r="2.5" fill="#fff" stroke="#bbb" stroke-width="1"/><circle cx="550.0" cy="374.0" r="2.5" fill="#fff" stroke="#bbb" stroke-width="1"/><circle cx="472.8" cy="424.0" r="2.5" fill="#fff" stroke="#bbb" stroke-width="1"/><circle cx="627.3" cy="424.0" r="2.5" fill="#fff" stroke="#bbb" stroke-width="1"/></svg>
