<svg xmlns="http://www.w3.org/2000/svg" viewBox="0 0 720 300" preserveAspectRatio="xMidYMid meet" role="img" aria-label="Access-request approval workflow with Yes and No branches, each step annotated" font-family="-apple-system,BlinkMacSystemFont,'Segoe UI',Roboto,Helvetica,Arial,sans-serif">
  <defs>
    <marker id="ar" markerWidth="9" markerHeight="9" refX="6" refY="3" orient="auto"><path d="M0.5,0.5 L6.5,3 L0.5,5.5" fill="none" stroke="#9aa3bd" stroke-width="1.6" stroke-linecap="round" stroke-linejoin="round"/></marker>
    <marker id="arn" markerWidth="9" markerHeight="9" refX="6" refY="3" orient="auto"><path d="M0.5,0.5 L6.5,3 L0.5,5.5" fill="none" stroke="#c2c6d4" stroke-width="1.6" stroke-linecap="round" stroke-linejoin="round"/></marker>
    <filter id="csh" x="-30%" y="-40%" width="160%" height="200%"><feDropShadow dx="0" dy="5" stdDeviation="9" flood-color="#242131" flood-opacity="0.16"/></filter>
    <filter id="bl" x="-80%" y="-80%" width="260%" height="260%"><feGaussianBlur stdDeviation="9"/></filter>
    <style>
    .e{fill:none;stroke:#9aa3bd;stroke-width:2;stroke-linecap:round;stroke-dasharray:1;opacity:0;animation:draw .5s ease both}
    .en{stroke:#c2c6d4}
    .ico{transform-box:fill-box;transform-origin:center;opacity:0;animation:pop .55s cubic-bezier(.2,.85,.25,1) both}
    .lab{fill:#2b2740;font-size:12px;font-weight:600;text-anchor:middle;opacity:0;animation:fade .5s ease both}
    .rlab{fill:#8b8fa0}
    .elbl{fill:#8b8fa0;font-size:11px;font-weight:600;text-anchor:middle;opacity:0;animation:fade .5s ease both}
    .spot{opacity:0;animation:spot 15s ease infinite}
    .halo{fill:#e0095f;filter:url(#bl);opacity:0;animation:spoth 15s ease infinite}.haln{fill:#9296a8}
    .fy{fill:none;stroke:#e0095f;stroke-width:2.4;stroke-linecap:round;stroke-dasharray:1.5 11;opacity:0;animation:fin .6s ease 1.6s both,fmove 1s linear 1.6s infinite}
    .fn{fill:none;stroke:#9296a8;stroke-width:2.2;stroke-linecap:round;stroke-dasharray:1.5 11;opacity:0;animation:fin .6s ease 1.6s both,fmove 1.1s linear 1.6s infinite}
    .card{fill:#fff;stroke:#ececf2;stroke-width:1}
    .ct{fill:#211f2e;font-size:11.5px;font-weight:700}.cd{fill:#6e6a7c;font-size:10px;font-weight:500}
    @keyframes draw{from{opacity:0;stroke-dashoffset:1}15%{opacity:1}to{opacity:1;stroke-dashoffset:0}}
    @keyframes pop{from{opacity:0;transform:translateY(8px) scale(.85)}to{opacity:1;transform:none}}
    @keyframes fade{to{opacity:1}}
    @keyframes fin{to{opacity:.8}}
    @keyframes fmove{to{stroke-dashoffset:-12.5}}
    @keyframes spot{0%{opacity:0}1.3%{opacity:1}11%{opacity:1}13%{opacity:0}100%{opacity:0}}
    @keyframes spoth{0%{opacity:0}1.3%{opacity:.4}11%{opacity:.4}13%{opacity:0}100%{opacity:0}}
    @media (prefers-reduced-motion:reduce){.e,.ico,.lab,.elbl{animation:none;opacity:1;stroke-dashoffset:0}.spot,.fy,.fn{animation:none}}
</style>
  </defs>
  <circle class="halo" style="animation-delay:1s" cx="72" cy="120" r="26"/><circle class="halo" style="animation-delay:3.3s" cx="216" cy="120" r="26"/><circle class="halo" style="animation-delay:5.6s" cx="360" cy="120" r="26"/><circle class="halo" style="animation-delay:7.9s" cx="504" cy="120" r="26"/><circle class="halo" style="animation-delay:10.2s" cx="648" cy="120" r="26"/><circle class="halo haln" style="animation-delay:12.5s" cx="360" cy="232" r="26"/>
  
  <path id="e1" class="e" pathLength="1" marker-end="url(#ar)" d="M98,120 H188"/>
  <path id="e2" class="e" pathLength="1" marker-end="url(#ar)" d="M242,120 H332"/>
  <path id="e3" class="e" pathLength="1" marker-end="url(#ar)" d="M386,120 H476"/>
  <path id="e4" class="e" pathLength="1" marker-end="url(#ar)" d="M530,120 H620"/>
  <path id="e5" class="e en" pathLength="1" marker-end="url(#arn)" d="M360,146 V204"/>
  <text id="ly" class="elbl" x="432" y="108" style="animation-delay:1.1s">Yes</text>
  <text id="ln" class="elbl" x="378" y="178" style="animation-delay:1.1s">No</text>

  
  <path class="fy" d="M98,120 H188"/><path class="fy" d="M242,120 H332"/>
  <path class="fy" d="M386,120 H476"/><path class="fy" d="M530,120 H620"/>
  <path class="fn" d="M360,146 V204"/>

  <g class="ico" style="animation-delay:0.10s"><svg x="49.0" y="97.0" width="46" height="46" viewBox="0 0 24 24" style="color:#e0095f"><path fill="currentColor" d="M3 10c0-3.771 0-5.657 1.172-6.828S7.229 2 11 2h2c3.771 0 5.657 0 6.828 1.172S21 6.229 21 10v4c0 3.771 0 5.657-1.172 6.828S16.771 22 13 22h-2c-3.771 0-5.657 0-6.828-1.172S3 17.771 3 14z" opacity=".5"/><path fill="currentColor" d="M16.519 16.501c.175-.136.334-.295.651-.612l3.957-3.958c.096-.095.052-.26-.075-.305a4.3 4.3 0 0 1-1.644-1.034a4.3 4.3 0 0 1-1.034-1.644c-.045-.127-.21-.171-.305-.075L14.11 12.83c-.317.317-.476.476-.612.651q-.243.311-.412.666c-.095.2-.166.414-.308.84l-.184.55l-.292.875l-.273.82a.584.584 0 0 0 .738.738l.82-.273l.875-.292l.55-.184c.426-.142.64-.212.84-.308q.355-.17.666-.412m5.849-5.809a2.163 2.163 0 1 0-3.06-3.059l-.126.128a.52.52 0 0 0-.148.465c.02.107.055.265.12.452c.13.375.376.867.839 1.33s.955.709 1.33.839c.188.065.345.1.452.12a.53.53 0 0 0 .465-.148z"/><path fill="currentColor" fill-rule="evenodd" d="M7.25 9A.75.75 0 0 1 8 8.25h6.5a.75.75 0 0 1 0 1.5H8A.75.75 0 0 1 7.25 9m0 4a.75.75 0 0 1 .75-.75h3a.75.75 0 0 1 0 1.5H8a.75.75 0 0 1-.75-.75m0 4a.75.75 0 0 1 .75-.75h1.5a.75.75 0 0 1 0 1.5H8a.75.75 0 0 1-.75-.75" clip-rule="evenodd"/></svg></g><g class="ico" style="animation-delay:0.22s"><svg x="193.0" y="97.0" width="46" height="46" viewBox="0 0 24 24" style="color:#e0095f"><circle cx="12" cy="6" r="4" fill="currentColor"/><path fill="currentColor" fill-rule="evenodd" d="M16.5 22c-1.65 0-2.475 0-2.987-.513C13 20.975 13 20.15 13 18.5s0-2.475.513-2.987C14.025 15 14.85 15 16.5 15s2.475 0 2.987.513C20 16.025 20 16.85 20 18.5s0 2.475-.513 2.987C18.975 22 18.15 22 16.5 22m1.968-4.254a.583.583 0 1 0-.825-.825l-1.92 1.92l-.366-.365a.583.583 0 1 0-.825.825l.778.778a.583.583 0 0 0 .825 0z" clip-rule="evenodd"/><path fill="currentColor" d="M18.095 15.031C17.67 15 17.149 15 16.5 15c-1.65 0-2.475 0-2.987.513C13 16.025 13 16.85 13 18.5c0 1.166 0 1.92.181 2.443Q12.605 21 12 21c-3.866 0-7-1.79-7-4s3.134-4 7-4c2.613 0 4.892.818 6.095 2.031" opacity=".5"/></svg></g><g class="ico" style="animation-delay:0.34s"><svg x="337.0" y="97.0" width="46" height="46" viewBox="0 0 24 24" style="color:#e0095f"><path fill="currentColor" d="M22 12c0 5.523-4.477 10-10 10S2 17.523 2 12S6.477 2 12 2s10 4.477 10 10" opacity=".5"/><path fill="currentColor" d="M12 7.75c-.621 0-1.125.504-1.125 1.125a.75.75 0 0 1-1.5 0a2.625 2.625 0 1 1 4.508 1.829q-.138.142-.264.267a7 7 0 0 0-.571.617c-.22.282-.298.489-.298.662V13a.75.75 0 0 1-1.5 0v-.75c0-.655.305-1.186.614-1.583c.229-.294.516-.58.75-.814q.106-.105.193-.194A1.125 1.125 0 0 0 12 7.75M12 17a1 1 0 1 0 0-2a1 1 0 0 0 0 2"/></svg></g><g class="ico" style="animation-delay:0.46s"><svg x="481.0" y="97.0" width="46" height="46" viewBox="0 0 24 24" style="color:#e0095f"><path fill="currentColor" d="M4.892 9.614c0-.402.323-.728.722-.728H9.47c.4 0 .723.326.723.728a.726.726 0 0 1-.723.729H5.614a.726.726 0 0 1-.722-.729"/><path fill="currentColor" fill-rule="evenodd" d="M21.188 10.004q-.094-.005-.2-.004h-2.773C15.944 10 14 11.736 14 14s1.944 4 4.215 4h2.773q.106.001.2-.004c.923-.056 1.739-.757 1.808-1.737c.004-.064.004-.133.004-.197v-4.124c0-.064 0-.133-.004-.197c-.069-.98-.885-1.68-1.808-1.737m-3.217 5.063c.584 0 1.058-.478 1.058-1.067c0-.59-.474-1.067-1.058-1.067s-1.06.478-1.06 1.067c0 .59.475 1.067 1.06 1.067" clip-rule="evenodd"/><path fill="currentColor" d="M21.14 10.002c0-1.181-.044-2.448-.798-3.355a4 4 0 0 0-.233-.256c-.749-.748-1.698-1.08-2.87-1.238C16.099 5 14.644 5 12.806 5h-2.112C8.856 5 7.4 5 6.26 5.153c-1.172.158-2.121.49-2.87 1.238c-.748.749-1.08 1.698-1.238 2.87C2 10.401 2 11.856 2 13.694v.112c0 1.838 0 3.294.153 4.433c.158 1.172.49 2.121 1.238 2.87c.749.748 1.698 1.08 2.87 1.238c1.14.153 2.595.153 4.433.153h2.112c1.838 0 3.294 0 4.433-.153c1.172-.158 2.121-.49 2.87-1.238q.305-.308.526-.66c.45-.72.504-1.602.504-2.45l-.15.001h-2.774C15.944 18 14 16.264 14 14s1.944-4 4.215-4h2.773q.079 0 .151.002" opacity=".5"/><path fill="currentColor" d="M10.101 2.572L8 3.992l-1.733 1.16C7.405 5 8.859 5 10.694 5h2.112c1.838 0 3.294 0 4.433.153q.344.045.662.114L16 4l-2.113-1.428a3.42 3.42 0 0 0-3.786 0"/></svg></g><g class="ico" style="animation-delay:0.58s"><svg x="625.0" y="97.0" width="46" height="46" viewBox="0 0 24 24" style="color:#e0095f"><path fill="currentColor" d="M9.592 3.2a6 6 0 0 1-.495.399c-.298.2-.633.338-.985.408c-.153.03-.313.043-.632.068c-.801.064-1.202.096-1.536.214a2.71 2.71 0 0 0-1.655 1.655c-.118.334-.15.735-.214 1.536a6 6 0 0 1-.068.632c-.07.352-.208.687-.408.985c-.087.13-.191.252-.399.495c-.521.612-.782.918-.935 1.238c-.353.74-.353 1.6 0 2.34c.153.32.414.626.935 1.238c.208.243.312.365.399.495c.2.298.338.633.408.985c.03.153.043.313.068.632c.064.801.096 1.202.214 1.536a2.71 2.71 0 0 0 1.655 1.655c.334.118.735.15 1.536.214c.319.025.479.038.632.068c.352.07.687.209.985.408c.13.087.252.191.495.399c.612.521.918.782 1.238.935c.74.353 1.6.353 2.34 0c.32-.153.626-.414 1.238-.935c.243-.208.365-.312.495-.399c.298-.2.633-.338.985-.408c.153-.03.313-.043.632-.068c.801-.064 1.202-.096 1.536-.214a2.71 2.71 0 0 0 1.655-1.655c.118-.334.15-.735.214-1.536c.025-.319.038-.479.068-.632c.07-.352.209-.687.408-.985c.087-.13.191-.252.399-.495c.521-.612.782-.918.935-1.238c.353-.74.353-1.6 0-2.34c-.153-.32-.414-.626-.935-1.238a6 6 0 0 1-.399-.495a2.7 2.7 0 0 1-.408-.985a6 6 0 0 1-.068-.632c-.064-.801-.096-1.202-.214-1.536a2.71 2.71 0 0 0-1.655-1.655c-.334-.118-.735-.15-1.536-.214a6 6 0 0 1-.632-.068a2.7 2.7 0 0 1-.985-.408a6 6 0 0 1-.495-.399c-.612-.521-.918-.782-1.238-.935a2.71 2.71 0 0 0-2.34 0c-.32.153-.626.414-1.238.935" opacity=".5"/><path fill="currentColor" d="M16.374 9.863a.814.814 0 0 0-1.151-1.151l-4.85 4.85l-1.595-1.595a.814.814 0 0 0-1.151 1.151l2.17 2.17a.814.814 0 0 0 1.15 0z"/></svg></g><g class="ico" style="animation-delay:0.70s"><svg x="337.0" y="209.0" width="46" height="46" viewBox="0 0 24 24" style="color:#9296a8"><path fill="currentColor" d="M22 12c0 5.523-4.477 10-10 10S2 17.523 2 12S6.477 2 12 2s10 4.477 10 10" opacity=".5"/><path fill="currentColor" d="M8.97 8.97a.75.75 0 0 1 1.06 0L12 10.94l1.97-1.97a.75.75 0 1 1 1.06 1.06L13.06 12l1.97 1.97a.75.75 0 0 1-1.06 1.06L12 13.06l-1.97 1.97a.75.75 0 0 1-1.06-1.06L10.94 12l-1.97-1.97a.75.75 0 0 1 0-1.06"/></svg></g>
  <text class="lab" x="72" y="154" style="animation-delay:0.50s">Submit request</text><text class="lab" x="216" y="154" style="animation-delay:0.60s">Manager review</text><text class="lab" x="360" y="154" style="animation-delay:0.70s">Approved?</text><text class="lab" x="504" y="154" style="animation-delay:0.80s">Finance</text><text class="lab" x="648" y="154" style="animation-delay:0.90s">Provisioned</text><text class="lab rlab" x="360" y="266" style="animation-delay:1.00s">Rejected</text>
  <g class="spot" style="animation-delay:1s"><rect class="card" filter="url(#csh)" x="12" y="14" width="232" height="60" rx="12"/><circle cx="34" cy="36" r="11" fill="#e0095f"/><text x="34" y="40" text-anchor="middle" fill="#fff" font-size="11" font-weight="700">1</text><text class="ct" x="52" y="32">Submit request</text><text class="cd" x="52" y="49">Employee files an access request</text><text class="cd" x="26" y="64">with a business justification.</text><path d="M64,74 l8,9 l8,-9 z" fill="#fff"/></g><g class="spot" style="animation-delay:3.3s"><rect class="card" filter="url(#csh)" x="100" y="14" width="232" height="60" rx="12"/><circle cx="122" cy="36" r="11" fill="#e0095f"/><text x="122" y="40" text-anchor="middle" fill="#fff" font-size="11" font-weight="700">2</text><text class="ct" x="140" y="32">Manager review</text><text class="cd" x="140" y="49">Line manager checks the request</text><text class="cd" x="114" y="64">against team policy.</text><path d="M208,74 l8,9 l8,-9 z" fill="#fff"/></g><g class="spot" style="animation-delay:5.6s"><rect class="card" filter="url(#csh)" x="244" y="14" width="232" height="60" rx="12"/><circle cx="266" cy="36" r="11" fill="#e0095f"/><text x="266" y="40" text-anchor="middle" fill="#fff" font-size="11" font-weight="700">3</text><text class="ct" x="284" y="32">Approval gateway</text><text class="cd" x="284" y="49">Routes Yes → Finance, or</text><text class="cd" x="258" y="64">No → Rejected.</text><path d="M352,74 l8,9 l8,-9 z" fill="#fff"/></g><g class="spot" style="animation-delay:7.9s"><rect class="card" filter="url(#csh)" x="388" y="14" width="232" height="60" rx="12"/><circle cx="410" cy="36" r="11" fill="#e0095f"/><text x="410" y="40" text-anchor="middle" fill="#fff" font-size="11" font-weight="700">4</text><text class="ct" x="428" y="32">Finance check</text><text class="cd" x="428" y="49">Finance confirms budget and the</text><text class="cd" x="402" y="64">cost-centre allocation.</text><path d="M496,74 l8,9 l8,-9 z" fill="#fff"/></g><g class="spot" style="animation-delay:10.2s"><rect class="card" filter="url(#csh)" x="472" y="14" width="232" height="60" rx="12"/><circle cx="494" cy="36" r="11" fill="#e0095f"/><text x="494" y="40" text-anchor="middle" fill="#fff" font-size="11" font-weight="700">5</text><text class="ct" x="512" y="32">Provisioned</text><text class="cd" x="512" y="49">Access is granted and the</text><text class="cd" x="486" y="64">requester is notified.</text><path d="M640,74 l8,9 l8,-9 z" fill="#fff"/></g>
  <g class="spot" style="animation-delay:12.5s"><path d="M274,240 l9,-7 l0,14 z" fill="#fff"/><path d="M283,240 H332" stroke="#d7d7e0" stroke-width="1.5" stroke-dasharray="2 3"/><rect class="card" filter="url(#csh)" x="70" y="212" width="204" height="56" rx="12"/><circle cx="92" cy="234" r="11" fill="#9296a8"/><text x="92" y="238" text-anchor="middle" fill="#fff" font-size="11" font-weight="700">6</text><text class="ct" x="110" y="230">Rejected</text><text class="cd" x="110" y="247">Request denied — the requester</text><text class="cd" x="84" y="262">is notified with the reason.</text></g>
</svg>