<svg xmlns="http://www.w3.org/2000/svg" viewBox="0 0 64 64" width="64" height="64">
  <rect width="64" height="64" rx="13" fill="#e0095f"/>
  <path transform="translate(9.90 53.26) scale(0.029471 -0.029471)" fill="#ffffff"
    d="M312 -25C447 -25 524 55 524 197V378L650 508L974 97C1043 9 1105 -25 1196 -25C1312 -25 1400 64 1400 180C1400 240 1369 304 1296 394L984 780L1282 1098C1342 1162 1364 1208 1364 1272C1364 1381 1274 1468 1163 1468C1091 1468 1036 1440 975 1372L532 871H524V1246C524 1388 447 1468 312 1468C177 1468 100 1388 100 1246V197C100 55 177 -25 312 -25Z"/>
</svg>
