<svg viewBox="80 44 780 192" xmlns="http://www.w3.org/2000/svg" role="img" aria-label="kymostudio — Diagram superpowers">
  <!-- Reusable horizontal brand lockup (light): tile + two-tone wordmark + tagline.
       Wordmark/tagline set in SF Pro Rounded (Black 900 / Medium 500); see docs/brand/README.md. -->
  <g transform="translate(96 50) scale(1.8)">
    <rect width="100" height="100" rx="18" fill="#e0095f"/>
    <g transform="translate(50 50) scale(0.98) translate(-50 -50)">
      <line x1="33" y1="26.5" x2="33" y2="73.5" stroke="#fff" stroke-width="11.5" stroke-linecap="round"/>
      <line x1="65.5" y1="27" x2="34" y2="58.5" stroke="#fff" stroke-width="11.5" stroke-linecap="round"/>
      <line x1="48" y1="49.5" x2="67" y2="73" stroke="#fff" stroke-width="11.5" stroke-linecap="round"/>
      <circle cx="33" cy="26.5" r="5.8" fill="#fff"/><circle cx="33" cy="26.5" r="2.44" fill="#e0095f"/>
      <circle cx="65.5" cy="27" r="5.8" fill="#fff"/><circle cx="65.5" cy="27" r="2.44" fill="#e0095f"/>
      <circle cx="33" cy="73.5" r="5.8" fill="#fff"/><circle cx="33" cy="73.5" r="2.44" fill="#e0095f"/>
      <circle cx="34" cy="58.5" r="5.8" fill="#fff"/><circle cx="34" cy="58.5" r="2.44" fill="#e0095f"/>
      <circle cx="48" cy="49.5" r="5.8" fill="#fff"/><circle cx="48" cy="49.5" r="2.44" fill="#e0095f"/>
      <circle cx="67" cy="73" r="5.8" fill="#fff"/><circle cx="67" cy="73" r="2.44" fill="#e0095f"/>
    </g>
  </g>
  <text x="316" y="158" font-family="'SF Pro Rounded', ui-rounded, -apple-system, 'Segoe UI', Roboto, system-ui, sans-serif" font-weight="900" font-size="92" fill="#242131">kymo<tspan fill="#e0095f">studio</tspan></text>
  <text x="320" y="216" font-family="'SF Pro Rounded', ui-rounded, -apple-system, 'Segoe UI', Roboto, system-ui, sans-serif" font-weight="500" font-size="32" fill="#6b6878">Diagram superpowers</text>
</svg>
