<svg viewBox="80 44 823 192" xmlns="http://www.w3.org/2000/svg" role="img" aria-label="kymostudio — Diagram superpowers">
  <!-- Reusable horizontal brand lockup: tile + two-tone wordmark + tagline.
       Wordmark/tagline are OUTLINED paths (SF Pro Rounded, Black 900 / Medium 500) so
       the lockup renders identically in any browser / on GitHub — no font dependency.
       Regenerate (both light + dark) with tools/outline_wordmark.py. -->
  <g transform="translate(96 50) scale(1.8)">
    <rect width="100" height="100" rx="18" fill="#e0095f"/>
    <g transform="translate(50 50) scale(0.98) translate(-50 -50)">
      <line x1="33" y1="26.5" x2="33" y2="73.5" stroke="#fff" stroke-width="11.5" stroke-linecap="round"/>
      <line x1="65.5" y1="27" x2="34" y2="58.5" stroke="#fff" stroke-width="11.5" stroke-linecap="round"/>
      <line x1="48" y1="49.5" x2="67" y2="73" stroke="#fff" stroke-width="11.5" stroke-linecap="round"/>
      <circle cx="33" cy="26.5" r="5.8" fill="#fff"/><circle cx="33" cy="26.5" r="2.44" fill="#e0095f"/>
      <circle cx="65.5" cy="27" r="5.8" fill="#fff"/><circle cx="65.5" cy="27" r="2.44" fill="#e0095f"/>
      <circle cx="33" cy="73.5" r="5.8" fill="#fff"/><circle cx="33" cy="73.5" r="2.44" fill="#e0095f"/>
      <circle cx="34" cy="58.5" r="5.8" fill="#fff"/><circle cx="34" cy="58.5" r="2.44" fill="#e0095f"/>
      <circle cx="48" cy="49.5" r="5.8" fill="#fff"/><circle cx="48" cy="49.5" r="2.44" fill="#e0095f"/>
      <circle cx="67" cy="73" r="5.8" fill="#fff"/><circle cx="67" cy="73" r="2.44" fill="#e0095f"/>
    </g>
  </g>
  <path fill="#242131" d="M328.30852246284485 159.07063162326813Q324.6549241542816 159.07063162326813 322.3190168142319 156.94809633493423Q319.98310947418213 154.82556104660034 319.98310947418213 150.43825340270996V100.73948097229004Q319.98310947418213 96.35217332839966 322.3190168142319 94.22963804006577Q324.6549241542816 92.10710275173187 328.30852246284485 92.10710275173187Q331.9621207714081 92.10710275173187 334.2980281114578 94.22963804006577Q336.63393545150757 96.35217332839966 336.63393545150757 100.77691495418549V126.90670073032379H336.93340730667114L352.0198119878769 111.28874886035919Q353.7867134809494 109.44697940349579 355.35146927833557 108.63091146945953Q356.91622507572174 107.81484353542328 358.8553261756897 107.81484353542328Q362.11960339546204 107.81484353542328 364.2458771467209 109.88496631383896Q366.37215089797974 111.95508909225464 366.37215089797974 115.12952256202698Q366.37215089797974 117.09856975078583 365.6721288561821 118.48738473653793Q364.97210681438446 119.87619972229004 363.0929033756256 121.635613322258L353.254864692688 130.85222816467285L363.89403116703033 145.12258410453796Q365.30156314373016 147.0766555070877 365.82190042734146 148.40931951999664Q366.34223771095276 149.74198353290558 366.34223771095276 151.36663699150085Q366.34223771095276 154.81808412075043 364.11114716529846 156.94435787200928Q361.88005661964417 159.07063162326813 358.2938438653946 159.07063162326813Q355.4114053249359 159.07063162326813 353.5396897792816 157.80161195993423Q351.6679742336273 156.53259229660034 349.57165479660034 153.2159217596054L340.65445148944855 140.00121068954468L336.63393545150757 143.68481540679932V150.43825340270996Q336.63393545150757 154.82556104660034 334.2980281114578 156.94809633493423Q331.9621207714081 159.07063162326813 328.30852246284485 159.07063162326813ZM387.08875477313995 176.07355308532715Q381.8254678249359 176.07355308532715 379.04408568143845 174.10824435949326Q376.262703537941 172.14293563365936 376.262703537941 168.42943966388702Q376.262703537941 165.96625185012817 377.86115485429764 164.5624583363533Q379.4596061706543 163.15866482257843 382.2147834300995 163.15866482257843Q382.7688271999359 163.15866482257843 383.25547993183136 163.18112576007843Q383.7421326637268 163.20358669757843 384.26623034477234 163.20358669757843Q385.6139085292816 163.20358669757843 387.14500719308853 162.74685263633728Q388.67610585689545 162.29011857509613 389.7317781448364 160.91244494915009L390.09865748882294 160.2160928249359L375.2519476413727 120.62489032745361Q374.24870705604553 117.95956230163574 374.24870705604553 115.56376552581787Q374.24870705604553 112.22461485862732 376.75681126117706 110.0197291970253Q379.2649154663086 107.81484353542328 382.9484598636627 107.81484353542328Q386.3250390291214 107.81484353542328 388.15932607650757 109.38334327936172Q389.99361312389374 110.95184302330017 391.01931738853455 114.69527959823608L399.83159148693085 145.6915159225464H400.1535270214081L408.97328901290894 114.5455436706543Q410.8225518465042 107.81484353542328 417.07409262657166 107.81484353542328Q420.652822971344 107.81484353542328 422.9063744544983 109.91117119789124Q425.1599259376526 112.00749886035919 425.1599259376526 115.2642936706543Q425.1599259376526 117.62265646457672 424.1941193342209 120.32541847229004L411.06185734272003 157.1989928483963Q408.66603314876556 163.96718728542328 405.4691195487976 168.1374090909958Q402.27220594882965 172.3076308965683 397.7912914156914 174.19059199094772Q393.3103768825531 176.07355308532715 387.08875477313995 176.07355308532715ZM442.4325431585312 159.07063162326813Q438.76396906375885 159.07063162326813 436.4542666077614 156.94435238838196Q434.1445641517639 154.8180731534958 434.1445641517639 150.43825340270996V116.29748034477234Q434.1445641517639 112.00001645088196 436.41308867931366 109.90742999315262Q438.6816132068634 107.81484353542328 442.24536776542664 107.81484353542328Q445.8465563058853 107.81484353542328 448.09636384248734 109.8887130022049Q450.34617137908936 111.96258246898651 450.34617137908936 116.29748034477234V118.47624337673187H450.67559480667114Q452.11310029029846 113.66214227676392 455.9052465558052 110.79464387893677Q459.69739282131195 107.92714548110962 464.7136615514755 107.92714548110962Q468.38975644111633 107.92714548110962 471.21608513593674 109.16997945308685Q474.04241383075714 110.41281342506409 475.8916985988617 112.76371574401855Q477.74098336696625 115.11461806297302 478.3923587799072 118.50620591640472H478.721782207489Q479.65017676353455 115.30927586555481 481.8101707100868 112.93591260910034Q483.9701646566391 110.56254935264587 487.0660246014595 109.24484741687775Q490.1618845462799 107.92714548110962 493.8529552221298 107.92714548110962Q498.66707825660706 107.92714548110962 502.287027657032 110.0384681224823Q505.90697705745697 112.14979076385498 507.94343173503876 115.923220038414Q509.97988641262054 119.69664931297302 509.97988641262054 124.69794225692749V150.43825340270996Q509.97988641262054 154.8180731534958 507.63274997472763 156.94435238838196Q505.2856135368347 159.07063162326813 501.6170394420624 159.07063162326813Q497.94846534729004 159.07063162326813 495.6387628912926 156.94435238838196Q493.3290604352951 154.8180731534958 493.3290604352951 150.43825340270996V128.96546006202698Q493.3290604352951 125.20697093009949 491.6519560813904 123.30151599645615Q489.97485172748566 121.3960610628128 486.69552195072174 121.3960610628128Q483.60336208343506 121.3960610628128 481.7989717721939 123.46249198913574Q479.99458146095276 125.52892291545868 479.99458146095276 129.05532026290894V150.43825340270996Q479.99458146095276 154.8180731534958 477.8533319234848 156.94435238838196Q475.71208238601685 159.07063162326813 472.0435082912445 159.07063162326813Q468.37493419647217 159.07063162326813 466.25240164995193 156.94435238838196Q464.1298691034317 154.8180731534958 464.1298691034317 150.43825340270996V128.8606240749359Q464.1298691034317 125.19947755336761 462.44153290987015 123.29776930809021Q460.7531967163086 121.3960610628128 457.55622828006744 121.3960610628128Q454.46406841278076 121.3960610628128 452.62972927093506 123.5074166059494Q450.79539012908936 125.618772149086 450.79539012908936 129.12271130084991V150.43825340270996Q450.79539012908936 154.8180731534958 448.44825369119644 156.94435238838196Q446.1011172533035 159.07063162326813 442.4325431585312 159.07063162326813ZM545.273685336113 159.18293356895447Q537.4573119878769 159.18293356895447 531.7784579396248 156.16568279266357Q526.0996038913727 153.14843201637268 523.0262076258659 147.37597930431366Q519.9528113603592 141.60352659225464 519.9528113603592 133.40530359745026Q519.9528113603592 125.34932863712311 523.0823585987091 119.59933686256409Q526.211905837059 113.84934508800507 531.8907598853111 110.775943338871Q537.5696139335632 107.70254158973694 545.273685336113 107.70254158973694Q553.0151907205582 107.70254158973694 558.7090178132057 110.75722634792328Q564.4028449058533 113.81191110610962 567.5136751532555 119.56190288066864Q570.6245054006577 125.31189465522766 570.6245054006577 133.40530359745026Q570.6245054006577 141.64096057415009 567.5511091351509 147.39469629526138Q564.4777128696442 153.14843201637268 558.8026027679443 156.16568279266357Q553.1274926662445 159.18293356895447 545.273685336113 159.18293356895447ZM545.273685336113 147.06912922859192Q547.8717045783997 147.06912922859192 549.7696825861931 145.49685263633728Q551.6676605939865 143.92457604408264 552.6971362233162 140.86238145828247Q553.7266118526459 137.8001868724823 553.7266118526459 133.4427375793457Q553.7266118526459 129.15266835689545 552.6971362233162 126.09421771764755Q551.6676605939865 123.03576707839966 549.7696825861931 121.42605650424957Q547.8717045783997 119.81634593009949 545.273685336113 119.81634593009949Q542.7131000757217 119.81634593009949 540.8151220679283 121.42605650424957Q538.9171440601349 123.03576707839966 537.8839244842529 126.09421771764755Q536.850704908371 129.15266835689545 536.850704908371 133.4427375793457Q536.850704908371 137.8001868724823 537.8652074933052 140.86238145828247Q538.8797100782394 143.92457604408264 540.7776880860329 145.49685263633728Q542.6756660938263 147.06912922859192 545.273685336113 147.06912922859192Z"/>
  <path fill="#e0095f" d="M602.6388922929764 159.18293356895447Q592.9882593154907 159.18293356895447 587.1184996366501 156.4464458823204Q581.2487399578094 153.70995819568634 579.5417087078094 149.53970623016357Q578.9577298164368 148.04232501983643 578.9577298164368 146.7620598077774Q578.9577298164368 144.02934074401855 580.7733026146889 142.2811535000801Q582.588875412941 140.53296625614166 585.3889745473862 140.53296625614166Q589.1473978757858 140.53296625614166 592.6213032007217 143.91705524921417Q594.6727281808853 146.035893201828 597.0797924399376 147.0616194009781Q599.4868566989899 148.08734560012817 602.7437227964401 148.08734560012817Q604.7427709102631 148.08734560012817 606.184034049511 147.61191374063492Q607.6252971887589 147.13648188114166 608.4151849150658 146.2380279302597Q609.2050726413727 145.33957397937775 609.2050726413727 144.11917352676392Q609.2050726413727 142.57683205604553 607.906073987484 141.65591990947723Q606.6070753335953 140.73500776290894 603.3277620077133 140.08363234996796L594.650390625 138.3990592956543Q587.3805457353592 136.99149990081787 583.6482971310616 133.23304915428162Q579.9160485267639 129.47459840774536 579.9160485267639 123.86686837673187Q579.9160485267639 116.37243604660034 585.8794013857841 112.03748881816864Q591.8427542448044 107.70254158973694 602.1822130680084 107.70254158973694Q607.9546273946762 107.70254158973694 612.3120245933533 109.09886091947556Q616.6694217920303 110.49518024921417 619.4470791816711 112.77870798110962Q622.224736571312 115.06223571300507 623.1081928014755 117.74257791042328Q623.5424302816391 118.97791576385498 623.5424302816391 120.14586806297302Q623.5424302816391 122.54916369915009 622.0038738846779 124.09146404266357Q620.4653174877167 125.63376438617706 617.1935523748398 125.63376438617706Q615.8459016084671 125.63376438617706 614.2437063455582 125.10967767238617Q612.6415110826492 124.58559095859528 611.6008310317993 123.67217218875885Q609.7365814447403 121.9875717163086 607.6626818180084 120.39659458398819Q605.5887821912766 118.80561745166779 602.1073341369629 118.80561745166779Q599.3446031808853 118.80561745166779 597.6113451123238 119.90996652841568Q595.8780870437622 121.01431560516357 595.8780870437622 122.93849575519562Q595.8780870437622 124.42842745780945 597.1696060299873 125.4391860961914Q598.4611250162125 126.44994473457336 601.905144572258 127.13126623630524L610.5525643825531 128.8008635044098Q618.4737737178802 130.33570063114166 622.1012000441551 133.52514553070068Q625.72862637043 136.7145904302597 625.72862637043 142.25494587421417Q625.72862637043 147.44339776039124 622.8311791419983 151.24302369356155Q619.9337319135666 155.04264962673187 614.7452800273895 157.11279159784317Q609.5568281412125 159.18293356895447 602.6388922929764 159.18293356895447ZM639.4300066232681 144.67323923110962V121.11157047748566H637.8427103757858Q635.0950155258179 121.11157047748566 633.4254374504089 119.43450725078583Q631.755859375 117.757444024086 631.755859375 114.99477887153625Q631.755859375 112.19467973709106 633.4254374504089 110.54007744789124Q635.0950155258179 108.8854751586914 637.8427103757858 108.8854751586914H639.4300066232681V105.34402525424957Q639.4300066232681 101.25618946552277 641.6161780357361 98.98391824960709Q643.802349448204 96.7116470336914 647.7554196119308 96.7116470336914Q651.7084897756577 96.7116470336914 653.8946611881256 98.98391824960709Q656.0808326005936 101.25618946552277 656.0808326005936 105.34402525424957V108.8854751586914H659.7794569730759Q662.5346397161484 108.8854751586914 664.200473845005 110.55879443883896Q665.8663079738617 112.23211371898651 665.8663079738617 114.99477887153625Q665.8663079738617 117.757444024086 664.200473845005 119.43450725078583Q662.5346397161484 121.11157047748566 659.7794569730759 121.11157047748566H656.0808326005936V140.98220694065094Q656.0808326005936 143.23580503463745 656.8594884872437 144.20912420749664Q657.6381443738937 145.18244338035583 659.2104429006577 145.3696187734604L660.2211768627167 145.48940861225128Q662.9763650894165 145.81134414672852 664.4924632906914 147.15524274110794Q666.0085614919662 148.49914133548737 666.0085614919662 151.38907873630524Q666.0085614919662 153.79236888885498 664.4063744544983 155.40953719615936Q662.8041874170303 157.02670550346375 660.1463445425034 157.84277617931366Q657.4885016679764 158.65884685516357 654.3140462636948 158.65884685516357H653.8947736024857Q646.7372580766678 158.65884685516357 643.083632349968 155.12501096725464Q639.4300066232681 151.5911750793457 639.4300066232681 144.67323923110962ZM693.2763534784317 158.9583296775818Q688.0130116939545 158.9583296775818 683.9251320362091 156.75716054439545Q679.8372523784637 154.5559914112091 677.5162988901138 150.39323830604553Q675.1953454017639 146.23048520088196 675.1953454017639 140.44306218624115V116.44722175598145Q675.1953454017639 112.05991411209106 677.5312527418137 109.93737882375717Q679.8671600818634 107.81484353542328 683.5207583904266 107.81484353542328Q687.1743566989899 107.81484353542328 689.5102640390396 109.93737882375717Q691.8461713790894 112.05991411209106 691.8461713790894 116.48465573787689V136.7670111656189Q691.8461713790894 141.01216399669647 693.9200792312622 143.2133550643921Q695.9939870834351 145.4145461320877 699.5952688455582 145.4145461320877Q701.9537029266357 145.4145461320877 703.6794758439064 144.3176904320717Q705.4052487611771 143.22083473205566 706.3598509430885 141.21055752038956Q707.314453125 139.20028030872345 707.314453125 136.5573446750641V116.44722175598145Q707.314453125 112.05991411209106 709.6503604650497 109.93737882375717Q711.9862678050995 107.81484353542328 715.6398661136627 107.81484353542328Q719.293464422226 107.81484353542328 721.6293717622757 109.93737882375717Q723.9652791023254 112.05991411209106 723.9652791023254 116.48465573787689V150.58799481391907Q723.9652791023254 154.9079169034958 721.722959458828 156.98927426338196Q719.4806398153305 159.07063162326813 715.8644754886627 159.07063162326813Q712.2932330369949 159.07063162326813 710.0247085094452 156.98927426338196Q707.7561839818954 154.9079169034958 707.7561839818954 150.6254287958145V148.61137199401855H707.4267605543137Q706.3710882663727 151.86819422245026 704.4506739974022 154.1854037642479Q702.5302597284317 156.50261330604553 699.7563325762749 157.73047149181366Q696.982405424118 158.9583296775818 693.2763534784317 158.9583296775818ZM753.5241141319275 158.7337257862091Q747.4446907043457 158.7337257862091 743.0984951853752 155.69027012586594Q738.7522996664047 152.64681446552277 736.423844575882 146.96794670820236Q734.0953894853592 141.28907895088196 734.0953894853592 133.33043563365936Q734.0953894853592 125.44666028022766 736.4575346112251 119.82394349575043Q738.8196797370911 114.2012267112732 743.2332553267479 111.17648804187775Q747.6468309164047 108.1517493724823 753.7562004327774 108.1517493724823Q757.3499449491501 108.1517493724823 760.2586349844933 109.37212240695953Q763.1673250198364 110.59249544143677 765.2561949491501 112.72253507375717Q767.3450648784637 114.85257470607758 768.3633031845093 117.60029149055481H768.6927266120911V100.73948097229004Q768.6927266120911 96.35217332839966 771.0286339521408 94.22963804006577Q773.3645412921906 92.10710275173187 777.0181396007538 92.10710275173187Q780.671737909317 92.10710275173187 783.0076452493668 94.22963804006577Q785.3435525894165 96.35217332839966 785.3435525894165 100.77691495418549V150.4981565475464Q785.3435525894165 154.85551261901855 783.0151331424713 156.96307212114334Q780.6867136955261 159.07063162326813 777.0331153869629 159.07063162326813Q773.3870049715042 159.07063162326813 771.0398657917976 156.96681606769562Q768.6927266120911 154.8630005121231 768.6927266120911 150.4981565475464V149.45736134052277H768.3707910776138Q767.4873183965683 152.09278166294098 765.3834781646729 154.19662189483643Q763.2796379327774 156.30046212673187 760.2623898983002 157.5170939564705Q757.2451418638229 158.7337257862091 753.5241141319275 158.7337257862091ZM759.9478216171265 145.75893986225128Q762.7180349826813 145.75893986225128 764.6796491146088 144.29896247386932Q766.6412632465363 142.83898508548737 767.7081728577614 140.0725184082985Q768.7750824689865 137.30605173110962 768.7750824689865 133.48017156124115Q768.7750824689865 129.65429139137268 767.7081728577614 126.89156866073608Q766.6412632465363 124.12884593009949 764.660932123661 122.6276906132698Q762.6806010007858 121.12653529644012 759.9478216171265 121.12653529644012Q757.200066447258 121.12653529644012 755.2347083687782 122.62394666671753Q753.2693502902985 124.12135803699493 752.2099285721779 126.88033682107925Q751.1505068540573 129.63931560516357 751.1505068540573 133.4427375793457Q751.1505068540573 137.28359353542328 752.1912115812302 140.04631626605988Q753.231916308403 142.80903899669647 755.2159913778305 144.28398942947388Q757.200066447258 145.75893986225128 759.9478216171265 145.75893986225128ZM805.3713525533676 104.16860151290894Q801.7851288318634 104.16860151290894 799.3556283116341 101.83268594741821Q796.9261277914047 99.49677038192749 796.9261277914047 96.09771656990051Q796.9261277914047 92.65374088287354 799.3556283116341 90.34028625488281Q801.7851288318634 88.02683162689209 805.3713525533676 88.02683162689209Q808.9650641679764 88.02683162689209 811.3945646882057 90.34028625488281Q813.8240652084351 92.65374088287354 813.8240652084351 96.09771656990051Q813.8240652084351 99.49677038192749 811.3945646882057 101.83268594741821Q808.9650641679764 104.16860151290894 805.3713525533676 104.16860151290894ZM805.3713525533676 159.07063162326813Q801.4557163715363 159.07063162326813 799.2508279681206 156.79836040735245Q797.0459395647049 154.52608919143677 797.0459395647049 150.43825340270996V116.44722175598145Q797.0459395647049 112.35938596725464 799.2508279681206 110.08711475133896Q801.4557163715363 107.81484353542328 805.3713525533676 107.81484353542328Q809.3244227170944 107.81484353542328 811.5105941295624 110.10583174228668Q813.6967655420303 112.39681994915009 813.6967655420303 116.48465573787689V150.43825340270996Q813.6967655420303 154.52608919143677 811.5105941295624 156.79836040735245Q809.3244227170944 159.07063162326813 805.3713525533676 159.07063162326813ZM849.260013461113 159.18293356895447Q841.4436401128769 159.18293356895447 835.7647860646248 156.16568279266357Q830.0859320163727 153.14843201637268 827.0125357508659 147.37597930431366Q823.9391394853592 141.60352659225464 823.9391394853592 133.40530359745026Q823.9391394853592 125.34932863712311 827.0686867237091 119.59933686256409Q830.198233962059 113.84934508800507 835.8770880103111 110.775943338871Q841.5559420585632 107.70254158973694 849.260013461113 107.70254158973694Q857.0015188455582 107.70254158973694 862.6953459382057 110.75722634792328Q868.3891730308533 113.81191110610962 871.5000032782555 119.56190288066864Q874.6108335256577 125.31189465522766 874.6108335256577 133.40530359745026Q874.6108335256577 141.64096057415009 871.5374372601509 147.39469629526138Q868.4640409946442 153.14843201637268 862.7889308929443 156.16568279266357Q857.1138207912445 159.18293356895447 849.260013461113 159.18293356895447ZM849.260013461113 147.06912922859192Q851.8580327033997 147.06912922859192 853.7560107111931 145.49685263633728Q855.6539887189865 143.92457604408264 856.6834643483162 140.86238145828247Q857.7129399776459 137.8001868724823 857.7129399776459 133.4427375793457Q857.7129399776459 129.15266835689545 856.6834643483162 126.09421771764755Q855.6539887189865 123.03576707839966 853.7560107111931 121.42605650424957Q851.8580327033997 119.81634593009949 849.260013461113 119.81634593009949Q846.6994282007217 119.81634593009949 844.8014501929283 121.42605650424957Q842.9034721851349 123.03576707839966 841.8702526092529 126.09421771764755Q840.837033033371 129.15266835689545 840.837033033371 133.4427375793457Q840.837033033371 137.8001868724823 841.8515356183052 140.86238145828247Q842.8660382032394 143.92457604408264 844.7640162110329 145.49685263633728Q846.6619942188263 147.06912922859192 849.260013461113 147.06912922859192Z"/>
  <path fill="#6b6878" d="M323.80731773376465 216.0Q323.0104236602783 216.0 322.54687213897705 215.52342700958252Q322.0833206176758 215.04685401916504 322.0833206176758 214.2108964920044V195.2422285079956Q322.0833206176758 194.40366649627686 322.54687213897705 193.92839574813843Q323.0104236602783 193.453125 323.80731773376465 193.453125H330.0052375793457Q333.36201000213623 193.453125 335.75263595581055 194.77864456176758Q338.14326190948486 196.10416412353516 339.412793636322 198.61978816986084Q340.6823253631592 201.13541221618652 340.6823253631592 204.69270515441895Q340.6823253631592 208.24999809265137 339.412793636322 210.78645706176758Q338.14326190948486 213.3229160308838 335.7591462135315 214.6614580154419Q333.3750305175781 216.0 330.0052375793457 216.0ZM325.5313148498535 213.01296520233154H329.69272232055664Q333.29686164855957 213.01296520233154 335.2291374206543 210.8697509765625Q337.161413192749 208.72653675079346 337.161413192749 204.71874618530273Q337.161413192749 200.71617031097412 335.2265319824219 198.5781650543213Q333.2916507720947 196.44015979766846 329.69272232055664 196.44015979766846H325.5313148498535ZM346.8307523727417 197.0677146911621Q346.03125953674316 197.0677146911621 345.46224069595337 196.50520706176758Q344.8932218551636 195.94269943237305 344.8932218551636 195.15622901916504Q344.8932218551636 194.35413360595703 345.46224069595337 193.7994384765625Q346.03125953674316 193.24474334716797 346.8307523727417 193.24474334716797Q347.64326572418213 193.24474334716797 348.2122845649719 193.7994384765625Q348.7813034057617 194.35413360595703 348.7813034057617 195.15622901916504Q348.7813034057617 195.94269943237305 348.2122845649719 196.50520706176758Q347.64326572418213 197.0677146911621 346.8307523727417 197.0677146911621ZM346.8307523727417 216.29948139190674Q346.0833377838135 216.29948139190674 345.62369298934937 215.81639909744263Q345.16404819488525 215.33331680297852 345.16404819488525 214.5364227294922V201.04689025878906Q345.16404819488525 200.24999618530273 345.62369298934937 199.76691389083862Q346.0833377838135 199.2838315963745 346.8307523727417 199.2838315963745Q347.580771446228 199.2838315963745 348.0391139984131 199.76821613311768Q348.49745655059814 200.25260066986084 348.49745655059814 201.04949474334717V214.5364227294922Q348.49745655059814 215.33331680297852 348.0391139984131 215.81639909744263Q347.580771446228 216.29948139190674 346.8307523727417 216.29948139190674ZM358.19791412353516 216.2760410308838Q356.5963525772095 216.2760410308838 355.35937118530273 215.65624809265137Q354.122389793396 215.03645515441895 353.4231686592102 213.92056798934937Q352.7239475250244 212.80468082427979 352.7239475250244 211.33592891693115Q352.7239475250244 209.17706680297852 354.3150997161865 207.91013765335083Q355.90625190734863 206.64320850372314 358.82553577423096 206.47914505004883L363.34895515441895 206.21872901916504V204.94530200958252Q363.34895515441895 203.56250190734863 362.4700560569763 202.78386402130127Q361.5911569595337 202.0052261352539 360.03388118743896 202.0052261352539Q358.80212211608887 202.0052261352539 357.94145345687866 202.4843873977661Q357.08078479766846 202.96354866027832 356.3698444366455 204.09374809265137Q355.88284969329834 204.8125057220459 355.0130453109741 204.8125057220459Q354.380220413208 204.8125057220459 353.97917079925537 204.4270830154419Q353.57812118530273 204.0416603088379 353.57812118530273 203.41925525665283Q353.57812118530273 202.87498474121094 353.87238788604736 202.322904586792Q354.5286340713501 200.92706489562988 356.2408833503723 200.10154151916504Q357.95313262939453 199.2760181427002 360.14326190948486 199.2760181427002Q362.13025093078613 199.2760181427002 363.5951027870178 199.94008255004883Q365.0599546432495 200.60414695739746 365.85813665390015 201.8150873184204Q366.6563186645508 203.02602767944336 366.6563186645508 204.6718635559082V214.6171522140503Q366.6563186645508 215.40102767944336 366.2083911895752 215.85025453567505Q365.7604637145996 216.29948139190674 365.05992603302 216.29948139190674Q364.3672037124634 216.29948139190674 363.9296941757202 215.87239265441895Q363.49218463897705 215.44530391693115 363.466139793396 214.70310020446777Q363.466139793396 214.35154628753662 363.466139793396 213.99348211288452Q363.466139793396 213.63541793823242 363.466139793396 213.28386402130127H363.3932218551636Q362.9140558242798 214.19271659851074 362.1041603088379 214.8671932220459Q361.294264793396 215.54166984558105 360.28515100479126 215.90885543823242Q359.2760372161865 216.2760410308838 358.19791412353516 216.2760410308838ZM359.1042003631592 213.6353759765625Q360.2916889190674 213.6353759765625 361.2539200782776 213.1379861831665Q362.2161512374878 212.6405963897705 362.78255319595337 211.78123092651367Q363.34895515441895 210.92186546325684 363.34895515441895 209.84114742279053V208.5468807220459L359.26305103302 208.79948329925537Q357.744836807251 208.90104484558105 356.91281366348267 209.54166412353516Q356.08079051971436 210.18228340148926 356.08079051971436 211.25258541107178Q356.08079051971436 212.33330535888672 356.9102101325989 212.9843406677246Q357.7396297454834 213.6353759765625 359.1042003631592 213.6353759765625ZM378.24221324920654 222.18490314483643Q376.03385829925537 222.15886211395264 374.34504747390747 221.3580765724182Q372.65623664855957 220.5572910308838 371.8098840713501 219.21875Q371.6458206176758 218.93489360809326 371.56639337539673 218.6692657470703Q371.4869661331177 218.40363788604736 371.4869661331177 218.12238597869873Q371.4869661331177 217.539044380188 371.8854103088379 217.16013193130493Q372.2838544845581 216.78121948242188 372.9192838668823 216.78121948242188Q373.5859613418579 216.78121948242188 374.20576000213623 217.4166374206543Q375.21617221832275 218.47131443023682 376.1627860069275 218.95438623428345Q377.1093997955322 219.43745803833008 378.30991649627686 219.46349906921387Q380.39584159851074 219.48954010009766 381.5729169845581 218.41793298721313Q382.74999237060547 217.3463258743286 382.74999237060547 215.617169380188V213.0182065963745H382.67707443237305Q382.2135372161865 213.89841556549072 381.436194896698 214.56768703460693Q380.6588525772095 215.23695850372314 379.65103912353516 215.60154247283936Q378.64322566986084 215.96612644195557 377.4765558242798 215.96612644195557Q375.4088468551636 215.96612644195557 373.8671808242798 214.94789791107178Q372.325514793396 213.929669380188 371.4817657470703 212.0572738647461Q370.63801670074463 210.1848783493042 370.63801670074463 207.65623092651367Q370.63801670074463 205.08331108093262 371.4791612625122 203.20961332321167Q372.3203058242798 201.33591556549072 373.8762946128845 200.3215937614441Q375.43228340148926 199.30727195739746 377.544264793396 199.30727195739746Q378.71874618530273 199.30727195739746 379.69530963897705 199.679669380188Q380.67187309265137 200.05206680297852 381.436194896698 200.7252459526062Q382.20051670074463 201.3984251022339 382.69790840148926 202.3281135559082H382.7578058242798V200.98959732055664Q382.7578058242798 200.17707633972168 383.2382855415344 199.7304539680481Q383.71876525878906 199.2838315963745 384.42971897125244 199.2838315963745Q385.1562976837158 199.2838315963745 385.62375593185425 199.7304539680481Q386.0912141799927 200.17707633972168 386.0912141799927 200.98959732055664V215.56248664855957Q386.0912141799927 217.58072566986084 385.14459562301636 219.0755214691162Q384.19797706604004 220.57031726837158 382.4414572715759 221.38412046432495Q380.6849374771118 222.19792366027832 378.24221324920654 222.18490314483643ZM378.3594093322754 213.23952293395996Q379.6901273727417 213.23952293395996 380.67709732055664 212.55723762512207Q381.6640672683716 211.87495231628418 382.2135410308838 210.6210560798645Q382.763014793396 209.36715984344482 382.763014793396 207.67706680297852Q382.763014793396 205.9739532470703 382.2135410308838 204.71354579925537Q381.6640672683716 203.45313835144043 380.6757950782776 202.75522708892822Q379.6875228881836 202.05731582641602 378.3594093322754 202.05731582641602Q377.057336807251 202.05731582641602 376.08338737487793 202.74220657348633Q375.1094379425049 203.42709732055664 374.5794949531555 204.68750476837158Q374.04955196380615 205.94791221618652 374.04955196380615 207.6744623184204Q374.04955196380615 209.3905963897705 374.57819271087646 210.64449262619019Q375.1068334579468 211.89838886260986 376.0820851325989 212.5689558982849Q377.057336807251 213.23952293395996 378.3594093322754 213.23952293395996ZM392.52606773376465 216.29948139190674Q391.78646659851074 216.29948139190674 391.3229150772095 215.82160806655884Q390.8593635559082 215.34373474121094 390.8593635559082 214.5364227294922V200.96355628967285Q390.8593635559082 200.19530773162842 391.3020820617676 199.73956966400146Q391.74480056762695 199.2838315963745 392.44794273376465 199.2838315963745Q393.1406669616699 199.2838315963745 393.5807809829712 199.73956966400146Q394.02089500427246 200.19530773162842 394.02089500427246 200.96616077423096V202.37239170074463H394.0938129425049Q394.44537448883057 201.00779628753662 395.4635992050171 200.15753412246704Q396.4818239212036 199.30727195739746 397.71099185943604 199.30727195739746Q398.16932582855225 199.30727195739746 398.4948482513428 199.41143894195557Q398.8203706741333 199.51560592651367 399.03912258148193 199.70831489562988Q399.26308727264404 199.89581871032715 399.3750696182251 200.19530582427979Q399.48705196380615 200.49479293823242 399.48705196380615 200.87761783599854Q399.48705196380615 201.65107345581055 398.987042427063 202.0573329925537Q398.7448501586914 202.2656707763672 398.36593675613403 202.37374639511108Q397.98702335357666 202.48182201385498 397.4635772705078 202.4870309829712Q395.7135887145996 202.4948444366455 394.95318031311035 203.53259229660034Q394.1927719116211 204.57034015655518 394.1927719116211 206.10939979553223V214.5364227294922Q394.1927719116211 215.34373474121094 393.7305226325989 215.82160806655884Q393.26827335357666 216.29948139190674 392.52606773376465 216.29948139190674ZM407.21353912353516 216.2760410308838Q405.6119775772095 216.2760410308838 404.37499618530273 215.65624809265137Q403.138014793396 215.03645515441895 402.4387936592102 213.92056798934937Q401.7395725250244 212.80468082427979 401.7395725250244 211.33592891693115Q401.7395725250244 209.17706680297852 403.3307247161865 207.91013765335083Q404.92187690734863 206.64320850372314 407.84116077423096 206.47914505004883L412.36458015441895 206.21872901916504V204.94530200958252Q412.36458015441895 203.56250190734863 411.4856810569763 202.78386402130127Q410.6067819595337 202.0052261352539 409.04950618743896 202.0052261352539Q407.81774711608887 202.0052261352539 406.95707845687866 202.4843873977661Q406.09640979766846 202.96354866027832 405.3854694366455 204.09374809265137Q404.89847469329834 204.8125057220459 404.0286703109741 204.8125057220459Q403.395845413208 204.8125057220459 402.99479579925537 204.4270830154419Q402.59374618530273 204.0416603088379 402.59374618530273 203.41925525665283Q402.59374618530273 202.87498474121094 402.88801288604736 202.322904586792Q403.5442590713501 200.92706489562988 405.2565083503723 200.10154151916504Q406.96875762939453 199.2760181427002 409.15888690948486 199.2760181427002Q411.14587593078613 199.2760181427002 412.6107277870178 199.94008255004883Q414.0755796432495 200.60414695739746 414.87376165390015 201.8150873184204Q415.6719436645508 203.02602767944336 415.6719436645508 204.6718635559082V214.6171522140503Q415.6719436645508 215.40102767944336 415.2240161895752 215.85025453567505Q414.7760887145996 216.29948139190674 414.07555103302 216.29948139190674Q413.3828287124634 216.29948139190674 412.9453191757202 215.87239265441895Q412.50780963897705 215.44530391693115 412.481764793396 214.70310020446777Q412.481764793396 214.35154628753662 412.481764793396 213.99348211288452Q412.481764793396 213.63541793823242 412.481764793396 213.28386402130127H412.4088468551636Q411.9296808242798 214.19271659851074 411.1197853088379 214.8671932220459Q410.309889793396 215.54166984558105 409.30077600479126 215.90885543823242Q408.2916622161865 216.2760410308838 407.21353912353516 216.2760410308838ZM408.1198253631592 213.6353759765625Q409.3073139190674 213.6353759765625 410.2695450782776 213.1379861831665Q411.2317762374878 212.6405963897705 411.79817819595337 211.78123092651367Q412.36458015441895 210.92186546325684 412.36458015441895 209.84114742279053V208.5468807220459L408.27867603302 208.79948329925537Q406.760461807251 208.90104484558105 405.92843866348267 209.54166412353516Q405.09641551971436 210.18228340148926 405.09641551971436 211.25258541107178Q405.09641551971436 212.33330535888672 405.9258351325989 212.9843406677246Q406.7552547454834 213.6353759765625 408.1198253631592 213.6353759765625ZM422.05471324920654 216.29948139190674Q421.29948902130127 216.29948139190674 420.84505128860474 215.8203067779541Q420.3906135559082 215.34113216400146 420.3906135559082 214.5364227294922V200.97397422790527Q420.3906135559082 200.1874942779541 420.8359365463257 199.7356629371643Q421.28125953674316 199.2838315963745 421.97919273376465 199.2838315963745Q422.67973041534424 199.2838315963745 423.12375116348267 199.73436069488525Q423.5677719116211 200.184889793396 423.5677719116211 200.97397422790527V202.32551860809326H423.6406898498535Q424.2031879425049 200.9531135559082 425.4232430458069 200.12237930297852Q426.6432981491089 199.29164505004883 428.30475902557373 199.29164505004883Q429.4479923248291 199.29164505004883 430.3633589744568 199.67185497283936Q431.2787256240845 200.05206489562988 431.93237113952637 200.76560974121094Q432.58601665496826 201.479154586792 432.9063262939453 202.50259685516357H432.97924423217773Q433.4063243865967 201.5051975250244 434.1628346443176 200.78384017944336Q434.9193449020386 200.0624828338623 435.92846155166626 199.67706394195557Q436.93757820129395 199.29164505004883 438.1068525314331 199.29164505004883Q439.72924995422363 199.29164505004883 440.9310746192932 199.96352195739746Q442.1328992843628 200.6353988647461 442.7995672225952 201.85415172576904Q443.46623516082764 203.072904586792 443.46623516082764 204.70832443237305V214.5364227294922Q443.46623516082764 215.34113216400146 443.009192943573 215.8203067779541Q442.55215072631836 216.29948139190674 441.7969264984131 216.29948139190674Q441.0417022705078 216.29948139190674 440.5872645378113 215.8203067779541Q440.13282680511475 215.34113216400146 440.13282680511475 214.5364227294922V205.505220413208Q440.13282680511475 203.90627098083496 439.3099174499512 203.02997541427612Q438.4870080947876 202.15367984771729 436.9713945388794 202.15367984771729Q435.4688034057617 202.15367984771729 434.518292427063 203.15367126464844Q433.56778144836426 204.1536626815796 433.56778144836426 205.7239646911621V214.5364227294922Q433.56778144836426 215.34113216400146 433.1250638961792 215.8203067779541Q432.68234634399414 216.29948139190674 431.92712211608887 216.29948139190674Q431.1718978881836 216.29948139190674 430.7304825782776 215.8203067779541Q430.2890672683716 215.34113216400146 430.2890672683716 214.5364227294922V205.26043510437012Q430.2890672683716 203.8307523727417 429.44662714004517 202.9922161102295Q428.60418701171875 202.15367984771729 427.16930103302 202.15367984771729Q425.66670989990234 202.15367984771729 424.6953659057617 203.20054531097412Q423.7240219116211 204.24741077423096 423.7240219116211 205.84114933013916V214.5364227294922Q423.7240219116211 215.34113216400146 423.26697969436646 215.8203067779541Q422.8099374771118 216.29948139190674 422.05471324920654 216.29948139190674ZM462.12764072418213 216.30729484558105Q459.71875762939453 216.30729484558105 458.04166316986084 215.39192914962769Q456.36456871032715 214.47656345367432 455.77081871032715 212.97396087646484Q455.6301918029785 212.61978912353516 455.6301918029785 212.2682237625122Q455.6301918029785 211.64060974121094 456.0377507209778 211.28773736953735Q456.44530963897705 210.93486499786377 457.06511211395264 210.93486499786377Q457.9140844345093 210.93486499786377 458.5182695388794 211.82029056549072Q459.14848041534424 212.8176784515381 459.9909281730652 213.28902912139893Q460.83337593078613 213.76037979125977 462.30992794036865 213.76037979125977Q463.2864818572998 213.76037979125977 464.01173543930054 213.49605989456177Q464.73698902130127 213.23173999786377 465.14193296432495 212.73174571990967Q465.54687690734863 212.23175144195557 465.54687690734863 211.5468635559082Q465.54687690734863 210.73958015441895 465.00651502609253 210.26302242279053Q464.4661531448364 209.7864646911621 463.1380338668823 209.46615505218506L460.546875 208.84896850585938Q458.15364170074463 208.27605438232422 456.9752526283264 207.11459159851074Q455.7968635559082 205.95312881469727 455.7968635559082 204.20051860809326Q455.7968635559082 201.97915267944336 457.5742163658142 200.62758541107178Q459.3515691757202 199.2760181427002 462.27086067199707 199.2760181427002Q463.74743938446045 199.2760181427002 464.9818229675293 199.73565435409546Q466.21620655059814 200.19529056549072 467.0469398498535 200.97914505004883Q467.8776731491089 201.76299953460693 468.10163402557373 202.7369565963745Q468.1693449020386 203.0103988647461 468.1693449020386 203.229154586792Q468.1693449020386 203.78385066986084 467.8373074531555 204.12239837646484Q467.50527000427246 204.46094608306885 466.8776502609253 204.46094608306885Q466.47139835357666 204.46094608306885 466.12243366241455 204.29948711395264Q465.77346897125244 204.13802814483643 465.5260696411133 203.73698902130127Q464.97137928009033 202.80731201171875 464.17711067199707 202.32163286209106Q463.3828420639038 201.83595371246338 462.1406555175781 201.83595371246338Q460.77348041534424 201.83595371246338 459.9154152870178 202.4440197944641Q459.0573501586914 203.05208587646484 459.0573501586914 204.02343082427979Q459.0573501586914 204.80206871032715 459.67843866348267 205.34112548828125Q460.2995271682739 205.88018226623535 461.60160732269287 206.1900758743286L464.1406841278076 206.7812213897705Q466.7292308807373 207.38798999786377 467.81907987594604 208.40361785888672Q468.9089288711548 209.41924571990967 468.9089288711548 211.24216556549072Q468.9089288711548 212.76561164855957 468.0573616027832 213.90494012832642Q467.2057943344116 215.04426860809326 465.6823482513428 215.67578172683716Q464.1589021682739 216.30729484558105 462.12764072418213 216.30729484558105ZM478.6328172683716 216.29166793823242Q476.85416984558105 216.29166793823242 475.5572910308838 215.5572919845581Q474.2604122161865 214.8229160308838 473.56770038604736 213.45833015441895Q472.8749885559082 212.0937442779541 472.8749885559082 210.21613597869873V201.04689025878906Q472.8749885559082 200.2291603088379 473.3437490463257 199.7564959526062Q473.81250953674316 199.2838315963745 474.54169273376465 199.2838315963745Q475.27087593078613 199.2838315963745 475.7396364212036 199.7564959526062Q476.2083969116211 200.2291603088379 476.2083969116211 201.04949474334717V209.5728874206543Q476.2083969116211 211.45568752288818 477.0964126586914 212.44005584716797Q477.9844284057617 213.42442417144775 479.74743366241455 213.42442417144775Q480.97398376464844 213.42442417144775 481.85027742385864 212.89187669754028Q482.72657108306885 212.3593292236328 483.1992230415344 211.3944935798645Q483.671875 210.4296579360962 483.671875 209.14581489562988V201.04689025878906Q483.671875 200.2291603088379 484.1406354904175 199.7564959526062Q484.60939598083496 199.2838315963745 485.33857917785645 199.2838315963745Q486.06776237487793 199.2838315963745 486.5365228652954 199.7564959526062Q487.0052833557129 200.2291603088379 487.0052833557129 201.04949474334717V214.60933876037598Q487.0052833557129 215.37238216400146 486.57428312301636 215.8359317779541Q486.1432828903198 216.29948139190674 485.41670417785645 216.29948139190674Q484.70575046539307 216.29948139190674 484.2604274749756 215.8359317779541Q483.8151044845581 215.37238216400146 483.8151044845581 214.61194324493408V213.23435974121094H483.7421865463257Q483.28125190734863 214.21092700958252 482.5664095878601 214.89712858200073Q481.8515672683716 215.58333015441895 480.87109899520874 215.93749904632568Q479.8906307220459 216.29166793823242 478.6328172683716 216.29166793823242ZM493.44794273376465 221.81511402130127Q492.71875953674316 221.81511402130127 492.2499990463257 221.34244966506958Q491.7812385559082 220.8697853088379 491.7812385559082 220.05205535888672V200.9817876815796Q491.7812385559082 200.1900987625122 492.23046827316284 199.73696517944336Q492.6796979904175 199.2838315963745 493.39586067199707 199.2838315963745Q494.09900283813477 199.2838315963745 494.54953479766846 199.73696517944336Q495.00006675720215 200.1900987625122 495.00006675720215 200.9843921661377V202.39321613311768H495.07038021087646Q495.55735778808594 201.44790077209473 496.32949209213257 200.75649309158325Q497.1016263961792 200.06508541107178 498.11074113845825 199.68617868423462Q499.1198558807373 199.30727195739746 500.3021488189697 199.30727195739746Q502.39590072631836 199.30727195739746 503.949285030365 200.3450322151184Q505.5026693344116 201.38279247283936 506.362042427063 203.28774213790894Q507.22141551971436 205.19269180297852 507.22141551971436 207.79165649414062Q507.22141551971436 210.38801670074463 506.369854927063 212.29426860809326Q505.5182943344116 214.2005205154419 503.97402477264404 215.23828077316284Q502.42975521087646 216.2760410308838 500.36725330352783 216.2760410308838Q499.1927719116211 216.2760410308838 498.18626070022583 215.91145706176758Q497.17974948883057 215.54687309265137 496.4193334579468 214.8789029121399Q495.658917427063 214.21093273162842 495.1875648498535 213.30207633972168H495.1146469116211V220.05205535888672Q495.1146469116211 220.8697853088379 494.6458864212036 221.34244966506958Q494.17712593078613 221.81511402130127 493.44794273376465 221.81511402130127ZM499.4349203109741 213.4608850479126Q500.786470413208 213.4608850479126 501.76823234558105 212.76818180084229Q502.7499942779541 212.07547855377197 503.27993726730347 210.80205059051514Q503.80988025665283 209.5286226272583 503.80988025665283 207.79165649414062Q503.80988025665283 206.05469036102295 503.2786350250244 204.78777265548706Q502.747389793396 203.52085494995117 501.766930103302 202.8216414451599Q500.786470413208 202.12242794036865 499.4349203109741 202.12242794036865Q498.1380567550659 202.12242794036865 497.1628050804138 202.82815170288086Q496.1875534057617 203.53387546539307 495.6432876586914 204.80860567092896Q495.0990219116211 206.08333587646484 495.096417427063 207.79426097869873Q495.0990219116211 209.50518608093262 495.64198541641235 210.77861404418945Q496.1849489212036 212.0520420074463 497.1602005958557 212.75646352767944Q498.1354522705078 213.4608850479126 499.4349203109741 213.4608850479126ZM518.3724203109741 216.30729484558105Q514.6718864440918 216.30729484558105 512.6002640724182 214.07421827316284Q510.52864170074463 211.84114170074463 510.52864170074463 207.85936546325684Q510.52864170074463 205.25258922576904 511.46223878860474 203.3228988647461Q512.3958358764648 201.39320850372314 514.113290309906 200.33461332321167Q515.8307447433472 199.2760181427002 518.1432542800903 199.2760181427002Q520.3203496932983 199.2760181427002 521.9779095649719 200.25128030776978Q523.6354694366455 201.22654247283936 524.5716710090637 202.9478988647461Q525.5078725814819 204.66925525665283 525.5078725814819 206.91925716400146Q525.5078725814819 207.7213487625122 525.0703678131104 208.17577981948853Q524.6328630447388 208.63021087646484 523.8463945388794 208.63021087646484H513.8880853652954Q513.8880853652954 208.64844226837158 513.8880853652954 208.66406917572021Q513.8880853652954 208.67969608306885 513.8880853652954 208.6979274749756Q513.8880853652954 210.95311164855957 515.0807847976685 212.28122425079346Q516.2734842300415 213.60933685302734 518.2969036102295 213.60933685302734Q519.6823120117188 213.60933685302734 520.6471524238586 213.07027912139893Q521.6119928359985 212.5312213897705 522.5573043823242 211.2499828338623Q522.8229351043701 210.92706298828125 523.0976786613464 210.79424953460693Q523.3724222183228 210.66143608093262 523.7291984558105 210.66143608093262Q524.3385810852051 210.66143608093262 524.7305159568787 211.0234203338623Q525.1224508285522 211.385404586792 525.1224508285522 212.01301860809326Q525.1224508285522 212.393235206604 524.8828630447388 212.91146850585938Q524.0885906219482 214.5312557220459 522.3815512657166 215.41927528381348Q520.6745119094849 216.30729484558105 518.3724203109741 216.30729484558105ZM513.9167327880859 206.28122520446777H522.1692667007446Q522.1354122161865 204.979154586792 521.6132807731628 204.0117163658142Q521.0911493301392 203.04427814483643 520.1992297172546 202.51042938232422Q519.3073101043701 201.976580619812 518.1276330947876 201.976580619812Q516.9531650543213 201.976580619812 516.035204410553 202.51303386688232Q515.1172437667847 203.04948711395264 514.5612587928772 204.01692533493042Q514.0052738189697 204.9843635559082 513.9167327880859 206.28122520446777ZM531.2135677337646 216.29948139190674Q530.4739665985107 216.29948139190674 530.0104150772095 215.82160806655884Q529.5468635559082 215.34373474121094 529.5468635559082 214.5364227294922V200.96355628967285Q529.5468635559082 200.19530773162842 529.9895820617676 199.73956966400146Q530.432300567627 199.2838315963745 531.1354427337646 199.2838315963745Q531.8281669616699 199.2838315963745 532.2682809829712 199.73956966400146Q532.7083950042725 200.19530773162842 532.7083950042725 200.96616077423096V202.37239170074463H532.7813129425049Q533.1328744888306 201.00779628753662 534.1510992050171 200.15753412246704Q535.1693239212036 199.30727195739746 536.398491859436 199.30727195739746Q536.8568258285522 199.30727195739746 537.1823482513428 199.41143894195557Q537.5078706741333 199.51560592651367 537.7266225814819 199.70831489562988Q537.950587272644 199.89581871032715 538.0625696182251 200.19530582427979Q538.1745519638062 200.49479293823242 538.1745519638062 200.87761783599854Q538.1745519638062 201.65107345581055 537.674542427063 202.0573329925537Q537.4323501586914 202.2656707763672 537.053436756134 202.37374639511108Q536.6745233535767 202.48182201385498 536.1510772705078 202.4870309829712Q534.4010887145996 202.4948444366455 533.6406803131104 203.53259229660034Q532.8802719116211 204.57034015655518 532.8802719116211 206.10939979553223V214.5364227294922Q532.8802719116211 215.34373474121094 532.4180226325989 215.82160806655884Q531.9557733535767 216.29948139190674 531.2135677337646 216.29948139190674ZM543.1041927337646 221.81511402130127Q542.3750095367432 221.81511402130127 541.9062490463257 221.34244966506958Q541.4374885559082 220.8697853088379 541.4374885559082 220.05205535888672V200.9817876815796Q541.4374885559082 200.1900987625122 541.8867182731628 199.73696517944336Q542.3359479904175 199.2838315963745 543.0521106719971 199.2838315963745Q543.7552528381348 199.2838315963745 544.2057847976685 199.73696517944336Q544.6563167572021 200.1900987625122 544.6563167572021 200.9843921661377V202.39321613311768H544.7266302108765Q545.2136077880859 201.44790077209473 545.9857420921326 200.75649309158325Q546.7578763961792 200.06508541107178 547.7669911384583 199.68617868423462Q548.7761058807373 199.30727195739746 549.9583988189697 199.30727195739746Q552.0521507263184 199.30727195739746 553.605535030365 200.3450322151184Q555.1589193344116 201.38279247283936 556.018292427063 203.28774213790894Q556.8776655197144 205.19269180297852 556.8776655197144 207.79165649414062Q556.8776655197144 210.38801670074463 556.026104927063 212.29426860809326Q555.1745443344116 214.2005205154419 553.630274772644 215.23828077316284Q552.0860052108765 216.2760410308838 550.0235033035278 216.2760410308838Q548.8490219116211 216.2760410308838 547.8425107002258 215.91145706176758Q546.8359994888306 215.54687309265137 546.0755834579468 214.8789029121399Q545.315167427063 214.21093273162842 544.8438148498535 213.30207633972168H544.7708969116211V220.05205535888672Q544.7708969116211 220.8697853088379 544.3021364212036 221.34244966506958Q543.8333759307861 221.81511402130127 543.1041927337646 221.81511402130127ZM549.0911703109741 213.4608850479126Q550.442720413208 213.4608850479126 551.424482345581 212.76818180084229Q552.4062442779541 212.07547855377197 552.9361872673035 210.80205059051514Q553.4661302566528 209.5286226272583 553.4661302566528 207.79165649414062Q553.4661302566528 206.05469036102295 552.9348850250244 204.78777265548706Q552.403639793396 203.52085494995117 551.423180103302 202.8216414451599Q550.442720413208 202.12242794036865 549.0911703109741 202.12242794036865Q547.7943067550659 202.12242794036865 546.8190550804138 202.82815170288086Q545.8438034057617 203.53387546539307 545.2995376586914 204.80860567092896Q544.7552719116211 206.08333587646484 544.752667427063 207.79426097869873Q544.7552719116211 209.50518608093262 545.2982354164124 210.77861404418945Q545.8411989212036 212.0520420074463 546.8164505958557 212.75646352767944Q547.7917022705078 213.4608850479126 549.0911703109741 213.4608850479126ZM567.971381187439 216.30729484558105Q565.6276197433472 216.30729484558105 563.8763108253479 215.27864837646484Q562.1250019073486 214.25000190734863 561.1549468040466 212.33593654632568Q560.1848917007446 210.42187118530273 560.1848917007446 207.78905200958252Q560.1848917007446 205.15363025665283 561.1588535308838 203.24737739562988Q562.132815361023 201.34112453460693 563.8841242790222 200.30857133865356Q565.6354331970215 199.2760181427002 567.971381187439 199.2760181427002Q570.3099336624146 199.2760181427002 572.0560345649719 200.3072690963745Q573.8021354675293 201.33852005004883 574.7747950553894 203.24477291107178Q575.7474546432495 205.15102577209473 575.7474546432495 207.78905200958252Q575.7474546432495 210.42447566986084 574.7773995399475 212.33723878860474Q573.8073444366455 214.25000190734863 572.0625457763672 215.27864837646484Q570.3177471160889 216.30729484558105 567.971381187439 216.30729484558105ZM567.971381187439 213.5520420074463Q569.3020973205566 213.5520420074463 570.2903685569763 212.88017082214355Q571.278639793396 212.20829963684082 571.8189988136292 210.91403579711914Q572.3593578338623 209.61977195739746 572.3593578338623 207.79165649414062Q572.3593578338623 205.9557294845581 571.8189988136292 204.66797590255737Q571.278639793396 203.38022232055664 570.2903685569763 202.7057466506958Q569.3020973205566 202.03127098083496 567.971381187439 202.03127098083496Q566.6432695388794 202.03127098083496 565.6549983024597 202.7057466506958Q564.66672706604 203.38022232055664 564.1198577880859 204.66797590255737Q563.5729885101318 205.9557294845581 563.5729885101318 207.79165649414062Q563.5729885101318 209.61977195739746 564.1185555458069 210.91403579711914Q564.6641225814819 212.20829963684082 565.6523938179016 212.88017082214355Q566.6406650543213 213.5520420074463 567.971381187439 213.5520420074463ZM584.6745100021362 216.29948139190674Q583.8567800521851 216.29948139190674 583.3658833503723 215.89322090148926Q582.8749866485596 215.48696041107178 582.6197719573975 214.62756252288818L578.8489627838135 201.65368366241455Q578.7630224227905 201.36981964111328 578.727864742279 201.14845943450928Q578.6927070617676 200.92709922790527 578.6927070617676 200.71615505218506Q578.6927070617676 200.06249618530273 579.1380300521851 199.67316389083862Q579.5833530426025 199.2838315963745 580.3125343322754 199.2838315963745Q580.9297361373901 199.2838315963745 581.3034443855286 199.62238311767578Q581.677152633667 199.96093463897705 581.8490295410156 200.6692819595337L584.8125419616699 212.5390100479126H584.8854598999023L588.0182390213013 200.79428386688232Q588.388035774231 199.2838315963745 589.9401540756226 199.2838315963745Q591.4532108306885 199.2838315963745 591.8230075836182 200.78386783599854L594.984432220459 212.5390100479126H595.0573501586914L598.0234670639038 200.65886402130127Q598.1927394866943 199.95572566986084 598.5638432502747 199.61977863311768Q598.934947013855 199.2838315963745 599.5495443344116 199.2838315963745Q600.2735166549683 199.2838315963745 600.7136306762695 199.67186164855957Q601.1537446975708 200.05989170074463 601.1537446975708 200.70834159851074Q601.1537446975708 200.91928577423096 601.1185870170593 201.13804149627686Q601.0834293365479 201.35679721832275 601.000093460083 201.64066123962402L597.229284286499 214.62235355377197Q596.9870901107788 215.47133541107178 596.4805684089661 215.88540840148926Q595.9740467071533 216.29948139190674 595.1485033035278 216.29948139190674Q594.283896446228 216.29948139190674 593.7799782752991 215.89842891693115Q593.2760601043701 215.49737644195557 593.0390768051147 214.61714458465576L589.9401521682739 203.6666965484619H589.8672342300415L586.7839345932007 214.62756252288818Q586.5625762939453 215.4661283493042 586.0352215766907 215.88280487060547Q585.507866859436 216.29948139190674 584.6745100021362 216.29948139190674ZM611.9036703109741 216.30729484558105Q608.2031364440918 216.30729484558105 606.1315140724182 214.07421827316284Q604.0598917007446 211.84114170074463 604.0598917007446 207.85936546325684Q604.0598917007446 205.25258922576904 604.9934887886047 203.3228988647461Q605.9270858764648 201.39320850372314 607.644540309906 200.33461332321167Q609.3619947433472 199.2760181427002 611.6745042800903 199.2760181427002Q613.8515996932983 199.2760181427002 615.5091595649719 200.25128030776978Q617.1667194366455 201.22654247283936 618.1029210090637 202.9478988647461Q619.0391225814819 204.66925525665283 619.0391225814819 206.91925716400146Q619.0391225814819 207.7213487625122 618.6016178131104 208.17577981948853Q618.1641130447388 208.63021087646484 617.3776445388794 208.63021087646484H607.4193353652954Q607.4193353652954 208.64844226837158 607.4193353652954 208.66406917572021Q607.4193353652954 208.67969608306885 607.4193353652954 208.6979274749756Q607.4193353652954 210.95311164855957 608.6120347976685 212.28122425079346Q609.8047342300415 213.60933685302734 611.8281536102295 213.60933685302734Q613.2135620117188 213.60933685302734 614.1784024238586 213.07027912139893Q615.1432428359985 212.5312213897705 616.0885543823242 211.2499828338623Q616.3541851043701 210.92706298828125 616.6289286613464 210.79424953460693Q616.9036722183228 210.66143608093262 617.2604484558105 210.66143608093262Q617.8698310852051 210.66143608093262 618.2617659568787 211.0234203338623Q618.6537008285522 211.385404586792 618.6537008285522 212.01301860809326Q618.6537008285522 212.393235206604 618.4141130447388 212.91146850585938Q617.6198406219482 214.5312557220459 615.9128012657166 215.41927528381348Q614.2057619094849 216.30729484558105 611.9036703109741 216.30729484558105ZM607.4479827880859 206.28122520446777H615.7005167007446Q615.6666622161865 204.979154586792 615.1445307731628 204.0117163658142Q614.6223993301392 203.04427814483643 613.7304797172546 202.51042938232422Q612.8385601043701 201.976580619812 611.6588830947876 201.976580619812Q610.4844150543213 201.976580619812 609.566454410553 202.51303386688232Q608.6484937667847 203.04948711395264 608.0925087928772 204.01692533493042Q607.5365238189697 204.9843635559082 607.4479827880859 206.28122520446777ZM624.7448177337646 216.29948139190674Q624.0052165985107 216.29948139190674 623.5416650772095 215.82160806655884Q623.0781135559082 215.34373474121094 623.0781135559082 214.5364227294922V200.96355628967285Q623.0781135559082 200.19530773162842 623.5208320617676 199.73956966400146Q623.963550567627 199.2838315963745 624.6666927337646 199.2838315963745Q625.3594169616699 199.2838315963745 625.7995309829712 199.73956966400146Q626.2396450042725 200.19530773162842 626.2396450042725 200.96616077423096V202.37239170074463H626.3125629425049Q626.6641244888306 201.00779628753662 627.6823492050171 200.15753412246704Q628.7005739212036 199.30727195739746 629.929741859436 199.30727195739746Q630.3880758285522 199.30727195739746 630.7135982513428 199.41143894195557Q631.0391206741333 199.51560592651367 631.2578725814819 199.70831489562988Q631.481837272644 199.89581871032715 631.5938196182251 200.19530582427979Q631.7058019638062 200.49479293823242 631.7058019638062 200.87761783599854Q631.7058019638062 201.65107345581055 631.205792427063 202.0573329925537Q630.9636001586914 202.2656707763672 630.584686756134 202.37374639511108Q630.2057733535767 202.48182201385498 629.6823272705078 202.4870309829712Q627.9323387145996 202.4948444366455 627.1719303131104 203.53259229660034Q626.4115219116211 204.57034015655518 626.4115219116211 206.10939979553223V214.5364227294922Q626.4115219116211 215.34373474121094 625.9492726325989 215.82160806655884Q625.4870233535767 216.29948139190674 624.7448177337646 216.29948139190674ZM641.0026407241821 216.30729484558105Q638.5937576293945 216.30729484558105 636.9166631698608 215.39192914962769Q635.2395687103271 214.47656345367432 634.6458187103271 212.97396087646484Q634.5051918029785 212.61978912353516 634.5051918029785 212.2682237625122Q634.5051918029785 211.64060974121094 634.9127507209778 211.28773736953735Q635.320309638977 210.93486499786377 635.9401121139526 210.93486499786377Q636.7890844345093 210.93486499786377 637.3932695388794 211.82029056549072Q638.0234804153442 212.8176784515381 638.8659281730652 213.28902912139893Q639.7083759307861 213.76037979125977 641.1849279403687 213.76037979125977Q642.1614818572998 213.76037979125977 642.8867354393005 213.49605989456177Q643.6119890213013 213.23173999786377 644.016932964325 212.73174571990967Q644.4218769073486 212.23175144195557 644.4218769073486 211.5468635559082Q644.4218769073486 210.73958015441895 643.8815150260925 210.26302242279053Q643.3411531448364 209.7864646911621 642.0130338668823 209.46615505218506L639.421875 208.84896850585938Q637.0286417007446 208.27605438232422 635.8502526283264 207.11459159851074Q634.6718635559082 205.95312881469727 634.6718635559082 204.20051860809326Q634.6718635559082 201.97915267944336 636.4492163658142 200.62758541107178Q638.2265691757202 199.2760181427002 641.1458606719971 199.2760181427002Q642.6224393844604 199.2760181427002 643.8568229675293 199.73565435409546Q645.0912065505981 200.19529056549072 645.9219398498535 200.97914505004883Q646.7526731491089 201.76299953460693 646.9766340255737 202.7369565963745Q647.0443449020386 203.0103988647461 647.0443449020386 203.229154586792Q647.0443449020386 203.78385066986084 646.7123074531555 204.12239837646484Q646.3802700042725 204.46094608306885 645.7526502609253 204.46094608306885Q645.3463983535767 204.46094608306885 644.9974336624146 204.29948711395264Q644.6484689712524 204.13802814483643 644.4010696411133 203.73698902130127Q643.8463792800903 202.80731201171875 643.0521106719971 202.32163286209106Q642.2578420639038 201.83595371246338 641.0156555175781 201.83595371246338Q639.6484804153442 201.83595371246338 638.7904152870178 202.4440197944641Q637.9323501586914 203.05208587646484 637.9323501586914 204.02343082427979Q637.9323501586914 204.80206871032715 638.5534386634827 205.34112548828125Q639.1745271682739 205.88018226623535 640.4766073226929 206.1900758743286L643.0156841278076 206.7812213897705Q645.6042308807373 207.38798999786377 646.694079875946 208.40361785888672Q647.7839288711548 209.41924571990967 647.7839288711548 211.24216556549072Q647.7839288711548 212.76561164855957 646.9323616027832 213.90494012832642Q646.0807943344116 215.04426860809326 644.5573482513428 215.67578172683716Q643.0339021682739 216.30729484558105 641.0026407241821 216.30729484558105Z"/>
</svg>
