<svg viewBox="0 0 1000 280" xmlns="http://www.w3.org/2000/svg" role="img" aria-label="kymostudio — Diagram superpowers">
  <!-- Reusable horizontal brand lockup: tile + two-tone wordmark + tagline.
       Wordmark/tagline are OUTLINED paths (SF Pro Rounded, Black 900 / Medium 500) so
       the lockup renders identically in any browser / on GitHub — no font dependency.
       Regenerate (both light + dark) with tools/outline_wordmark.py. -->
  <g transform="translate(96 50) scale(1.8)">
    <rect width="100" height="100" rx="18" fill="#e0095f"/>
    <g transform="translate(50 50) scale(0.98) translate(-50 -50)">
      <line x1="33" y1="26.5" x2="33" y2="73.5" stroke="#fff" stroke-width="11.5" stroke-linecap="round"/>
      <line x1="65.5" y1="27" x2="34" y2="58.5" stroke="#fff" stroke-width="11.5" stroke-linecap="round"/>
      <line x1="48" y1="49.5" x2="67" y2="73" stroke="#fff" stroke-width="11.5" stroke-linecap="round"/>
      <circle cx="33" cy="26.5" r="5.8" fill="#fff"/><circle cx="33" cy="26.5" r="2.44" fill="#e0095f"/>
      <circle cx="65.5" cy="27" r="5.8" fill="#fff"/><circle cx="65.5" cy="27" r="2.44" fill="#e0095f"/>
      <circle cx="33" cy="73.5" r="5.8" fill="#fff"/><circle cx="33" cy="73.5" r="2.44" fill="#e0095f"/>
      <circle cx="34" cy="58.5" r="5.8" fill="#fff"/><circle cx="34" cy="58.5" r="2.44" fill="#e0095f"/>
      <circle cx="48" cy="49.5" r="5.8" fill="#fff"/><circle cx="48" cy="49.5" r="2.44" fill="#e0095f"/>
      <circle cx="67" cy="73" r="5.8" fill="#fff"/><circle cx="67" cy="73" r="2.44" fill="#e0095f"/>
    </g>
  </g>
  <path fill="#242131" d="M328.892578125 159.123046875C334.283203125 159.123046875 338.1015625 156.11328125 338.1015625 149.599609375V144.34375L342.0546875 140.75L349.2421875 152.384765625C352.431640625 157.505859375 354.767578125 159.123046875 359.125 159.123046875C364.470703125 159.123046875 368.064453125 155.708984375 368.064453125 150.54296875C368.064453125 148.162109375 367.435546875 146.544921875 365.32421875 143.580078125L356.0703125 130.732421875L364.6953125 122.69140625C367.48046875 120.0859375 368.37890625 118.333984375 368.37890625 115.4140625C368.37890625 110.697265625 364.875 107.283203125 360.0234375 107.283203125C357.1484375 107.283203125 354.9921875 108.451171875 352.38671875 111.19140625L338.4609375 125.880859375H338.1015625V101.623046875C338.1015625 95.064453125 334.283203125 92.0546875 328.892578125 92.0546875C323.501953125 92.0546875 319.68359375 95.064453125 319.68359375 101.578125V149.599609375C319.68359375 156.11328125 323.501953125 159.123046875 328.892578125 159.123046875ZM385.494140625 176.193359375C398.880859375 176.193359375 406.203125 170.533203125 411.14453125 156.3828125L423.453125 121.1640625C424.08203125 119.412109375 424.53125 117.076171875 424.53125 115.50390625C424.53125 110.697265625 420.84765625 107.283203125 415.591796875 107.283203125C410.78515625 107.283203125 408.0 109.619140625 406.607421875 114.78515625L398.611328125 144.79296875H398.251953125L390.255859375 114.96484375C388.7734375 109.39453125 386.34765625 107.283203125 381.31640625 107.283203125C375.8359375 107.283203125 371.658203125 110.966796875 371.658203125 115.86328125C371.658203125 117.48046875 372.0625 119.63671875 372.78125 121.5234375L387.380859375 160.650390625L387.15625 160.830078125C385.853515625 161.908203125 383.697265625 162.087890625 382.125 162.087890625C381.49609375 162.087890625 380.822265625 162.04296875 380.193359375 162.04296875C376.1953125 162.04296875 373.6796875 164.19921875 373.6796875 167.79296875C373.6796875 173.228515625 377.8125 176.193359375 385.494140625 176.193359375ZM438.142578125 159.123046875C443.533203125 159.123046875 447.396484375 156.11328125 447.396484375 149.599609375V129.205078125C447.396484375 124.892578125 449.642578125 122.197265625 453.37109375 122.197265625C457.32421875 122.197265625 459.345703125 124.578125 459.345703125 129.294921875V149.599609375C459.345703125 156.11328125 462.669921875 159.123046875 468.060546875 159.123046875C473.451171875 159.123046875 476.8203125 156.11328125 476.8203125 149.599609375V129.205078125C476.8203125 124.84765625 479.021484375 122.197265625 482.75 122.197265625C486.748046875 122.197265625 488.76953125 124.533203125 488.76953125 129.25V149.599609375C488.76953125 156.11328125 492.54296875 159.123046875 497.93359375 159.123046875C503.32421875 159.123046875 507.1875 156.11328125 507.1875 149.599609375V124.48828125C507.1875 114.380859375 500.5390625 107.41796875 490.880859375 107.41796875C483.333984375 107.41796875 477.314453125 111.775390625 475.65234375 118.333984375H475.29296875C474.080078125 111.37109375 469.048828125 107.41796875 461.501953125 107.41796875C454.71875 107.41796875 449.1484375 111.73046875 447.306640625 118.423828125H446.947265625V116.671875C446.947265625 110.203125 443.263671875 107.283203125 437.962890625 107.283203125C432.662109375 107.283203125 428.978515625 110.248046875 428.978515625 116.671875V149.599609375C428.978515625 156.11328125 432.751953125 159.123046875 438.142578125 159.123046875ZM538.72265625 159.2578125C554.939453125 159.2578125 564.822265625 149.958984375 564.822265625 133.158203125C564.822265625 116.76171875 554.71484375 107.1484375 538.72265625 107.1484375C522.8203125 107.1484375 512.66796875 116.8515625 512.66796875 133.158203125C512.66796875 149.9140625 522.55078125 159.2578125 538.72265625 159.2578125ZM538.72265625 146.095703125C534.095703125 146.095703125 531.35546875 141.513671875 531.35546875 133.203125C531.35546875 125.1171875 534.23046875 120.310546875 538.72265625 120.310546875C543.259765625 120.310546875 546.134765625 125.1171875 546.134765625 133.203125C546.134765625 141.513671875 543.3046875 146.095703125 538.72265625 146.095703125Z"/>
  <path fill="#e0095f" d="M593.482421875 159.2578125C607.857421875 159.2578125 617.470703125 152.51953125 617.470703125 141.73828125C617.470703125 134.236328125 612.6640625 130.103515625 601.927734375 128.126953125L592.943359375 126.46484375C588.451171875 125.611328125 587.23828125 124.533203125 587.23828125 122.78125C587.23828125 120.53515625 589.484375 119.1875 592.80859375 119.1875C597.435546875 119.1875 599.681640625 121.97265625 602.2421875 123.904296875C603.724609375 125.072265625 606.375 125.8359375 608.26171875 125.8359375C613.11328125 125.8359375 615.26953125 123.3203125 615.26953125 119.861328125C615.26953125 118.962890625 615.08984375 118.064453125 614.775390625 117.2109375C612.84375 111.91015625 605.072265625 107.1484375 592.80859375 107.1484375C578.388671875 107.1484375 569.62890625 113.482421875 569.62890625 123.814453125C569.62890625 131.49609375 574.794921875 136.841796875 584.6328125 138.638671875L593.6171875 140.30078125C597.794921875 141.064453125 599.232421875 142.052734375 599.232421875 143.849609375C599.232421875 145.916015625 597.03125 147.21875 593.482421875 147.21875C589.484375 147.21875 586.33984375 146.005859375 583.5546875 143.400390625C580.859375 140.9296875 578.388671875 139.806640625 575.55859375 139.806640625C571.470703125 139.806640625 568.55078125 142.681640625 568.55078125 146.634765625C568.55078125 147.48828125 568.775390625 148.56640625 569.1796875 149.599609375C571.470703125 155.125 579.69140625 159.2578125 593.482421875 159.2578125ZM626.859375 144.1640625C626.859375 153.732421875 631.98046875 158.71875 641.953125 158.71875H642.357421875C649.05078125 158.71875 655.25 156.0234375 655.25 150.72265625C655.25 146.455078125 652.9140625 144.748046875 649.05078125 144.25390625L647.97265625 144.119140625C646.220703125 143.89453125 645.27734375 142.90625 645.27734375 140.076171875V121.79296875H648.51171875C652.46484375 121.79296875 655.115234375 119.09765625 655.115234375 115.099609375C655.115234375 111.1015625 652.46484375 108.40625 648.51171875 108.40625H645.27734375V105.755859375C645.27734375 99.736328125 641.953125 96.232421875 636.068359375 96.232421875C630.18359375 96.232421875 626.859375 99.736328125 626.859375 105.755859375V108.40625H625.736328125C621.783203125 108.40625 619.1328125 111.056640625 619.1328125 115.099609375C619.1328125 119.142578125 621.783203125 121.79296875 625.736328125 121.79296875H626.859375ZM678.294921875 158.98828125C685.70703125 158.98828125 690.333984375 154.990234375 692.310546875 148.251953125H692.669921875V149.779296875C692.669921875 156.203125 696.353515625 159.123046875 701.654296875 159.123046875C706.955078125 159.123046875 710.638671875 156.203125 710.638671875 149.734375V116.8515625C710.638671875 110.29296875 706.8203125 107.283203125 701.4296875 107.283203125C696.0390625 107.283203125 692.220703125 110.29296875 692.220703125 116.806640625V136.123046875C692.220703125 140.9296875 689.525390625 144.119140625 685.392578125 144.119140625C681.080078125 144.119140625 678.25 141.333984375 678.25 136.078125V116.8515625C678.25 110.29296875 674.431640625 107.283203125 669.041015625 107.283203125C663.650390625 107.283203125 659.83203125 110.29296875 659.83203125 116.806640625V140.2109375C659.83203125 152.025390625 667.6484375 158.98828125 678.294921875 158.98828125ZM735.615234375 158.71875C743.072265625 158.71875 748.822265625 154.630859375 750.484375 149.419921875H750.84375V149.599609375C750.84375 156.11328125 754.662109375 159.123046875 760.052734375 159.123046875C765.443359375 159.123046875 769.26171875 156.11328125 769.26171875 149.599609375V101.623046875C769.26171875 95.064453125 765.443359375 92.0546875 760.052734375 92.0546875C754.662109375 92.0546875 750.84375 95.064453125 750.84375 101.578125V117.345703125H750.484375C748.552734375 111.775390625 743.162109375 107.6875 735.9296875 107.6875C723.576171875 107.6875 716.298828125 117.12109375 716.298828125 133.068359375C716.298828125 149.240234375 723.396484375 158.71875 735.615234375 158.71875ZM743.02734375 144.5234375C738.041015625 144.5234375 735.166015625 140.30078125 735.166015625 133.203125C735.166015625 126.1953125 738.0859375 121.8828125 743.02734375 121.8828125C747.96875 121.8828125 750.93359375 126.150390625 750.93359375 133.248046875C750.93359375 140.390625 748.013671875 144.5234375 743.02734375 144.5234375ZM785.388671875 104.318359375C790.599609375 104.318359375 794.552734375 100.544921875 794.552734375 95.603515625C794.552734375 90.662109375 790.599609375 86.888671875 785.388671875 86.888671875C780.177734375 86.888671875 776.224609375 90.662109375 776.224609375 95.603515625C776.224609375 100.544921875 780.177734375 104.318359375 785.388671875 104.318359375ZM785.388671875 159.123046875C791.228515625 159.123046875 794.59765625 155.6640625 794.59765625 149.599609375V116.8515625C794.59765625 110.787109375 791.228515625 107.283203125 785.388671875 107.283203125C779.548828125 107.283203125 776.1796875 110.7421875 776.1796875 116.806640625V149.599609375C776.1796875 155.6640625 779.548828125 159.123046875 785.388671875 159.123046875ZM826.3125 159.2578125C842.529296875 159.2578125 852.412109375 149.958984375 852.412109375 133.158203125C852.412109375 116.76171875 842.3046875 107.1484375 826.3125 107.1484375C810.41015625 107.1484375 800.2578125 116.8515625 800.2578125 133.158203125C800.2578125 149.9140625 810.140625 159.2578125 826.3125 159.2578125ZM826.3125 146.095703125C821.685546875 146.095703125 818.9453125 141.513671875 818.9453125 133.203125C818.9453125 125.1171875 821.8203125 120.310546875 826.3125 120.310546875C830.849609375 120.310546875 833.724609375 125.1171875 833.724609375 133.203125C833.724609375 141.513671875 830.89453125 146.095703125 826.3125 146.095703125Z"/>
  <path fill="#6b6878" d="M323.828125 216.0H330.03125C336.75 216.0 340.703125 211.8125 340.703125 204.6875C340.703125 197.578125 336.734375 193.453125 330.03125 193.453125H323.828125C322.734375 193.453125 322.078125 194.140625 322.078125 195.265625V214.1875C322.078125 215.3125 322.734375 216.0 323.828125 216.0ZM325.578125 212.96875V196.46875H329.703125C334.46875 196.46875 337.125 199.40625 337.125 204.71875C337.125 210.046875 334.484375 212.96875 329.703125 212.96875ZM345.421875 197.078125C346.515625 197.078125 347.390625 196.203125 347.390625 195.140625C347.390625 194.0625 346.515625 193.21875 345.421875 193.21875C344.34375 193.21875 343.46875 194.0625 343.46875 195.140625C343.46875 196.203125 344.34375 197.078125 345.421875 197.078125ZM345.421875 216.296875C346.4375 216.296875 347.109375 215.59375 347.109375 214.515625V201.0625C347.109375 199.96875 346.4375 199.265625 345.421875 199.265625C344.40625 199.265625 343.734375 199.96875 343.734375 201.0625V214.515625C343.734375 215.59375 344.40625 216.296875 345.421875 216.296875ZM355.375 216.28125C357.515625 216.28125 359.609375 215.125 360.5625 213.296875H360.640625V214.6875C360.671875 215.6875 361.3125 216.296875 362.25 216.296875C363.203125 216.296875 363.875 215.65625 363.875 214.59375V204.671875C363.875 201.375 361.328125 199.265625 357.34375 199.265625C354.390625 199.265625 351.90625 200.453125 351.046875 202.3125C350.84375 202.6875 350.75 203.0625 350.75 203.40625C350.75 204.25 351.359375 204.8125 352.203125 204.8125C352.796875 204.8125 353.234375 204.59375 353.578125 204.09375C354.515625 202.59375 355.59375 202.015625 357.21875 202.015625C359.28125 202.015625 360.515625 203.109375 360.515625 204.9375V206.203125L356.0 206.46875C352.109375 206.6875 349.890625 208.453125 349.890625 211.328125C349.890625 214.28125 352.15625 216.28125 355.375 216.28125ZM356.296875 213.609375C354.5 213.609375 353.296875 212.671875 353.296875 211.234375C353.296875 209.828125 354.4375 208.9375 356.453125 208.796875L360.515625 208.546875V209.84375C360.515625 211.984375 358.65625 213.609375 356.296875 213.609375ZM374.03125 222.1875C378.921875 222.234375 381.90625 219.609375 381.90625 215.546875V201.0C381.90625 199.90625 381.1875 199.265625 380.21875 199.265625C379.25 199.265625 378.515625 199.90625 378.515625 201.0V202.328125H378.453125C377.453125 200.46875 375.640625 199.296875 373.3125 199.296875C369.0625 199.296875 366.40625 202.5 366.40625 207.640625C366.40625 212.71875 369.09375 215.953125 373.234375 215.953125C375.578125 215.953125 377.515625 214.78125 378.4375 213.0H378.515625V215.609375C378.515625 217.90625 376.84375 219.46875 374.09375 219.4375C372.484375 219.40625 371.328125 218.796875 369.984375 217.390625C369.53125 216.9375 369.203125 216.765625 368.6875 216.765625C367.828125 216.765625 367.25 217.328125 367.25 218.109375C367.25 218.5 367.34375 218.84375 367.5625 219.21875C368.6875 221.0 371.046875 222.15625 374.03125 222.1875ZM374.140625 213.203125C371.546875 213.203125 369.859375 211.09375 369.859375 207.65625C369.859375 204.234375 371.546875 202.078125 374.140625 202.078125C376.78125 202.078125 378.53125 204.296875 378.53125 207.671875C378.53125 211.046875 376.78125 213.203125 374.140625 213.203125ZM386.90625 216.296875C387.90625 216.296875 388.59375 215.609375 388.59375 214.515625V206.125C388.59375 204.078125 389.53125 202.53125 391.84375 202.515625C392.546875 202.515625 393.046875 202.375 393.390625 202.078125C393.71875 201.8125 393.890625 201.421875 393.890625 200.890625C393.890625 200.359375 393.75 199.953125 393.4375 199.703125C393.15625 199.4375 392.703125 199.296875 392.109375 199.296875C390.46875 199.296875 388.953125 200.53125 388.5 202.375H388.421875V200.96875C388.421875 199.9375 387.765625 199.265625 386.828125 199.265625C385.875 199.265625 385.21875 199.9375 385.21875 200.96875V214.515625C385.21875 215.609375 385.890625 216.296875 386.90625 216.296875ZM400.1875 216.28125C402.328125 216.28125 404.421875 215.125 405.375 213.296875H405.453125V214.6875C405.484375 215.6875 406.125 216.296875 407.0625 216.296875C408.015625 216.296875 408.6875 215.65625 408.6875 214.59375V204.671875C408.6875 201.375 406.140625 199.265625 402.15625 199.265625C399.203125 199.265625 396.71875 200.453125 395.859375 202.3125C395.65625 202.6875 395.5625 203.0625 395.5625 203.40625C395.5625 204.25 396.171875 204.8125 397.015625 204.8125C397.609375 204.8125 398.046875 204.59375 398.390625 204.09375C399.328125 202.59375 400.40625 202.015625 402.03125 202.015625C404.09375 202.015625 405.328125 203.109375 405.328125 204.9375V206.203125L400.8125 206.46875C396.921875 206.6875 394.703125 208.453125 394.703125 211.328125C394.703125 214.28125 396.96875 216.28125 400.1875 216.28125ZM401.109375 213.609375C399.3125 213.609375 398.109375 212.671875 398.109375 211.234375C398.109375 209.828125 399.25 208.9375 401.265625 208.796875L405.328125 208.546875V209.84375C405.328125 211.984375 403.46875 213.609375 401.109375 213.609375ZM413.640625 216.296875C414.65625 216.296875 415.328125 215.59375 415.328125 214.515625V205.84375C415.328125 203.734375 416.75 202.171875 418.75 202.171875C420.65625 202.171875 421.859375 203.375 421.859375 205.265625V214.515625C421.859375 215.59375 422.5 216.296875 423.515625 216.296875C424.53125 216.296875 425.171875 215.59375 425.171875 214.515625V205.734375C425.171875 203.65625 426.5625 202.171875 428.5625 202.171875C430.5625 202.171875 431.703125 203.390625 431.703125 205.515625V214.515625C431.703125 215.59375 432.375 216.296875 433.390625 216.296875C434.40625 216.296875 435.09375 215.59375 435.09375 214.515625V204.703125C435.09375 201.4375 432.96875 199.28125 429.71875 199.28125C427.375 199.28125 425.4375 200.5 424.59375 202.5H424.515625C423.859375 200.453125 422.203125 199.28125 419.921875 199.28125C417.703125 199.28125 415.984375 200.5 415.25 202.328125H415.171875V200.984375C415.171875 199.90625 414.5 199.265625 413.5625 199.265625C412.609375 199.265625 411.953125 199.921875 411.953125 200.984375V214.515625C411.953125 215.59375 412.625 216.296875 413.640625 216.296875ZM450.890625 216.3125C454.953125 216.3125 457.6875 214.28125 457.6875 211.234375C457.6875 208.796875 456.359375 207.5625 452.90625 206.765625L450.359375 206.171875C448.625 205.765625 447.828125 205.046875 447.828125 204.015625C447.828125 202.734375 449.078125 201.84375 450.890625 201.84375C452.546875 201.84375 453.546875 202.5 454.28125 203.75C454.609375 204.28125 455.09375 204.46875 455.640625 204.46875C456.484375 204.46875 456.953125 203.96875 456.953125 203.21875C456.953125 203.0625 456.921875 202.90625 456.890625 202.71875C456.421875 200.78125 453.984375 199.265625 451.015625 199.265625C447.109375 199.265625 444.53125 201.234375 444.53125 204.203125C444.53125 206.546875 446.09375 208.109375 449.28125 208.859375L451.875 209.46875C453.640625 209.890625 454.28125 210.46875 454.28125 211.546875C454.28125 212.90625 452.984375 213.734375 451.0625 213.734375C449.109375 213.734375 448.125 213.140625 447.28125 211.8125C446.859375 211.1875 446.375 210.921875 445.8125 210.921875C444.96875 210.921875 444.359375 211.421875 444.359375 212.265625C444.359375 212.484375 444.390625 212.71875 444.5 212.96875C445.28125 214.984375 447.65625 216.3125 450.890625 216.3125ZM465.984375 216.296875C468.5 216.296875 470.171875 215.1875 471.078125 213.21875H471.15625V214.59375C471.15625 215.625 471.8125 216.296875 472.78125 216.296875C473.75 216.296875 474.390625 215.625 474.390625 214.578125V201.0625C474.390625 199.9375 473.703125 199.265625 472.703125 199.265625C471.71875 199.265625 471.015625 199.9375 471.015625 201.0625V209.140625C471.015625 211.703125 469.546875 213.390625 467.109375 213.390625C464.78125 213.390625 463.59375 212.046875 463.59375 209.546875V201.0625C463.59375 199.9375 462.890625 199.265625 461.90625 199.265625C460.90625 199.265625 460.21875 199.9375 460.21875 201.0625V210.203125C460.21875 213.96875 462.40625 216.296875 465.984375 216.296875ZM479.40625 221.828125C480.390625 221.828125 481.09375 221.140625 481.09375 220.03125V213.296875H481.171875C482.109375 215.125 483.984375 216.28125 486.34375 216.28125C490.46875 216.28125 493.203125 212.984375 493.203125 207.78125C493.203125 202.578125 490.453125 199.296875 486.28125 199.296875C483.90625 199.296875 482.015625 200.5 481.046875 202.390625H480.984375V201.0C480.984375 199.921875 480.296875 199.265625 479.34375 199.265625C478.390625 199.265625 477.71875 199.921875 477.71875 201.0V220.03125C477.71875 221.140625 478.40625 221.828125 479.40625 221.828125ZM485.390625 213.421875C482.796875 213.421875 481.078125 211.203125 481.078125 207.78125C481.078125 204.390625 482.8125 202.140625 485.390625 202.140625C488.0625 202.140625 489.734375 204.34375 489.734375 207.78125C489.734375 211.234375 488.0625 213.421875 485.390625 213.421875ZM502.921875 216.3125C505.984375 216.3125 508.375 215.078125 509.453125 212.921875C509.59375 212.59375 509.6875 212.28125 509.6875 212.015625C509.6875 211.171875 509.09375 210.640625 508.28125 210.640625C507.796875 210.640625 507.453125 210.8125 507.09375 211.234375C505.84375 212.9375 504.6875 213.578125 502.84375 213.578125C500.15625 213.578125 498.46875 211.703125 498.46875 208.703125V208.625H508.40625C509.453125 208.625 510.078125 208.0 510.078125 206.90625C510.078125 202.421875 507.0625 199.265625 502.6875 199.265625C498.03125 199.265625 495.0625 202.640625 495.0625 207.859375C495.0625 213.171875 497.96875 216.3125 502.921875 216.3125ZM498.484375 206.265625C498.65625 203.703125 500.34375 201.984375 502.671875 201.984375C505.015625 201.984375 506.625 203.6875 506.703125 206.265625ZM514.375 216.296875C515.375 216.296875 516.0625 215.609375 516.0625 214.515625V206.125C516.0625 204.078125 517.0 202.53125 519.3125 202.515625C520.015625 202.515625 520.515625 202.375 520.859375 202.078125C521.1875 201.8125 521.359375 201.421875 521.359375 200.890625C521.359375 200.359375 521.21875 199.953125 520.90625 199.703125C520.625 199.4375 520.171875 199.296875 519.578125 199.296875C517.9375 199.296875 516.421875 200.53125 515.96875 202.375H515.890625V200.96875C515.890625 199.9375 515.234375 199.265625 514.296875 199.265625C513.34375 199.265625 512.6875 199.9375 512.6875 200.96875V214.515625C512.6875 215.609375 513.359375 216.296875 514.375 216.296875ZM524.875 221.828125C525.859375 221.828125 526.5625 221.140625 526.5625 220.03125V213.296875H526.640625C527.578125 215.125 529.453125 216.28125 531.8125 216.28125C535.9375 216.28125 538.671875 212.984375 538.671875 207.78125C538.671875 202.578125 535.921875 199.296875 531.75 199.296875C529.375 199.296875 527.484375 200.5 526.515625 202.390625H526.453125V201.0C526.453125 199.921875 525.765625 199.265625 524.8125 199.265625C523.859375 199.265625 523.1875 199.921875 523.1875 201.0V220.03125C523.1875 221.140625 523.875 221.828125 524.875 221.828125ZM530.859375 213.421875C528.265625 213.421875 526.546875 211.203125 526.546875 207.78125C526.546875 204.390625 528.28125 202.140625 530.859375 202.140625C533.53125 202.140625 535.203125 204.34375 535.203125 207.78125C535.203125 211.234375 533.53125 213.421875 530.859375 213.421875ZM548.328125 216.3125C553.03125 216.3125 556.125 213.078125 556.125 207.78125C556.125 202.5 553.015625 199.265625 548.328125 199.265625C543.640625 199.265625 540.53125 202.5 540.53125 207.78125C540.53125 213.078125 543.625 216.3125 548.328125 216.3125ZM548.328125 213.53125C545.6875 213.53125 543.96875 211.4375 543.96875 207.78125C543.96875 204.140625 545.6875 202.046875 548.328125 202.046875C550.96875 202.046875 552.6875 204.140625 552.6875 207.78125C552.6875 211.4375 550.984375 213.53125 548.328125 213.53125ZM563.609375 216.296875C564.75 216.296875 565.453125 215.75 565.765625 214.59375L568.8125 203.6875H568.890625L571.96875 214.59375C572.28125 215.796875 572.9375 216.296875 574.109375 216.296875C575.21875 216.296875 575.90625 215.75 576.234375 214.59375L579.984375 201.671875C580.09375 201.28125 580.140625 201.0 580.140625 200.71875C580.140625 199.84375 579.5 199.265625 578.515625 199.265625C577.671875 199.265625 577.1875 199.71875 576.96875 200.671875L574.015625 212.5H573.9375L570.796875 200.796875C570.5625 199.796875 569.90625 199.265625 568.890625 199.265625C567.859375 199.265625 567.1875 199.796875 566.953125 200.796875L563.828125 212.5H563.765625L560.8125 200.671875C560.59375 199.71875 560.09375 199.265625 559.25 199.265625C558.265625 199.265625 557.609375 199.84375 557.609375 200.71875C557.609375 201.0 557.65625 201.296875 557.78125 201.671875L561.53125 214.59375C561.875 215.78125 562.5 216.296875 563.609375 216.296875ZM589.46875 216.3125C592.53125 216.3125 594.921875 215.078125 596.0 212.921875C596.140625 212.59375 596.234375 212.28125 596.234375 212.015625C596.234375 211.171875 595.640625 210.640625 594.828125 210.640625C594.34375 210.640625 594.0 210.8125 593.640625 211.234375C592.390625 212.9375 591.234375 213.578125 589.390625 213.578125C586.703125 213.578125 585.015625 211.703125 585.015625 208.703125V208.625H594.953125C596.0 208.625 596.625 208.0 596.625 206.90625C596.625 202.421875 593.609375 199.265625 589.234375 199.265625C584.578125 199.265625 581.609375 202.640625 581.609375 207.859375C581.609375 213.171875 584.515625 216.3125 589.46875 216.3125ZM585.03125 206.265625C585.203125 203.703125 586.890625 201.984375 589.21875 201.984375C591.5625 201.984375 593.171875 203.6875 593.25 206.265625ZM600.921875 216.296875C601.921875 216.296875 602.609375 215.609375 602.609375 214.515625V206.125C602.609375 204.078125 603.546875 202.53125 605.859375 202.515625C606.5625 202.515625 607.0625 202.375 607.40625 202.078125C607.734375 201.8125 607.90625 201.421875 607.90625 200.890625C607.90625 200.359375 607.765625 199.953125 607.453125 199.703125C607.171875 199.4375 606.71875 199.296875 606.125 199.296875C604.484375 199.296875 602.96875 200.53125 602.515625 202.375H602.4375V200.96875C602.4375 199.9375 601.78125 199.265625 600.84375 199.265625C599.890625 199.265625 599.234375 199.9375 599.234375 200.96875V214.515625C599.234375 215.609375 599.90625 216.296875 600.921875 216.296875ZM615.796875 216.3125C619.859375 216.3125 622.59375 214.28125 622.59375 211.234375C622.59375 208.796875 621.265625 207.5625 617.8125 206.765625L615.265625 206.171875C613.53125 205.765625 612.734375 205.046875 612.734375 204.015625C612.734375 202.734375 613.984375 201.84375 615.796875 201.84375C617.453125 201.84375 618.453125 202.5 619.1875 203.75C619.515625 204.28125 620.0 204.46875 620.546875 204.46875C621.390625 204.46875 621.859375 203.96875 621.859375 203.21875C621.859375 203.0625 621.828125 202.90625 621.796875 202.71875C621.328125 200.78125 618.890625 199.265625 615.921875 199.265625C612.015625 199.265625 609.4375 201.234375 609.4375 204.203125C609.4375 206.546875 611.0 208.109375 614.1875 208.859375L616.78125 209.46875C618.546875 209.890625 619.1875 210.46875 619.1875 211.546875C619.1875 212.90625 617.890625 213.734375 615.96875 213.734375C614.015625 213.734375 613.03125 213.140625 612.1875 211.8125C611.765625 211.1875 611.28125 210.921875 610.71875 210.921875C609.875 210.921875 609.265625 211.421875 609.265625 212.265625C609.265625 212.484375 609.296875 212.71875 609.40625 212.96875C610.1875 214.984375 612.5625 216.3125 615.796875 216.3125Z"/>
</svg>
