<?xml version="1.0" encoding="UTF-8"?><svg xmlns="http://www.w3.org/2000/svg" viewBox="0 0 1368 849"
width="1368" height="849"
style="max-width: 100%; height: auto"
font-family="-apple-system, BlinkMacSystemFont, 'Segoe UI', Roboto, 'Helvetica Neue', Arial, sans-serif"><style> text { fill: #1f2937; }
.bg-grid { fill: url(#dot-grid); }
.region-rect {
fill: rgba(15, 23, 42, 0.02);
stroke: #232f3e; /* AWS navy — admin boundary */
stroke-width: 1.5;
stroke-dasharray: 6 5;
}
.region-rect--inner {
fill: rgba(124, 58, 237, 0.03);
stroke: #7c3aed; /* purple — logical subgroup */
stroke-width: 1.4;
stroke-dasharray: 4 4;
}
.region-rect--cluster {
fill: #eaf3ff; /* light-blue solid (mingrammer cluster look) */
stroke: #b8d0ee;
stroke-width: 1.2;
stroke-dasharray: none;
}
.region-label {
font-size: 13px; font-weight: 700; fill: #232f3e; letter-spacing: 0.06em;
text-transform: uppercase;
paint-order: stroke; stroke: #fafafa; stroke-width: 4; stroke-linejoin: round;
}
.region-label--inner { fill: #6d28d9; }
.region-label--cluster {
fill: #475569; font-size: 11px; letter-spacing: 0.02em;
text-transform: none; font-weight: 500;
paint-order: stroke; stroke: #eaf3ff; stroke-width: 3;
}
.component-name { font-size: 14px; font-weight: 700; text-anchor: middle; fill: #0f172a; }
.component-sub { font-size: 11.5px; font-weight: 400; text-anchor: middle; fill: #64748b; }
.diagram-title { font-size: 20px; font-weight: 800; text-anchor: middle; fill: #0f172a; letter-spacing: 0.01em; }
.diagram-subtitle { font-size: 13px; font-weight: 400; text-anchor: middle; fill: #64748b; }
.icon-shadow { filter: url(#shadow); }
.edge-path {
fill: none;
stroke: #64748b;
stroke-width: 1.8;
stroke-linejoin: round;
stroke-linecap: round;
/* `filter: drop-shadow(...)` removed — rsvg-convert mis-renders the
first path under a drop-shadow filter (drops it entirely). The
shadow was barely visible anyway. */
}
.edge-path--orange { stroke: #ea580c; }
.edge-shadow {
fill: none;
stroke: rgba(15, 23, 42, 0.06);
stroke-width: 4.5;
stroke-linejoin: round;
stroke-linecap: round;
}
.edge-label {
font-size: 11.5px; font-weight: 500; fill: #334155; text-anchor: middle;
paint-order: stroke; stroke: #fafafa; stroke-width: 4; stroke-linejoin: round;
}
.edge-label--ext { fill: #c2410c; font-weight: 600; }
.edge-label--small { font-size: 10.5px; } </style><defs><!-- Open-V arrowheads: stroke-only, thinner, more elegant than filled triangles.
markerUnits=userSpaceOnUse keeps the stroke at the declared width
regardless of the path's own stroke-width. --><marker id="arrow-gray" viewBox="0 0 12 10" refX="11" refY="5"
markerWidth="11" markerHeight="11" orient="auto" markerUnits="userSpaceOnUse"><path d="M2,1 L11,5 L2,9" fill="none"
stroke="#64748b" stroke-width="1.6"
stroke-linecap="round" stroke-linejoin="round"/></marker><marker id="arrow-orange" viewBox="0 0 12 10" refX="11" refY="5"
markerWidth="11" markerHeight="11" orient="auto" markerUnits="userSpaceOnUse"><path d="M2,1 L11,5 L2,9" fill="none"
stroke="#ea580c" stroke-width="1.6"
stroke-linecap="round" stroke-linejoin="round"/></marker><!-- Soft drop shadow for icons --><filter id="shadow" x="-20%" y="-20%" width="140%" height="140%"><feDropShadow dx="0" dy="1.5" stdDeviation="2" flood-color="#0f172a" flood-opacity="0.18"/></filter><!-- Engineering-paper dot grid (very subtle) --><pattern id="dot-grid" width="24" height="24" patternUnits="userSpaceOnUse"><circle cx="1" cy="1" r="0.8" fill="#0f172a" fill-opacity="0.045"/></pattern><!-- Gradient highlight for cube faces (subtle, top→bottom darken) --><linearGradient id="g-face-front" x1="0" y1="0" x2="0" y2="1"><stop offset="0%" stop-color="#82c70a"/><stop offset="100%" stop-color="#6ba600"/></linearGradient><linearGradient id="g-face-top" x1="0" y1="0" x2="0" y2="1"><stop offset="0%" stop-color="#b7e756"/><stop offset="100%" stop-color="#a0d440"/></linearGradient><linearGradient id="g-face-side" x1="0" y1="0" x2="0" y2="1"><stop offset="0%" stop-color="#588a00"/><stop offset="100%" stop-color="#446a00"/></linearGradient><linearGradient id="g-box-orange" x1="0" y1="0" x2="0" y2="1"><stop offset="0%" stop-color="#fbbf24"/><stop offset="100%" stop-color="#f59e0b"/></linearGradient><linearGradient id="g-cyl-orange" x1="0" y1="0" x2="0" y2="1"><stop offset="0%" stop-color="#fb923c"/><stop offset="100%" stop-color="#ea7c1e"/></linearGradient><linearGradient id="g-user-blue" x1="0" y1="0" x2="0" y2="1"><stop offset="0%" stop-color="#3b82f6"/><stop offset="100%" stop-color="#1d4ed8"/></linearGradient></defs><rect width="1368" height="849" fill="#fafafa"/><rect width="1368" height="849" class="bg-grid"/><!-- title block (top, fixed) --><text class="diagram-title" x="684" y="42"> Autonomous Deep Researcher — Reference Architecture </text><text class="diagram-subtitle" x="684" y="61"> NVIDIA AIQ • Vietnam Agentic AI Bootcamp 2026 </text><!-- content (auto-translated down by title_block_h) --><g transform="translate(0, 89)"><!-- region rects --><rect class="region-rect" x="760" y="136" width="584" height="360" rx="14"/><rect class="region-rect region-rect--inner" x="1080" y="144" width="248" height="160" rx="14"/><rect class="region-rect" x="224" y="320" width="416" height="168" rx="14"/><rect class="region-rect" x="224" y="552" width="696" height="184" rx="14"/><!-- edges --><path class="edge-path" d="M 134,190 L 213,190" marker-end="url(#arrow-gray)"/><text class="edge-label edge-label--small" x="173" y="182"> Query </text><path class="edge-path" d="M 213,210 L 134,210" marker-end="url(#arrow-gray)"/><text class="edge-label edge-label--small" x="173" y="224"> Chat Response </text><path class="edge-path" d="M 283,200 L 365,200" marker-end="url(#arrow-gray)"/><text class="edge-label edge-label--small" x="324" y="192"> No </text><path class="edge-path" d="M 435,200 L 501,200" marker-end="url(#arrow-gray)"/><path class="edge-path" d="M 571,200 L 653,200" marker-end="url(#arrow-gray)"/><text class="edge-label edge-label--small" x="612" y="192"> Yes </text><path class="edge-path" d="M 723,200 L 805,200" marker-end="url(#arrow-gray)"/><path class="edge-path" d="M 875,200 L 941,200" marker-end="url(#arrow-gray)"/><path class="edge-path" d="M 840,272 L 840,352" marker-end="url(#arrow-gray)"/><path class="edge-path" d="M 875,384 L 992,384 L 992,200 L 1109,200" marker-end="url(#arrow-gray)"/><path class="edge-path" d="M 760,407 L 700,407 L 700,404 L 640,404" marker-end="url(#arrow-gray)"/><path class="edge-path" d="M 568,468 L 568,495 L 565,495 L 565,522" marker-end="url(#arrow-gray)"/><path class="edge-path" d="M 328,616 L 384,616" marker-end="url(#arrow-gray)"/><path class="edge-path" d="M 464,616 L 533,616" marker-end="url(#arrow-gray)"/><path class="edge-path" d="M 603,616 L 672,616" marker-end="url(#arrow-gray)"/><path class="edge-path" d="M 752,616 L 808,616" marker-end="url(#arrow-gray)"/><path class="edge-path" d="M 96,276 L 96,581" marker-end="url(#arrow-gray)"/><path class="edge-path" d="M 131,616 L 129,639 Q 128,640 129,641 L 224,644" marker-end="url(#arrow-gray)"/><text class="edge-label edge-label--small" x="176" y="632"> File Upload </text><path class="edge-path" d="M 840,168 L 840,48 L 104,48 L 127,162" marker-end="url(#arrow-gray)"/><text class="edge-label edge-label--small" x="472" y="48"> Deep Research Report </text><path class="edge-path" d="M 688,168 L 688,88 L 96,88 L 96,162" marker-end="url(#arrow-gray)"/><text class="edge-label edge-label--small" x="392" y="88"> Clarifying Questions and Responses </text><path class="edge-path" d="M 400,168 L 400,128 L 80,128 L 65,162" marker-end="url(#arrow-gray)"/><text class="edge-label edge-label--small" x="240" y="128"> Short Answer </text><!-- components --><g transform="translate(840, 200)"><g class="icon-shadow"><polygon points="-30,-17 0,-32 30,-17 30,17 0,32 -30,17"
fill="#e9f5d0" stroke="#3d5d00" stroke-width="1.6"/><!-- head --><circle cx="0" cy="-7" r="6.5" fill="#76b900"/><!-- glasses: two dots + bridge --><circle cx="-2.5" cy="-7" r="1" fill="#e9f5d0"/><circle cx="2.5" cy="-7" r="1" fill="#e9f5d0"/><!-- body / shoulders --><path d="M -14,18 Q -14,4 0,4 Q 14,4 14,18 Z" fill="#76b900"/><!-- collar V --><path d="M -4,6 L 0,12 L 4,6" fill="#e9f5d0" stroke="none"/></g><text class="component-name" y="55" style="font-size:14px"> Orchestrator </text><text class="component-sub" y="72"></text></g><g transform="translate(976, 200)"><g class="icon-shadow"><polygon points="-30,-17 0,-32 30,-17 30,17 0,32 -30,17"
fill="#e9f5d0" stroke="#3d5d00" stroke-width="1.6"/><!-- head --><circle cx="0" cy="-7" r="6.5" fill="#76b900"/><!-- glasses: two dots + bridge --><circle cx="-2.5" cy="-7" r="1" fill="#e9f5d0"/><circle cx="2.5" cy="-7" r="1" fill="#e9f5d0"/><!-- body / shoulders --><path d="M -14,18 Q -14,4 0,4 Q 14,4 14,18 Z" fill="#76b900"/><!-- collar V --><path d="M -4,6 L 0,12 L 4,6" fill="#e9f5d0" stroke="none"/></g><text class="component-name" y="55" style="font-size:14px"> Researcher </text><text class="component-sub" y="72"> Sub-Agents </text></g><g transform="translate(840, 384)"><g class="icon-shadow"><polygon points="-30,-17 0,-32 30,-17 30,17 0,32 -30,17"
fill="#e9f5d0" stroke="#3d5d00" stroke-width="1.6"/><!-- head --><circle cx="0" cy="-7" r="6.5" fill="#76b900"/><!-- glasses: two dots + bridge --><circle cx="-2.5" cy="-7" r="1" fill="#e9f5d0"/><circle cx="2.5" cy="-7" r="1" fill="#e9f5d0"/><!-- body / shoulders --><path d="M -14,18 Q -14,4 0,4 Q 14,4 14,18 Z" fill="#76b900"/><!-- collar V --><path d="M -4,6 L 0,12 L 4,6" fill="#e9f5d0" stroke="none"/></g><text class="component-name" y="55" style="font-size:14px"> Planning </text><text class="component-sub" y="72"> Sub-Agents </text></g><g transform="translate(1144, 200)"><g class="icon-shadow"><rect x="-35" y="-35" width="70" height="70" rx="8" fill="url(#g-box-orange)" stroke="#c2410c" stroke-width="1.5"/><g fill="white" stroke="white" stroke-width="1.2" stroke-linejoin="round"><path d="M -22,-12 L -8,-12 L -4,-7 L 22,-7 L 22,16 L -22,16 Z"/></g></g><text class="component-name" y="55" style="font-size:14px"> File System </text><text class="component-sub" y="72"> Workspace </text></g><g transform="translate(1264, 200)"><g class="icon-shadow"><rect x="-35" y="-35" width="70" height="70" rx="8" fill="url(#g-box-orange)" stroke="#c2410c" stroke-width="1.5"/><g stroke="#94a3b8" fill="white" stroke-width="1.5" stroke-linecap="round" stroke-linejoin="round"><rect x="-22" y="-22" width="44" height="44" rx="2" fill="white"/><!-- 3 rows of checkbox + line --><polyline points="-15,-14 -12,-11 -8,-16" fill="none" stroke="#475569" stroke-width="2"/><line x1="-4" y1="-13" x2="14" y2="-13" stroke="#94a3b8"/><polyline points="-15,-2 -12,1 -8,-4" fill="none" stroke="#475569" stroke-width="2"/><line x1="-4" y1="-1" x2="14" y2="-1" stroke="#94a3b8"/><polyline points="-15,10 -12,13 -8,8" fill="none" stroke="#475569" stroke-width="2"/><line x1="-4" y1="11" x2="14" y2="11" stroke="#94a3b8"/></g></g><text class="component-name" y="55" style="font-size:14px"> ToDo List </text><text class="component-sub" y="72"></text></g><g transform="translate(288, 384)"><g class="icon-shadow"><rect x="-35" y="-35" width="70" height="70" rx="8" fill="url(#g-box-orange)" stroke="#c2410c" stroke-width="1.5"/><g fill="none" stroke="white" stroke-width="3" stroke-linecap="round" stroke-linejoin="round"><circle cx="-3" cy="-3" r="11" fill="white" stroke="white" stroke-width="0"/><circle cx="-3" cy="-3" r="9" fill="none" stroke="#f59e0b" stroke-width="3"/><line x1="5" y1="5" x2="14" y2="14" stroke="white" stroke-width="4"/></g></g><text class="component-name" y="55" style="font-size:14px"> Web Search </text><text class="component-sub" y="72"> Tavily API </text></g><g transform="translate(416, 384)"><g class="icon-shadow"><polygon points="-30,-17 0,-32 30,-17 30,17 0,32 -30,17"
fill="#e9f5d0" stroke="#3d5d00" stroke-width="1.6"/><!-- head --><circle cx="0" cy="-7" r="6.5" fill="#76b900"/><!-- glasses: two dots + bridge --><circle cx="-2.5" cy="-7" r="1" fill="#e9f5d0"/><circle cx="2.5" cy="-7" r="1" fill="#e9f5d0"/><!-- body / shoulders --><path d="M -14,18 Q -14,4 0,4 Q 14,4 14,18 Z" fill="#76b900"/><!-- collar V --><path d="M -4,6 L 0,12 L 4,6" fill="#e9f5d0" stroke="none"/></g><text class="component-name" y="55" style="font-size:14px"> Academic Papers </text><text class="component-sub" y="72"> Serper API </text></g><g transform="translate(568, 384)"><g class="icon-shadow"><polygon points="-30,-17 0,-32 30,-17 30,17 0,32 -30,17"
fill="#e9f5d0" stroke="#3d5d00" stroke-width="1.6"/><!-- head --><circle cx="0" cy="-7" r="6.5" fill="#76b900"/><!-- glasses: two dots + bridge --><circle cx="-2.5" cy="-7" r="1" fill="#e9f5d0"/><circle cx="2.5" cy="-7" r="1" fill="#e9f5d0"/><!-- body / shoulders --><path d="M -14,18 Q -14,4 0,4 Q 14,4 14,18 Z" fill="#76b900"/><!-- collar V --><path d="M -4,6 L 0,12 L 4,6" fill="#e9f5d0" stroke="none"/></g><text class="component-name" y="55" style="font-size:14px"> Knowledge Layer </text><text class="component-sub" y="72"> API </text></g><g transform="translate(288, 616)"><g class="icon-shadow" transform="translate(-40,-40)"><polygon points="40,4.8 75.2,22.4 40,39.2 4.8,22.4" fill="url(#g-face-top)" stroke="#3d5d00" stroke-width="1"/><polygon points="40,39.2 75.2,22.4 75.2,57.6 40,75.2" fill="url(#g-face-side)" stroke="#3d5d00" stroke-width="1"/><polygon points="4.8,22.4 40,39.2 40,75.2 4.8,57.6" fill="url(#g-face-front)" stroke="#3d5d00" stroke-width="1"/><g transform="matrix(35.2,16.8,0,35.2,4.8,22.4)" stroke-linejoin="round"><g stroke="white" stroke-width="0.04" fill="white"><!-- 6 connection lines + 6 nodes for a network pattern --><line x1="0.50" y1="0.20" x2="0.20" y2="0.50"/><line x1="0.50" y1="0.20" x2="0.80" y2="0.50"/><line x1="0.20" y1="0.50" x2="0.50" y2="0.80"/><line x1="0.80" y1="0.50" x2="0.50" y2="0.80"/><line x1="0.20" y1="0.50" x2="0.80" y2="0.50"/><line x1="0.50" y1="0.20" x2="0.50" y2="0.80"/><circle cx="0.50" cy="0.20" r="0.055"/><circle cx="0.20" cy="0.50" r="0.055"/><circle cx="0.80" cy="0.50" r="0.055"/><circle cx="0.50" cy="0.80" r="0.055"/></g></g></g><text class="component-name" y="60" style="font-size:14px"> Extraction </text><text class="component-sub" y="77"> NeMo Retriever </text></g><g transform="translate(424, 616)"><g class="icon-shadow" transform="translate(-40,-40)"><polygon points="40,4.8 75.2,22.4 40,39.2 4.8,22.4" fill="url(#g-face-top)" stroke="#3d5d00" stroke-width="1"/><polygon points="40,39.2 75.2,22.4 75.2,57.6 40,75.2" fill="url(#g-face-side)" stroke="#3d5d00" stroke-width="1"/><polygon points="4.8,22.4 40,39.2 40,75.2 4.8,57.6" fill="url(#g-face-front)" stroke="#3d5d00" stroke-width="1"/><g transform="matrix(35.2,16.8,0,35.2,4.8,22.4)" stroke-linejoin="round"><g stroke="white" stroke-width="0.04" fill="white"><!-- 6 connection lines + 6 nodes for a network pattern --><line x1="0.50" y1="0.20" x2="0.20" y2="0.50"/><line x1="0.50" y1="0.20" x2="0.80" y2="0.50"/><line x1="0.20" y1="0.50" x2="0.50" y2="0.80"/><line x1="0.80" y1="0.50" x2="0.50" y2="0.80"/><line x1="0.20" y1="0.50" x2="0.80" y2="0.50"/><line x1="0.50" y1="0.20" x2="0.50" y2="0.80"/><circle cx="0.50" cy="0.20" r="0.055"/><circle cx="0.20" cy="0.50" r="0.055"/><circle cx="0.80" cy="0.50" r="0.055"/><circle cx="0.50" cy="0.80" r="0.055"/></g></g></g><text class="component-name" y="60" style="font-size:14px"> Embedding </text><text class="component-sub" y="77"> NeMo Retriever </text></g><g transform="translate(568, 616)"><g class="icon-shadow" transform="translate(-35, -35)"><ellipse cx="35" cy="12" rx="28" ry="8" fill="#fdba74" stroke="#c2410c" stroke-width="1.4"/><path d="M 7,12 V 58 a 28,8 0 0 0 56,0 V 12" fill="url(#g-cyl-orange)" stroke="#c2410c" stroke-width="1.4"/><ellipse cx="35" cy="12" rx="28" ry="8" fill="none" stroke="#c2410c" stroke-width="1.2"/><path d="M 7,28 a 28,8 0 0 0 56,0" fill="none" stroke="#c2410c" stroke-width="0.8" opacity="0.55"/><path d="M 7,42 a 28,8 0 0 0 56,0" fill="none" stroke="#c2410c" stroke-width="0.8" opacity="0.55"/></g><text class="component-name" y="55" style="font-size:14px"> Vector Database </text><text class="component-sub" y="72"> NVIDIA cuVS </text></g><g transform="translate(712, 616)"><g class="icon-shadow" transform="translate(-40,-40)"><polygon points="40,4.8 75.2,22.4 40,39.2 4.8,22.4" fill="url(#g-face-top)" stroke="#3d5d00" stroke-width="1"/><polygon points="40,39.2 75.2,22.4 75.2,57.6 40,75.2" fill="url(#g-face-side)" stroke="#3d5d00" stroke-width="1"/><polygon points="4.8,22.4 40,39.2 40,75.2 4.8,57.6" fill="url(#g-face-front)" stroke="#3d5d00" stroke-width="1"/><g transform="matrix(35.2,16.8,0,35.2,4.8,22.4)" stroke-linejoin="round"><g stroke="white" stroke-width="0.04" fill="white"><!-- 6 connection lines + 6 nodes for a network pattern --><line x1="0.50" y1="0.20" x2="0.20" y2="0.50"/><line x1="0.50" y1="0.20" x2="0.80" y2="0.50"/><line x1="0.20" y1="0.50" x2="0.50" y2="0.80"/><line x1="0.80" y1="0.50" x2="0.50" y2="0.80"/><line x1="0.20" y1="0.50" x2="0.80" y2="0.50"/><line x1="0.50" y1="0.20" x2="0.50" y2="0.80"/><circle cx="0.50" cy="0.20" r="0.055"/><circle cx="0.20" cy="0.50" r="0.055"/><circle cx="0.80" cy="0.50" r="0.055"/><circle cx="0.50" cy="0.80" r="0.055"/></g></g></g><text class="component-name" y="60" style="font-size:14px"> Reranking </text><text class="component-sub" y="77"> NeMo Retriever </text></g><g transform="translate(848, 616)"><g class="icon-shadow" transform="translate(-40,-40)"><polygon points="40,4.8 75.2,22.4 40,39.2 4.8,22.4" fill="url(#g-face-top)" stroke="#3d5d00" stroke-width="1"/><polygon points="40,39.2 75.2,22.4 75.2,57.6 40,75.2" fill="url(#g-face-side)" stroke="#3d5d00" stroke-width="1"/><polygon points="4.8,22.4 40,39.2 40,75.2 4.8,57.6" fill="url(#g-face-front)" stroke="#3d5d00" stroke-width="1"/><g transform="matrix(35.2,16.8,0,35.2,4.8,22.4)" stroke-linejoin="round"><g stroke="white" stroke-width="0.04" fill="white"><!-- 6 connection lines + 6 nodes for a network pattern --><line x1="0.50" y1="0.20" x2="0.20" y2="0.50"/><line x1="0.50" y1="0.20" x2="0.80" y2="0.50"/><line x1="0.20" y1="0.50" x2="0.50" y2="0.80"/><line x1="0.80" y1="0.50" x2="0.50" y2="0.80"/><line x1="0.20" y1="0.50" x2="0.80" y2="0.50"/><line x1="0.50" y1="0.20" x2="0.50" y2="0.80"/><circle cx="0.50" cy="0.20" r="0.055"/><circle cx="0.20" cy="0.50" r="0.055"/><circle cx="0.80" cy="0.50" r="0.055"/><circle cx="0.50" cy="0.80" r="0.055"/></g></g></g><text class="component-name" y="60" style="font-size:14px"> Generate </text><text class="component-sub" y="77"> Nemotron 3 Nano </text></g><g transform="translate(96, 200)"><g class="icon-shadow"><circle r="38" fill="url(#g-user-blue)"/><circle cy="-9" r="10" fill="white"/><path d="M -18,20 a 18,14 0 0 1 36,0 z" fill="white"/></g><text class="component-name" y="55" style="font-size:14px"> Agent/User </text><text class="component-sub" y="72"> Bootcamp participant </text></g><g transform="translate(248, 200)"><g class="icon-shadow"><polygon points="-30,-17 0,-32 30,-17 30,17 0,32 -30,17"
fill="#e9f5d0" stroke="#3d5d00" stroke-width="1.6"/><!-- head --><circle cx="0" cy="-7" r="6.5" fill="#76b900"/><!-- glasses: two dots + bridge --><circle cx="-2.5" cy="-7" r="1" fill="#e9f5d0"/><circle cx="2.5" cy="-7" r="1" fill="#e9f5d0"/><!-- body / shoulders --><path d="M -14,18 Q -14,4 0,4 Q 14,4 14,18 Z" fill="#76b900"/><!-- collar V --><path d="M -4,6 L 0,12 L 4,6" fill="#e9f5d0" stroke="none"/></g><text class="component-name" y="55" style="font-size:14px"> Intent Router </text><text class="component-sub" y="72"> Shallow / Deep </text></g><g transform="translate(400, 200)"><g class="icon-shadow"><polygon points="-30,-17 0,-32 30,-17 30,17 0,32 -30,17"
fill="#e9f5d0" stroke="#3d5d00" stroke-width="1.6"/><!-- head --><circle cx="0" cy="-7" r="6.5" fill="#76b900"/><!-- glasses: two dots + bridge --><circle cx="-2.5" cy="-7" r="1" fill="#e9f5d0"/><circle cx="2.5" cy="-7" r="1" fill="#e9f5d0"/><!-- body / shoulders --><path d="M -14,18 Q -14,4 0,4 Q 14,4 14,18 Z" fill="#76b900"/><!-- collar V --><path d="M -4,6 L 0,12 L 4,6" fill="#e9f5d0" stroke="none"/></g><text class="component-name" y="55" style="font-size:14px"> Shallow Research </text><text class="component-sub" y="72"> Single-tool answer </text></g><g transform="translate(536, 200)"><g class="icon-shadow"><rect x="-35" y="-35" width="70" height="70" rx="8" fill="url(#g-box-orange)" stroke="#c2410c" stroke-width="1.5"/><g fill="white" stroke="white" stroke-width="1.4" stroke-linejoin="round"><path d="M 0,-15 L 4,-15 L 5,-11 L 9,-9 L 12,-12 L 15,-9 L 12,-6 L 14,-2 L 18,-1 L 18,3
L 14,4 L 12,8 L 15,11 L 12,14 L 9,11 L 5,13 L 4,17 L 0,17 L -1,13 L -5,11
L -8,14 L -11,11 L -8,8 L -10,4 L -14,3 L -14,-1 L -10,-2 L -8,-6 L -11,-9
L -8,-12 L -5,-9 L -1,-11 L 0,-15 Z"
transform="translate(2, -2) scale(0.85)"/><circle cx="2" cy="-2" r="4" fill="#f59e0b" stroke="#f59e0b"/></g></g><text class="component-name" y="55" style="font-size:14px"> Escalation </text><text class="component-sub" y="72"> needs HITL? </text></g><g class="alert-pulse" transform="translate(688, 200)"><g class="icon-shadow"><polygon points="-30,-17 0,-32 30,-17 30,17 0,32 -30,17"
fill="#e9f5d0" stroke="#3d5d00" stroke-width="1.6"/><!-- head --><circle cx="0" cy="-7" r="6.5" fill="#76b900"/><!-- glasses: two dots + bridge --><circle cx="-2.5" cy="-7" r="1" fill="#e9f5d0"/><circle cx="2.5" cy="-7" r="1" fill="#e9f5d0"/><!-- body / shoulders --><path d="M -14,18 Q -14,4 0,4 Q 14,4 14,18 Z" fill="#76b900"/><!-- collar V --><path d="M -4,6 L 0,12 L 4,6" fill="#e9f5d0" stroke="none"/></g><text class="component-name" y="55" style="font-size:14px"> HITL Clarification </text><text class="component-sub" y="72"> and Planning </text></g><g transform="translate(96, 616)"><g class="icon-shadow"><rect x="-35" y="-35" width="70" height="70" rx="8" fill="url(#g-box-orange)" stroke="#c2410c" stroke-width="1.5"/><g fill="white" stroke="white" stroke-width="1.2" stroke-linejoin="round"><!-- back document --><rect x="-18" y="-18" width="20" height="26" rx="2" fill="white" opacity="0.6"/><!-- front document --><rect x="-8" y="-8" width="22" height="28" rx="2" fill="white"/><line x1="-3" y1="-1" x2="10" y2="-1" stroke="#d97706" stroke-width="1.2"/><line x1="-3" y1="4" x2="10" y2="4" stroke="#d97706" stroke-width="1.2"/><line x1="-3" y1="9" x2="6" y2="9" stroke="#d97706" stroke-width="1.2"/></g></g><text class="component-name" y="55" style="font-size:14px"> Enterprise Data </text><text class="component-sub" y="72"></text></g><!-- region labels (drawn last so they sit on top of crossing arrows) --><text class="region-label" text-anchor="start" x="778" y="126"> Autonomous Deep Researcher </text><text class="region-label region-label--inner" text-anchor="middle" x="1204" y="162"> Shared Virtual File System </text><text class="region-label" text-anchor="middle" x="432" y="310"> Data Source Tools </text><text class="region-label" text-anchor="middle" x="572" y="542"> RAG Knowledge Layer </text></g></svg>
