<?xml version="1.0" encoding="UTF-8"?>
<svg xmlns="http://www.w3.org/2000/svg" viewBox="0 0 292 524" width="292" height="524" style="max-width:100%;height:auto" font-family="-apple-system, BlinkMacSystemFont, 'Segoe UI', Roboto, 'Helvetica Neue', Arial, sans-serif">
<style>text{fill:#1f2937}.bg-grid{fill:url(#dot-grid)}.fc-shape{fill:#eff6ff;stroke:#3b82f6;stroke-width:1.6}.fc-shape-line{fill:none;stroke:#3b82f6;stroke-width:1.6;stroke-linecap:round}.fc-label{font-size:13px;font-weight:600;fill:#1e3a8a;text-anchor:middle;dominant-baseline:central}.edge-path{fill:none;stroke:#64748b;stroke-width:1.8;stroke-linejoin:round;stroke-linecap:round}.edge-label{font-size:11.5px;font-weight:500;fill:#334155;text-anchor:middle;paint-order:stroke;stroke:#fafafa;stroke-width:4;stroke-linejoin:round}.region-rect{fill:#eaf3ff;stroke:#b8d0ee;stroke-width:1.2}.region-label{font-size:11px;font-weight:500;fill:#475569;paint-order:stroke;stroke:#eaf3ff;stroke-width:3}</style>
<defs><marker id="arrow" viewBox="0 0 12 10" refX="11" refY="5" markerWidth="11" markerHeight="11" orient="auto" markerUnits="userSpaceOnUse"><path d="M2,1 L11,5 L2,9" fill="none" stroke="#64748b" stroke-width="1.6" stroke-linecap="round" stroke-linejoin="round"/></marker><pattern id="dot-grid" width="24" height="24" patternUnits="userSpaceOnUse"><circle cx="1.5" cy="1.5" r="1.2" fill="#0f172a" fill-opacity="0.05"/></pattern></defs>
<rect width="292" height="524" fill="#fafafa"/>
<rect width="292" height="524" class="bg-grid"/>
<path class="edge-path" d="M196,92 L196,116 L196,116 L196,140" marker-end="url(#arrow)"/>
<path class="edge-path" d="M196,186 L196,210 L196,210 L196,234" marker-end="url(#arrow)"/>
<path class="edge-path" d="M196,298 L196,322 L196,322 L196,346" marker-end="url(#arrow)"/>
<text class="edge-label" x="196" y="322">yes</text>
<path class="edge-path" d="M134,266 L119,266 L119,369 L104,369" marker-end="url(#arrow)"/>
<text class="edge-label" x="119" y="317">no</text>
<path class="edge-path" d="M196,392 L196,416 L196,416 L196,440" marker-end="url(#arrow)"/>
<path class="edge-path" d="M104,369 L135,369 L135,470 L166,470" marker-end="url(#arrow)"/>
<ellipse class="fc-shape" cx="196" cy="58" rx="34" ry="34"/><text class="fc-label" x="196" y="58">Start</text>
<rect class="fc-shape" x="124" y="140" width="144" height="46" rx="6"/><text class="fc-label" x="196" y="163">Submit request</text>
<polygon class="fc-shape" points="196,234 258,266 196,298 134,266"/><text class="fc-label" x="196" y="266">Approved?</text>
<rect class="fc-shape" x="144" y="346" width="104" height="46" rx="6"/><text class="fc-label" x="196" y="369">Provision</text>
<rect class="fc-shape" x="24" y="346" width="80" height="46" rx="6"/><text class="fc-label" x="64" y="369">Reject</text>
<ellipse class="fc-shape" cx="196" cy="470" rx="30" ry="30"/><text class="fc-label" x="196" y="470">Done</text>
</svg>
