<?xml version="1.0" encoding="UTF-8"?><svg xmlns="http://www.w3.org/2000/svg" viewBox="0 0 1216 1001"
width="1216" height="1001"
style="max-width: 100%; height: auto"
font-family="-apple-system, BlinkMacSystemFont, 'Segoe UI', Roboto, 'Helvetica Neue', Arial, sans-serif"><style> text { fill: #1f2937; }
.bg-grid { fill: url(#dot-grid); }
.region-rect {
fill: rgba(15, 23, 42, 0.02);
stroke: #232f3e; /* AWS navy — admin boundary */
stroke-width: 1.5;
stroke-dasharray: 6 5;
}
.region-rect--inner {
fill: rgba(124, 58, 237, 0.03);
stroke: #7c3aed; /* purple — logical subgroup */
stroke-width: 1.4;
stroke-dasharray: 4 4;
}
.region-rect--cluster {
fill: #eaf3ff; /* light-blue solid (mingrammer cluster look) */
stroke: #b8d0ee;
stroke-width: 1.2;
stroke-dasharray: none;
}
.region-label {
font-size: 13px; font-weight: 700; fill: #232f3e; letter-spacing: 0.06em;
text-transform: uppercase;
paint-order: stroke; stroke: #fafafa; stroke-width: 4; stroke-linejoin: round;
}
.region-label--inner { fill: #6d28d9; }
.region-label--cluster {
fill: #475569; font-size: 11px; letter-spacing: 0.02em;
text-transform: none; font-weight: 500;
paint-order: stroke; stroke: #eaf3ff; stroke-width: 3;
}
.component-name { font-size: 14px; font-weight: 700; text-anchor: middle; fill: #0f172a; }
.component-sub { font-size: 11.5px; font-weight: 400; text-anchor: middle; fill: #64748b; }
.diagram-title { font-size: 20px; font-weight: 800; text-anchor: middle; fill: #0f172a; letter-spacing: 0.01em; }
.diagram-subtitle { font-size: 13px; font-weight: 400; text-anchor: middle; fill: #64748b; }
.icon-shadow { filter: url(#shadow); }
.edge-path {
fill: none;
stroke: #64748b;
stroke-width: 1.8;
stroke-linejoin: round;
stroke-linecap: round;
/* `filter: drop-shadow(...)` removed — rsvg-convert mis-renders the
first path under a drop-shadow filter (drops it entirely). The
shadow was barely visible anyway. */
}
.edge-path--orange { stroke: #ea580c; }
.edge-shadow {
fill: none;
stroke: rgba(15, 23, 42, 0.06);
stroke-width: 4.5;
stroke-linejoin: round;
stroke-linecap: round;
}
.edge-label {
font-size: 11.5px; font-weight: 500; fill: #334155; text-anchor: middle;
paint-order: stroke; stroke: #fafafa; stroke-width: 4; stroke-linejoin: round;
}
.edge-label--ext { fill: #c2410c; font-weight: 600; }
.edge-label--small { font-size: 10.5px; } </style><defs><!-- Open-V arrowheads: stroke-only, thinner, more elegant than filled triangles.
markerUnits=userSpaceOnUse keeps the stroke at the declared width
regardless of the path's own stroke-width. --><marker id="arrow-gray" viewBox="0 0 12 10" refX="11" refY="5"
markerWidth="11" markerHeight="11" orient="auto" markerUnits="userSpaceOnUse"><path d="M2,1 L11,5 L2,9" fill="none"
stroke="#64748b" stroke-width="1.6"
stroke-linecap="round" stroke-linejoin="round"/></marker><marker id="arrow-orange" viewBox="0 0 12 10" refX="11" refY="5"
markerWidth="11" markerHeight="11" orient="auto" markerUnits="userSpaceOnUse"><path d="M2,1 L11,5 L2,9" fill="none"
stroke="#ea580c" stroke-width="1.6"
stroke-linecap="round" stroke-linejoin="round"/></marker><!-- Soft drop shadow for icons --><filter id="shadow" x="-20%" y="-20%" width="140%" height="140%"><feDropShadow dx="0" dy="1.5" stdDeviation="2" flood-color="#0f172a" flood-opacity="0.18"/></filter><!-- Engineering-paper dot grid (very subtle) --><pattern id="dot-grid" width="24" height="24" patternUnits="userSpaceOnUse"><circle cx="1" cy="1" r="0.8" fill="#0f172a" fill-opacity="0.045"/></pattern><!-- Gradient highlight for cube faces (subtle, top→bottom darken) --><linearGradient id="g-face-front" x1="0" y1="0" x2="0" y2="1"><stop offset="0%" stop-color="#82c70a"/><stop offset="100%" stop-color="#6ba600"/></linearGradient><linearGradient id="g-face-top" x1="0" y1="0" x2="0" y2="1"><stop offset="0%" stop-color="#b7e756"/><stop offset="100%" stop-color="#a0d440"/></linearGradient><linearGradient id="g-face-side" x1="0" y1="0" x2="0" y2="1"><stop offset="0%" stop-color="#588a00"/><stop offset="100%" stop-color="#446a00"/></linearGradient><linearGradient id="g-box-orange" x1="0" y1="0" x2="0" y2="1"><stop offset="0%" stop-color="#fbbf24"/><stop offset="100%" stop-color="#f59e0b"/></linearGradient><linearGradient id="g-cyl-orange" x1="0" y1="0" x2="0" y2="1"><stop offset="0%" stop-color="#fb923c"/><stop offset="100%" stop-color="#ea7c1e"/></linearGradient><linearGradient id="g-user-blue" x1="0" y1="0" x2="0" y2="1"><stop offset="0%" stop-color="#3b82f6"/><stop offset="100%" stop-color="#1d4ed8"/></linearGradient></defs><rect width="1216" height="1001" fill="#fafafa"/><rect width="1216" height="1001" class="bg-grid"/><!-- title block (top, fixed) --><text class="diagram-title" x="608" y="42"> Các tiêu chuẩn trong ngành sản xuất ô tô </text><text class="diagram-subtitle" x="608" y="61"> Chất lượng · Công cụ cốt lõi · An toàn &amp; Phần mềm · Môi trường </text><!-- content (auto-translated down by title_block_h) --><g transform="translate(0, 89)"><!-- region rects --><rect class="region-rect" style="stroke:#2563eb" x="220" y="93" width="342" height="156" rx="14"/><rect class="region-rect" style="stroke:#d97706" x="190" y="301" width="888" height="156" rx="14"/><rect class="region-rect" style="stroke:#dc2626" x="184" y="509" width="840" height="156" rx="14"/><rect class="region-rect" style="stroke:#16a34a" x="202" y="725" width="382" height="156" rx="14"/><!-- edges --><path class="edge-path" d="M 315,152 L 461,152" marker-end="url(#arrow-gray)"/><text class="edge-label" x="388" y="152"> mở rộng </text><path class="edge-path" d="M 496,225 L 496,268 L 634,268 L 634,311" marker-end="url(#arrow-gray)"/><text class="edge-label" x="565" y="268"> yêu cầu áp dụng </text><!-- components --><g transform="translate(280, 152)"><g class="icon-shadow"><rect x="-35" y="-35" width="70" height="70" rx="8" fill="url(#g-box-orange)" stroke="#c2410c" stroke-width="1.5"/><g stroke="#94a3b8" fill="white" stroke-width="1.5" stroke-linecap="round" stroke-linejoin="round"><rect x="-22" y="-22" width="44" height="44" rx="2" fill="white"/><!-- 3 rows of checkbox + line --><polyline points="-15,-14 -12,-11 -8,-16" fill="none" stroke="#475569" stroke-width="2"/><line x1="-4" y1="-13" x2="14" y2="-13" stroke="#94a3b8"/><polyline points="-15,-2 -12,1 -8,-4" fill="none" stroke="#475569" stroke-width="2"/><line x1="-4" y1="-1" x2="14" y2="-1" stroke="#94a3b8"/><polyline points="-15,10 -12,13 -8,8" fill="none" stroke="#475569" stroke-width="2"/><line x1="-4" y1="11" x2="14" y2="11" stroke="#94a3b8"/></g></g><text class="component-name" y="55" style="font-size:14px"> ISO 9001 </text><text class="component-sub" y="72"> Nền tảng QMS </text></g><g transform="translate(496, 152)"><g class="icon-shadow"><rect x="-35" y="-35" width="70" height="70" rx="8" fill="url(#g-box-orange)" stroke="#c2410c" stroke-width="1.5"/><g fill="white" stroke="white" stroke-width="1.4" stroke-linejoin="round"><path d="M 0,-15 L 4,-15 L 5,-11 L 9,-9 L 12,-12 L 15,-9 L 12,-6 L 14,-2 L 18,-1 L 18,3
L 14,4 L 12,8 L 15,11 L 12,14 L 9,11 L 5,13 L 4,17 L 0,17 L -1,13 L -5,11
L -8,14 L -11,11 L -8,8 L -10,4 L -14,3 L -14,-1 L -10,-2 L -8,-6 L -11,-9
L -8,-12 L -5,-9 L -1,-11 L 0,-15 Z"
transform="translate(2, -2) scale(0.85)"/><circle cx="2" cy="-2" r="4" fill="#f59e0b" stroke="#f59e0b"/></g></g><text class="component-name" y="55" style="font-size:14px"> IATF 16949 </text><text class="component-sub" y="72"> QMS ngành ô tô </text></g><g transform="translate(280, 360)"><g class="icon-shadow"><rect x="-35" y="-35" width="70" height="70" rx="8" fill="url(#g-box-orange)" stroke="#c2410c" stroke-width="1.5"/><g stroke="#94a3b8" fill="white" stroke-width="1.5" stroke-linecap="round" stroke-linejoin="round"><rect x="-22" y="-22" width="44" height="44" rx="2" fill="white"/><!-- 3 rows of checkbox + line --><polyline points="-15,-14 -12,-11 -8,-16" fill="none" stroke="#475569" stroke-width="2"/><line x1="-4" y1="-13" x2="14" y2="-13" stroke="#94a3b8"/><polyline points="-15,-2 -12,1 -8,-4" fill="none" stroke="#475569" stroke-width="2"/><line x1="-4" y1="-1" x2="14" y2="-1" stroke="#94a3b8"/><polyline points="-15,10 -12,13 -8,8" fill="none" stroke="#475569" stroke-width="2"/><line x1="-4" y1="11" x2="14" y2="11" stroke="#94a3b8"/></g></g><text class="component-name" y="55" style="font-size:14px"> APQP </text><text class="component-sub" y="72"> Hoạch định CL sản phẩm </text></g><g transform="translate(464, 360)"><g class="icon-shadow"><rect x="-35" y="-35" width="70" height="70" rx="8" fill="url(#g-box-orange)" stroke="#c2410c" stroke-width="1.5"/><g fill="white" stroke="white" stroke-width="1.2" stroke-linejoin="round"><!-- back document --><rect x="-18" y="-18" width="20" height="26" rx="2" fill="white" opacity="0.6"/><!-- front document --><rect x="-8" y="-8" width="22" height="28" rx="2" fill="white"/><line x1="-3" y1="-1" x2="10" y2="-1" stroke="#d97706" stroke-width="1.2"/><line x1="-3" y1="4" x2="10" y2="4" stroke="#d97706" stroke-width="1.2"/><line x1="-3" y1="9" x2="6" y2="9" stroke="#d97706" stroke-width="1.2"/></g></g><text class="component-name" y="55" style="font-size:14px"> PPAP </text><text class="component-sub" y="72"> Phê duyệt sản xuất </text></g><g transform="translate(640, 360)"><g class="icon-shadow"><rect x="-35" y="-35" width="70" height="70" rx="8" fill="url(#g-box-orange)" stroke="#c2410c" stroke-width="1.5"/><g fill="none" stroke="white" stroke-width="3" stroke-linecap="round" stroke-linejoin="round"><circle cx="-3" cy="-3" r="11" fill="white" stroke="white" stroke-width="0"/><circle cx="-3" cy="-3" r="9" fill="none" stroke="#f59e0b" stroke-width="3"/><line x1="5" y1="5" x2="14" y2="14" stroke="white" stroke-width="4"/></g></g><text class="component-name" y="55" style="font-size:14px"> FMEA </text><text class="component-sub" y="72"> Phân tích lỗi &amp; tác động </text></g><g transform="translate(816, 360)"><g class="icon-shadow"><rect x="-35" y="-35" width="70" height="70" rx="8" fill="url(#g-box-orange)" stroke="#c2410c" stroke-width="1.5"/><g fill="white" stroke="white" stroke-width="1.4" stroke-linejoin="round"><path d="M 0,-15 L 4,-15 L 5,-11 L 9,-9 L 12,-12 L 15,-9 L 12,-6 L 14,-2 L 18,-1 L 18,3
L 14,4 L 12,8 L 15,11 L 12,14 L 9,11 L 5,13 L 4,17 L 0,17 L -1,13 L -5,11
L -8,14 L -11,11 L -8,8 L -10,4 L -14,3 L -14,-1 L -10,-2 L -8,-6 L -11,-9
L -8,-12 L -5,-9 L -1,-11 L 0,-15 Z"
transform="translate(2, -2) scale(0.85)"/><circle cx="2" cy="-2" r="4" fill="#f59e0b" stroke="#f59e0b"/></g></g><text class="component-name" y="55" style="font-size:14px"> MSA </text><text class="component-sub" y="72"> Phân tích hệ đo </text></g><g transform="translate(1000, 360)"><g class="icon-shadow"><rect x="-35" y="-35" width="70" height="70" rx="8" fill="url(#g-box-orange)" stroke="#c2410c" stroke-width="1.5"/><polygon points="2,-18 -12,4 -1,4 -3,18 11,-4 0,-4 2,-18" fill="white" stroke="white" stroke-width="1.2" stroke-linejoin="round"/></g><text class="component-name" y="55" style="font-size:14px"> SPC </text><text class="component-sub" y="72"> Kiểm soát thống kê </text></g><g transform="translate(280, 568)"><g class="icon-shadow"><rect x="-35" y="-35" width="70" height="70" rx="8" fill="url(#g-box-orange)" stroke="#c2410c" stroke-width="1.5"/><g fill="white" stroke="white" stroke-width="1.4" stroke-linejoin="round"><path d="M 0,-15 L 4,-15 L 5,-11 L 9,-9 L 12,-12 L 15,-9 L 12,-6 L 14,-2 L 18,-1 L 18,3
L 14,4 L 12,8 L 15,11 L 12,14 L 9,11 L 5,13 L 4,17 L 0,17 L -1,13 L -5,11
L -8,14 L -11,11 L -8,8 L -10,4 L -14,3 L -14,-1 L -10,-2 L -8,-6 L -11,-9
L -8,-12 L -5,-9 L -1,-11 L 0,-15 Z"
transform="translate(2, -2) scale(0.85)"/><circle cx="2" cy="-2" r="4" fill="#f59e0b" stroke="#f59e0b"/></g></g><text class="component-name" y="55" style="font-size:14px"> ISO 26262 </text><text class="component-sub" y="72"> An toàn chức năng · ASIL </text></g><g transform="translate(496, 568)"><g class="icon-shadow"><rect x="-35" y="-35" width="70" height="70" rx="8" fill="url(#g-box-orange)" stroke="#c2410c" stroke-width="1.5"/><g fill="none" stroke="white" stroke-width="3" stroke-linecap="round" stroke-linejoin="round"><circle cx="-3" cy="-3" r="11" fill="white" stroke="white" stroke-width="0"/><circle cx="-3" cy="-3" r="9" fill="none" stroke="#f59e0b" stroke-width="3"/><line x1="5" y1="5" x2="14" y2="14" stroke="white" stroke-width="4"/></g></g><text class="component-name" y="55" style="font-size:14px"> ISO 21448 </text><text class="component-sub" y="72"> SOTIF </text></g><g transform="translate(720, 568)"><g stroke="#d97706" stroke-width="2" fill="none" stroke-linecap="round" stroke-linejoin="round"><circle cx="-10" cy="0" r="6" fill="#fff4e0"/><line x1="-4" y1="-2" x2="16" y2="-2"/><line x1="10" y1="-2" x2="10" y2="3"/><line x1="16" y1="-2" x2="16" y2="5"/></g><text class="component-name" y="55" style="font-size:14px"> ISO/SAE 21434 </text><text class="component-sub" y="72"> An ninh mạng </text></g><g transform="translate(944, 568)"><g class="icon-shadow"><rect x="-35" y="-35" width="70" height="70" rx="8" fill="url(#g-box-orange)" stroke="#c2410c" stroke-width="1.5"/><g fill="white" stroke="white" stroke-width="1.2" stroke-linejoin="round"><path d="M -22,-12 L -8,-12 L -4,-7 L 22,-7 L 22,16 L -22,16 Z"/></g></g><text class="component-name" y="55" style="font-size:14px"> Automotive SPICE </text><text class="component-sub" y="72"> Quy trình phần mềm </text></g><g transform="translate(280, 784)"><g class="icon-shadow"><rect x="-35" y="-35" width="70" height="70" rx="8" fill="url(#g-box-orange)" stroke="#c2410c" stroke-width="1.5"/><path d="M -10,12 a 12,12 0 1 1 5,-23 a 16,16 0 0 1 22,15 a 9,9 0 0 1 -2,17 H -10 a 9,9 0 0 1 0,-9 z"
fill="white" stroke="white" stroke-width="1" stroke-linejoin="round"/></g><text class="component-name" y="55" style="font-size:14px"> ISO 14001 </text><text class="component-sub" y="72"> Quản lý môi trường </text></g><g transform="translate(512, 784)"><g class="icon-shadow"><rect x="-35" y="-35" width="70" height="70" rx="8" fill="url(#g-box-orange)" stroke="#c2410c" stroke-width="1.5"/><g stroke="#94a3b8" fill="white" stroke-width="1.5" stroke-linecap="round" stroke-linejoin="round"><rect x="-22" y="-22" width="44" height="44" rx="2" fill="white"/><!-- 3 rows of checkbox + line --><polyline points="-15,-14 -12,-11 -8,-16" fill="none" stroke="#475569" stroke-width="2"/><line x1="-4" y1="-13" x2="14" y2="-13" stroke="#94a3b8"/><polyline points="-15,-2 -12,1 -8,-4" fill="none" stroke="#475569" stroke-width="2"/><line x1="-4" y1="-1" x2="14" y2="-1" stroke="#94a3b8"/><polyline points="-15,10 -12,13 -8,8" fill="none" stroke="#475569" stroke-width="2"/><line x1="-4" y1="11" x2="14" y2="11" stroke="#94a3b8"/></g></g><text class="component-name" y="55" style="font-size:14px"> ISO 45001 </text><text class="component-sub" y="72"> ATSK nghề nghiệp </text></g><!-- region labels (drawn last so they sit on top of crossing arrows) --><text class="region-label" text-anchor="middle" x="391" y="83"> Hệ thống quản lý chất lượng (QMS) </text><text class="region-label" text-anchor="middle" x="634" y="291"> Bộ công cụ cốt lõi — AIAG &amp; VDA </text><text class="region-label" text-anchor="middle" x="604" y="499"> An toàn chức năng &amp; Phần mềm </text><text class="region-label" text-anchor="middle" x="393" y="715"> Môi trường &amp; An toàn – Sức khỏe </text></g></svg>
