<?xml version="1.0" encoding="UTF-8"?><svg xmlns="http://www.w3.org/2000/svg" viewBox="0 0 1280 680"
width="100%" height="auto"
font-family="-apple-system, BlinkMacSystemFont, 'Segoe UI', Roboto, 'Helvetica Neue', Arial, sans-serif"><style> text { fill: #1f2937; }
.bg-grid { fill: url(#dot-grid); }
.region-rect {
fill: rgba(15, 23, 42, 0.02);
stroke: #232f3e; /* AWS navy — admin boundary */
stroke-width: 1.5;
stroke-dasharray: 6 5;
}
.region-rect--inner {
fill: rgba(124, 58, 237, 0.03);
stroke: #7c3aed; /* purple — logical subgroup */
stroke-width: 1.4;
stroke-dasharray: 4 4;
}
.region-label {
font-size: 13px; font-weight: 700; fill: #232f3e; letter-spacing: 0.06em;
text-transform: uppercase;
paint-order: stroke; stroke: #fafafa; stroke-width: 4; stroke-linejoin: round;
}
.region-label--inner { fill: #6d28d9; }
.component-name { font-size: 14px; font-weight: 700; text-anchor: middle; fill: #0f172a; }
.component-sub { font-size: 11.5px; font-weight: 400; text-anchor: middle; fill: #64748b; }
.diagram-title { font-size: 20px; font-weight: 800; text-anchor: middle; fill: #0f172a; letter-spacing: 0.01em; }
.diagram-subtitle { font-size: 13px; font-weight: 400; text-anchor: middle; fill: #64748b; }
.icon-shadow { filter: url(#shadow); }
.edge-path {
fill: none;
stroke: #64748b;
stroke-width: 1.8;
stroke-linejoin: round;
stroke-linecap: round;
filter: drop-shadow(0 1px 0.5px rgba(15, 23, 42, 0.08));
}
.edge-path--orange { stroke: #ea580c; }
.edge-shadow {
fill: none;
stroke: rgba(15, 23, 42, 0.06);
stroke-width: 4.5;
stroke-linejoin: round;
stroke-linecap: round;
}
.edge-label {
font-size: 11.5px; font-weight: 500; fill: #334155; text-anchor: middle;
paint-order: stroke; stroke: #fafafa; stroke-width: 4; stroke-linejoin: round;
}
.edge-label--ext { fill: #c2410c; font-weight: 600; }
.edge-label--small { font-size: 10.5px; }

@keyframes edge-flow {
from { stroke-dashoffset: 16; }
to { stroke-dashoffset: 0; }
}
.edge-path {
stroke-dasharray: 8 4;
animation: edge-flow 1.2s linear infinite;
}
.edge-path--orange { animation-duration: 0.8s; }

@keyframes component-breath {
0%, 100% { opacity: 1; }
50% { opacity: 0.92; } /* 8 % dip */
}
.icon-shadow {
animation: component-breath 2.4s ease-in-out infinite;
}

/* `accent="red"` components (HITL etc.) — pulse hue toward red so the
"needs human" semantic surfaces only in animated mode. */
@keyframes alert-flash {
0%, 70%, 100% { filter: hue-rotate(0deg); }
35% { filter: hue-rotate(-130deg); }
}
.alert-pulse { animation: alert-flash 2.4s ease-in-out infinite; } </style><defs><!-- Open-V arrowheads: stroke-only, thinner, more elegant than filled triangles.
markerUnits=userSpaceOnUse keeps the stroke at the declared width
regardless of the path's own stroke-width. --><marker id="arrow-gray" viewBox="0 0 12 10" refX="11" refY="5"
markerWidth="11" markerHeight="11" orient="auto" markerUnits="userSpaceOnUse"><path d="M2,1 L11,5 L2,9" fill="none"
stroke="#64748b" stroke-width="1.6"
stroke-linecap="round" stroke-linejoin="round"/></marker><marker id="arrow-orange" viewBox="0 0 12 10" refX="11" refY="5"
markerWidth="11" markerHeight="11" orient="auto" markerUnits="userSpaceOnUse"><path d="M2,1 L11,5 L2,9" fill="none"
stroke="#ea580c" stroke-width="1.6"
stroke-linecap="round" stroke-linejoin="round"/></marker><!-- Soft drop shadow for icons --><filter id="shadow" x="-20%" y="-20%" width="140%" height="140%"><feDropShadow dx="0" dy="1.5" stdDeviation="2" flood-color="#0f172a" flood-opacity="0.18"/></filter><!-- Engineering-paper dot grid (very subtle) --><pattern id="dot-grid" width="24" height="24" patternUnits="userSpaceOnUse"><circle cx="1" cy="1" r="0.8" fill="#0f172a" fill-opacity="0.045"/></pattern><!-- Gradient highlight for cube faces (subtle, top→bottom darken) --><linearGradient id="g-face-front" x1="0" y1="0" x2="0" y2="1"><stop offset="0%" stop-color="#82c70a"/><stop offset="100%" stop-color="#6ba600"/></linearGradient><linearGradient id="g-face-top" x1="0" y1="0" x2="0" y2="1"><stop offset="0%" stop-color="#b7e756"/><stop offset="100%" stop-color="#a0d440"/></linearGradient><linearGradient id="g-face-side" x1="0" y1="0" x2="0" y2="1"><stop offset="0%" stop-color="#588a00"/><stop offset="100%" stop-color="#446a00"/></linearGradient><linearGradient id="g-box-orange" x1="0" y1="0" x2="0" y2="1"><stop offset="0%" stop-color="#fbbf24"/><stop offset="100%" stop-color="#f59e0b"/></linearGradient><linearGradient id="g-cyl-orange" x1="0" y1="0" x2="0" y2="1"><stop offset="0%" stop-color="#fb923c"/><stop offset="100%" stop-color="#ea7c1e"/></linearGradient><linearGradient id="g-user-blue" x1="0" y1="0" x2="0" y2="1"><stop offset="0%" stop-color="#3b82f6"/><stop offset="100%" stop-color="#1d4ed8"/></linearGradient></defs><rect width="1280" height="680" fill="#fafafa"/><rect width="1280" height="680" class="bg-grid"/><!-- title block (top, fixed) --><!-- content (auto-translated down by title_block_h) --><!-- region rects --><rect class="region-rect" x="208" y="88" width="935" height="568" rx="14"/><g transform="translate(226, 88)"><g class="icon-shadow"><rect x="-18" y="-18" width="36" height="36" rx="4" fill="#232f3e"/><text x="0" y="2" text-anchor="middle"
style="font-size:14px;font-weight:800;fill:white;font-family:Arial,Helvetica,sans-serif;letter-spacing:-0.4px"> aws </text><path d="M -9,8 Q 0,13 9,8" fill="none" stroke="#ff9900" stroke-width="1.8" stroke-linecap="round"/></g></g><rect class="region-rect region-rect--inner" x="224" y="120" width="431" height="496" rx="14"/><g transform="translate(242, 120)"><g fill="none" stroke="#475569" stroke-width="1.4" stroke-linecap="round"><circle r="9"/><ellipse cx="0" cy="0" rx="4" ry="9"/><line x1="-9" y1="0" x2="9" y2="0"/></g></g><!-- edges --><path class="edge-path" d="M 110,320 L 288,320 L 288,176" marker-end="url(#arrow-gray)"/><text class="edge-label edge-label--small" x="188" y="264"> Web </text><path class="edge-path" d="M 110,344 L 288,344" marker-end="url(#arrow-gray)"/><text class="edge-label edge-label--small" x="149" y="336"> SMS </text><path class="edge-path" d="M 72,420 L 72,512 L 416,512" marker-end="url(#arrow-gray)"/><text class="edge-label edge-label--small" x="232" y="504"> Voice </text><path class="edge-path" d="M 352,176 L 528,176 L 528,344" marker-end="url(#arrow-gray)"/><path class="edge-path" style="stroke-dasharray:6 4" d="M 568,304 L 568,176 L 800,176" marker-end="url(#arrow-gray)"/><path class="edge-path" d="M 352,332 L 528,332" marker-end="url(#arrow-gray)"/><path class="edge-path" d="M 528,356 L 352,356" marker-end="url(#arrow-gray)"/><path class="edge-path" style="stroke-dasharray:6 4" d="M 608,344 L 800,344" marker-end="url(#arrow-gray)"/><path class="edge-path" d="M 864,344 L 1032,344" marker-end="url(#arrow-gray)"/><text class="edge-label edge-label--small" x="948" y="334"> fine-tunable </text><path class="edge-path" style="stroke-dasharray:6 4" d="M 568,432 L 568,520 L 992,520" marker-end="url(#arrow-gray)"/><path class="edge-path" d="M 1200,500 L 1200,520 L 1056,520" marker-end="url(#arrow-gray)"/><text class="edge-label edge-label--small" x="1136" y="512"> Web Crawler </text><path class="edge-path" d="M 448,480 L 448,432 L 568,432" marker-end="url(#arrow-gray)"/><!-- components --><g transform="translate(72, 344)"><g class="icon-shadow"><circle r="34" fill="url(#g-user-blue)"/><circle cy="-8" r="9" fill="white"/><path d="M -16,18 a 16,12 0 0 1 32,0 z" fill="white"/></g><text class="component-name" y="55" style="font-size:14px"> Customer </text><text class="component-sub" y="72"></text></g><g transform="translate(1200, 424)"><g class="icon-shadow"><path d="M -22,8 a 14,14 0 1 1 6,-26 a 18,18 0 0 1 26,16 a 11,11 0 0 1 -3,21 H -22 a 11,11 0 0 1 -7,-11 z"
fill="#dbeafe" stroke="#1d4ed8" stroke-width="1.6" stroke-linejoin="round"/><text x="0" y="6" text-anchor="middle"
style="font-size:9.5px;font-weight:700;fill:#1d4ed8;letter-spacing:0.05em"> WWW </text></g><text class="component-name" y="55" style="font-size:14px"> Internet </text><text class="component-sub" y="72"></text></g><g transform="translate(320, 176)"><g class="icon-shadow"><rect x="-32" y="-32" width="64" height="64" rx="10" fill="#DD344C" stroke="#a31836" stroke-width="1.4"/><g fill="white" stroke="none"><!-- stylized A (Amplify mark) --><path d="M -14,12 L -3,-12 L 3,-12 L 14,12 L 7,12 L 4,5 L -4,5 L -7,12 Z"/><path d="M -1,-1 L 1,-1 L 2,2 L -2,2 Z"/></g></g><text class="component-name" y="50" style="font-size:14px"> AWS Amplify </text><text class="component-sub" y="67"> Website </text></g><g transform="translate(320, 344)"><g class="icon-shadow"><rect x="-32" y="-32" width="64" height="64" rx="10" fill="#C925D1" stroke="#8a1690" stroke-width="1.4"/><g fill="white" stroke="none"><!-- chat bubble + dots --><path d="M -14,-8 a 4,4 0 0 1 4,-4 H 10 a 4,4 0 0 1 4,4 V 4 a 4,4 0 0 1 -4,4 H -2 L -8,14 V 8 H -10 a 4,4 0 0 1 -4,-4 Z"/><circle cx="-6" cy="-2" r="1.6" fill="#C925D1"/><circle cx="0" cy="-2" r="1.6" fill="#C925D1"/><circle cx="6" cy="-2" r="1.6" fill="#C925D1"/></g></g><text class="component-name" y="50" style="font-size:14px"> Amazon Lex </text><text class="component-sub" y="67"> Natural Language Chatbot </text></g><g transform="translate(568, 344)"><g class="icon-shadow"><rect x="-40" y="-40" width="80" height="80" rx="10" fill="#ED7100" stroke="#a44a00" stroke-width="1.4"/><text x="0" y="11" text-anchor="middle"
style="font-size:38px;font-weight:700;fill:white;font-family:Georgia,serif"> &#955; </text></g><text class="component-name" y="58" style="font-size:14px"> AWS Lambda </text><text class="component-sub" y="75"> Lex Bot Logic Handler </text></g><g transform="translate(448, 512)"><g class="icon-shadow"><rect x="-32" y="-32" width="64" height="64" rx="10" fill="#DD344C" stroke="#a31836" stroke-width="1.4"/><g fill="white" stroke="none"><!-- phone handset --><path d="M -12,-8 q 0,-4 4,-4 l 4,0 q 3,0 4,3 l 1,4 q 1,3 -2,5 l -3,2 q 3,6 9,9 l 2,-3 q 2,-3 5,-2 l 4,1 q 3,1 3,4 l 0,4 q 0,4 -4,4 q -16,0 -27,-11 q -11,-11 -11,-16 z"/></g></g><text class="component-name" y="50" style="font-size:14px"> Amazon Connect </text><text class="component-sub" y="67"> Contact Center </text></g><g transform="translate(832, 176)"><g class="icon-shadow"><rect x="-32" y="-32" width="64" height="64" rx="10" fill="#4D72F3" stroke="#2a4ec2" stroke-width="1.4"/><g fill="white" stroke="white" stroke-width="0" stroke-linejoin="round"><!-- stacked database discs --><ellipse cx="0" cy="-9" rx="12" ry="3.5"/><path d="M -12,-9 V -1 a 12,3.5 0 0 0 24,0 V -9" fill="white"/><ellipse cx="0" cy="-1" rx="12" ry="3.5" fill="#4D72F3" opacity="0.35"/><path d="M -12,0 V 8 a 12,3.5 0 0 0 24,0 V 0" fill="white"/><ellipse cx="0" cy="8" rx="12" ry="3.5" fill="#4D72F3" opacity="0.35"/><path d="M -12,9 V 12 a 12,3.5 0 0 0 24,0 V 9" fill="white"/></g></g><text class="component-name" y="50" style="font-size:14px"> Amazon DynamoDB </text><text class="component-sub" y="67"> User Account Info </text></g><g transform="translate(832, 344)"><g class="icon-shadow"><rect x="-32" y="-32" width="64" height="64" rx="10" fill="#01A88D" stroke="#017364" stroke-width="1.4"/><g fill="white" stroke="white" stroke-width="1.6" stroke-linecap="round"><!-- brain-ish network --><circle cx="0" cy="0" r="3.5" fill="white"/><circle cx="-10" cy="-7" r="2.5" fill="white"/><circle cx="10" cy="-7" r="2.5" fill="white"/><circle cx="-10" cy="7" r="2.5" fill="white"/><circle cx="10" cy="7" r="2.5" fill="white"/><line x1="-7" y1="-5" x2="-2" y2="-1"/><line x1="7" y1="-5" x2="2" y2="-1"/><line x1="-7" y1="5" x2="-2" y2="1"/><line x1="7" y1="5" x2="2" y2="1"/></g></g><text class="component-name" y="50" style="font-size:14px"> Amazon Bedrock </text><text class="component-sub" y="67"> Anthropic Claude 2.1 FM </text></g><g transform="translate(1064, 344)"><g class="icon-shadow"><rect x="-32" y="-32" width="64" height="64" rx="10" fill="#7AA116" stroke="#506b0e" stroke-width="1.4"/><g fill="white" stroke="none"><!-- bucket --><path d="M -12,-8 L 12,-8 L 10,12 a 2,2 0 0 1 -2,2 L -8,14 a 2,2 0 0 1 -2,-2 Z"/><ellipse cx="0" cy="-8" rx="12" ry="3" fill="#7AA116"/><ellipse cx="0" cy="-8" rx="12" ry="3" fill="none" stroke="white" stroke-width="1.2"/></g></g><text class="component-name" y="50" style="font-size:14px"> Amazon S3 </text><text class="component-sub" y="67"> Customer Data </text></g><g transform="translate(1024, 520)"><g class="icon-shadow"><rect x="-32" y="-32" width="64" height="64" rx="10" fill="#C925D1" stroke="#8a1690" stroke-width="1.4"/><g fill="none" stroke="white" stroke-width="2.5" stroke-linecap="round"><!-- magnifier --><circle cx="-3" cy="-3" r="8"/><line x1="3" y1="3" x2="11" y2="11"/></g></g><text class="component-name" y="50" style="font-size:14px"> Amazon Kendra </text><text class="component-sub" y="67"> FAQ Search </text></g><g transform="translate(560, 512)"><g class="icon-shadow"><rect x="-16" y="-16" width="32" height="32" rx="7" fill="white" stroke="#cbd5e1" stroke-width="1"/><!-- Slack hash mark, 4 coloured arms --><g stroke-linecap="round" stroke-width="3.6" fill="none"><line x1="-7" y1="-3" x2="7" y2="-3" stroke="#e01e5a"/><line x1="-7" y1="3" x2="7" y2="3" stroke="#36c5f0"/><line x1="-3" y1="-7" x2="-3" y2="7" stroke="#2eb67d"/><line x1="3" y1="-7" x2="3" y2="7" stroke="#ecb22e"/></g></g></g><g transform="translate(184, 296)"><circle r="14" fill="#fff4e0" stroke="#d97706" stroke-width="1.8"/><text x="0" y="4.5" text-anchor="middle" style="font-size:14px;font-weight:700;fill:#92400e"> 1 </text></g><g transform="translate(440, 160)"><circle r="14" fill="#fff4e0" stroke="#d97706" stroke-width="1.8"/><text x="0" y="4.5" text-anchor="middle" style="font-size:14px;font-weight:700;fill:#92400e"> 2 </text></g><g transform="translate(704, 160)"><circle r="14" fill="#fff4e0" stroke="#d97706" stroke-width="1.8"/><text x="0" y="4.5" text-anchor="middle" style="font-size:14px;font-weight:700;fill:#92400e"> 3 </text></g><!-- region labels (drawn last so they sit on top of crossing arrows) --><text class="region-label" text-anchor="start" x="250" y="94"> us-east-1 </text><text class="region-label region-label--inner" text-anchor="start" x="266" y="126"> &lt;your-company&gt;.com </text></svg>
