<?xml version="1.0" encoding="UTF-8"?><svg xmlns="http://www.w3.org/2000/svg" viewBox="0 0 1080 658"
width="1080" height="658"
style="max-width: 100%; height: auto"
font-family="-apple-system, BlinkMacSystemFont, 'Segoe UI', Roboto, 'Helvetica Neue', Arial, sans-serif"><style> text { fill: #1f2937; }
.bg-grid { fill: url(#dot-grid); }
.region-rect {
fill: rgba(15, 23, 42, 0.02);
stroke: #232f3e; /* AWS navy — admin boundary */
stroke-width: 1.5;
stroke-dasharray: 6 5;
}
.region-rect--inner {
fill: rgba(124, 58, 237, 0.03);
stroke: #7c3aed; /* purple — logical subgroup */
stroke-width: 1.4;
stroke-dasharray: 4 4;
}
.region-label {
font-size: 13px; font-weight: 700; fill: #232f3e; letter-spacing: 0.06em;
text-transform: uppercase;
paint-order: stroke; stroke: #fafafa; stroke-width: 4; stroke-linejoin: round;
}
.region-label--inner { fill: #6d28d9; }
.component-name { font-size: 14px; font-weight: 700; text-anchor: middle; fill: #0f172a; }
.component-sub { font-size: 11.5px; font-weight: 400; text-anchor: middle; fill: #64748b; }
.diagram-title { font-size: 20px; font-weight: 800; text-anchor: middle; fill: #0f172a; letter-spacing: 0.01em; }
.diagram-subtitle { font-size: 13px; font-weight: 400; text-anchor: middle; fill: #64748b; }
.icon-shadow { filter: url(#shadow); }
.edge-path {
fill: none;
stroke: #64748b;
stroke-width: 1.8;
stroke-linejoin: round;
stroke-linecap: round;
filter: drop-shadow(0 1px 0.5px rgba(15, 23, 42, 0.08));
}
.edge-path--orange { stroke: #ea580c; }
.edge-shadow {
fill: none;
stroke: rgba(15, 23, 42, 0.06);
stroke-width: 4.5;
stroke-linejoin: round;
stroke-linecap: round;
}
.edge-label {
font-size: 11.5px; font-weight: 500; fill: #334155; text-anchor: middle;
paint-order: stroke; stroke: #fafafa; stroke-width: 4; stroke-linejoin: round;
}
.edge-label--ext { fill: #c2410c; font-weight: 600; }
.edge-label--small { font-size: 10.5px; } </style><defs><!-- Open-V arrowheads: stroke-only, thinner, more elegant than filled triangles.
markerUnits=userSpaceOnUse keeps the stroke at the declared width
regardless of the path's own stroke-width. --><marker id="arrow-gray" viewBox="0 0 12 10" refX="11" refY="5"
markerWidth="11" markerHeight="11" orient="auto" markerUnits="userSpaceOnUse"><path d="M2,1 L11,5 L2,9" fill="none"
stroke="#64748b" stroke-width="1.6"
stroke-linecap="round" stroke-linejoin="round"/></marker><marker id="arrow-orange" viewBox="0 0 12 10" refX="11" refY="5"
markerWidth="11" markerHeight="11" orient="auto" markerUnits="userSpaceOnUse"><path d="M2,1 L11,5 L2,9" fill="none"
stroke="#ea580c" stroke-width="1.6"
stroke-linecap="round" stroke-linejoin="round"/></marker><!-- Soft drop shadow for icons --><filter id="shadow" x="-20%" y="-20%" width="140%" height="140%"><feDropShadow dx="0" dy="1.5" stdDeviation="2" flood-color="#0f172a" flood-opacity="0.18"/></filter><!-- Engineering-paper dot grid (very subtle) --><pattern id="dot-grid" width="24" height="24" patternUnits="userSpaceOnUse"><circle cx="1" cy="1" r="0.8" fill="#0f172a" fill-opacity="0.045"/></pattern><!-- Gradient highlight for cube faces (subtle, top→bottom darken) --><linearGradient id="g-face-front" x1="0" y1="0" x2="0" y2="1"><stop offset="0%" stop-color="#82c70a"/><stop offset="100%" stop-color="#6ba600"/></linearGradient><linearGradient id="g-face-top" x1="0" y1="0" x2="0" y2="1"><stop offset="0%" stop-color="#b7e756"/><stop offset="100%" stop-color="#a0d440"/></linearGradient><linearGradient id="g-face-side" x1="0" y1="0" x2="0" y2="1"><stop offset="0%" stop-color="#588a00"/><stop offset="100%" stop-color="#446a00"/></linearGradient><linearGradient id="g-box-orange" x1="0" y1="0" x2="0" y2="1"><stop offset="0%" stop-color="#fbbf24"/><stop offset="100%" stop-color="#f59e0b"/></linearGradient><linearGradient id="g-cyl-orange" x1="0" y1="0" x2="0" y2="1"><stop offset="0%" stop-color="#fb923c"/><stop offset="100%" stop-color="#ea7c1e"/></linearGradient><linearGradient id="g-user-blue" x1="0" y1="0" x2="0" y2="1"><stop offset="0%" stop-color="#3b82f6"/><stop offset="100%" stop-color="#1d4ed8"/></linearGradient></defs><rect width="1080" height="658" fill="#fafafa"/><rect width="1080" height="658" class="bg-grid"/><!-- title block (top, fixed) --><!-- content (auto-translated down by title_block_h) --><!-- region rects --><rect class="region-rect" x="18" y="156" width="443" height="356" rx="14"/><rect class="region-rect" x="496" y="156" width="269" height="506" rx="14"/><rect class="region-rect" x="800" y="156" width="263" height="506" rx="14"/><!-- edges --><path class="edge-path" d="M 239,158 L 239,204" marker-end="url(#arrow-gray)"/><text class="edge-label" x="299" y="173"> Mở browser </text><path class="edge-path" d="M 279,244 L 590,244" marker-end="url(#arrow-gray)"/><text class="edge-label" x="434" y="236"> docker run · SSH </text><path class="edge-path edge-path--orange" d="M 670,244 L 896,244" marker-end="url(#arrow-orange)"/><text class="edge-label edge-label--ext" x="783" y="236"> Pull image </text><path class="edge-path" d="M 217,326 C 217,376 120,329 120,379" marker-end="url(#arrow-gray)"/><text class="edge-label edge-label--small" x="120" y="365"> Cloud cell </text><path class="edge-path" d="M 261,326 C 261,367 333,338 333,379" marker-end="url(#arrow-gray)"/><text class="edge-label edge-label--small" x="333" y="365"> Local cell </text><path class="edge-path" d="M 368,414 L 580,414" marker-end="url(#arrow-gray)"/><text class="edge-label edge-label--small" x="474" y="406"> POST · local </text><path class="edge-path" d="M 630,326 L 630,364" marker-end="url(#arrow-gray)"/><text class="edge-label edge-label--small" x="678" y="345"> Khởi tạo pod </text><path class="edge-path" d="M 630,512 L 630,544" marker-end="url(#arrow-gray)"/><text class="edge-label edge-label--small" x="680" y="528"> Mount weights </text><!-- components --><g transform="translate(239, 82)"><g class="icon-shadow"><circle r="38" fill="url(#g-user-blue)"/><circle cy="-9" r="10" fill="white"/><path d="M -18,20 a 18,14 0 0 1 36,0 z" fill="white"/></g><text class="component-name" y="55" style="font-size:14px"> Agent / User </text><text class="component-sub" y="72"> Bootcamp participant </text></g><g transform="translate(239, 244)"><g class="icon-shadow" transform="translate(-40,-40)"><polygon points="40,4.8 75.2,22.4 40,39.2 4.8,22.4" fill="url(#g-face-top)" stroke="#3d5d00" stroke-width="1"/><polygon points="40,39.2 75.2,22.4 75.2,57.6 40,75.2" fill="url(#g-face-side)" stroke="#3d5d00" stroke-width="1"/><polygon points="4.8,22.4 40,39.2 40,75.2 4.8,57.6" fill="url(#g-face-front)" stroke="#3d5d00" stroke-width="1"/><g transform="matrix(35.2,16.8,0,35.2,4.8,22.4)" stroke-linejoin="round"><g stroke="white" stroke-width="0.045" stroke-linecap="round" fill="none"><line x1="0.18" y1="0.32" x2="0.82" y2="0.32"/><line x1="0.18" y1="0.52" x2="0.82" y2="0.52"/><line x1="0.18" y1="0.72" x2="0.60" y2="0.72"/></g></g></g><text class="component-name" y="60" style="font-size:14px"> Jupyter Notebook </text><text class="component-sub" y="77"> Python 3.13 · điều phối 2 luồng </text></g><g transform="translate(120, 414)"><g class="icon-shadow"><rect x="-35" y="-35" width="70" height="70" rx="8" fill="url(#g-box-orange)" stroke="#c2410c" stroke-width="1.5"/><g transform="translate(-13, -13)"><line x1="28" y1="2" x2="13" y2="17" stroke="white" stroke-width="2" stroke-linecap="round" stroke-linejoin="round"/><polygon points="28,2 21,28 13,17 2,11 28,2" fill="white" stroke="white" stroke-width="1.2" stroke-linejoin="round"/></g></g><text class="component-name" y="55" style="font-size:14px"> HTTP Client </text><text class="component-sub" y="72"> requests → API Catalog </text></g><g transform="translate(333, 414)"><g class="icon-shadow"><rect x="-35" y="-35" width="70" height="70" rx="8" fill="url(#g-box-orange)" stroke="#c2410c" stroke-width="1.5"/><polygon points="2,-18 -12,4 -1,4 -3,18 11,-4 0,-4 2,-18" fill="white" stroke="white" stroke-width="1.2" stroke-linejoin="round"/></g><text class="component-name" y="55" style="font-size:14px"> ChatNVIDIA </text><text class="component-sub" y="72"> langchain-nvidia · luồng LOCAL </text></g><g transform="translate(630, 244)"><g class="icon-shadow" transform="translate(-40,-40)"><polygon points="40,4.8 75.2,22.4 40,39.2 4.8,22.4" fill="url(#g-face-top)" stroke="#3d5d00" stroke-width="1"/><polygon points="40,39.2 75.2,22.4 75.2,57.6 40,75.2" fill="url(#g-face-side)" stroke="#3d5d00" stroke-width="1"/><polygon points="4.8,22.4 40,39.2 40,75.2 4.8,57.6" fill="url(#g-face-front)" stroke="#3d5d00" stroke-width="1"/><g transform="matrix(35.2,16.8,0,35.2,4.8,22.4)" stroke-linejoin="round"><g fill="white"><rect x="0.10" y="0.30" width="0.34" height="0.18"/><rect x="0.56" y="0.30" width="0.34" height="0.18"/><rect x="0.10" y="0.56" width="0.34" height="0.18"/><rect x="0.56" y="0.56" width="0.34" height="0.18"/></g></g></g><text class="component-name" y="60" style="font-size:14px"> Docker Engine </text><text class="component-sub" y="77"> daemon · quản lý NIM </text></g><g transform="translate(630, 414)"><circle r="62" fill="#76b900" opacity="0.10"/><circle r="56" fill="#76b900" opacity="0.08"/><g class="icon-shadow" transform="translate(-50,-50)"><polygon points="50,6 94,28 50,49 6,28" fill="url(#g-face-top)" stroke="#3d5d00" stroke-width="1"/><polygon points="50,49 94,28 94,72 50,94" fill="url(#g-face-side)" stroke="#3d5d00" stroke-width="1"/><polygon points="6,28 50,49 50,94 6,72" fill="url(#g-face-front)" stroke="#3d5d00" stroke-width="1"/><g transform="matrix(44,21,0,44,6,28)" stroke-linejoin="round"><g stroke="white" stroke-width="0.032" fill="white"><line x1="0.50" y1="0.50" x2="0.20" y2="0.22"/><line x1="0.50" y1="0.50" x2="0.80" y2="0.22"/><line x1="0.50" y1="0.50" x2="0.20" y2="0.78"/><line x1="0.50" y1="0.50" x2="0.80" y2="0.78"/><circle cx="0.50" cy="0.50" r="0.085"/><circle cx="0.20" cy="0.22" r="0.055"/><circle cx="0.80" cy="0.22" r="0.055"/><circle cx="0.20" cy="0.78" r="0.055"/><circle cx="0.80" cy="0.78" r="0.055"/></g></g></g><text class="component-name" y="73" style="font-size:15px"> NIM Microservice </text><text class="component-sub" y="90"> Uvicorn · llama-3.2-3b · :8000 </text></g><g transform="translate(630, 579)"><g class="icon-shadow" transform="translate(-35, -35)"><ellipse cx="35" cy="12" rx="28" ry="8" fill="#fdba74" stroke="#c2410c" stroke-width="1.4"/><path d="M 7,12 V 58 a 28,8 0 0 0 56,0 V 12" fill="url(#g-cyl-orange)" stroke="#c2410c" stroke-width="1.4"/><ellipse cx="35" cy="12" rx="28" ry="8" fill="none" stroke="#c2410c" stroke-width="1.2"/><path d="M 7,28 a 28,8 0 0 0 56,0" fill="none" stroke="#c2410c" stroke-width="0.8" opacity="0.55"/><path d="M 7,42 a 28,8 0 0 0 56,0" fill="none" stroke="#c2410c" stroke-width="0.8" opacity="0.55"/></g><text class="component-name" y="55" style="font-size:14px"> NIM Cache </text><text class="component-sub" y="72"> ~/.cache/nim → /opt/nim/.cache </text></g><g transform="translate(931, 244)"><g class="icon-shadow"><rect x="-35" y="-35" width="70" height="70" rx="8" fill="url(#g-box-orange)" stroke="#c2410c" stroke-width="1.5"/><g transform="translate(0,-2)"><rect x="-20" y="-15" width="40" height="9" rx="2" fill="white"/><path d="M -16,-6 V 16 a 2,2 0 0 0 2,2 H 14 a 2,2 0 0 0 2,-2 V -6" fill="none" stroke="white" stroke-width="2" stroke-linejoin="round"/><line x1="-6" y1="3" x2="6" y2="3" stroke="white" stroke-width="2" stroke-linecap="round"/></g></g><text class="component-name" y="55" style="font-size:14px"> nvcr.io </text><text class="component-sub" y="72"> Container Registry </text></g><g transform="translate(931, 414)"><g class="icon-shadow"><rect x="-35" y="-35" width="70" height="70" rx="8" fill="url(#g-box-orange)" stroke="#c2410c" stroke-width="1.5"/><path d="M -10,12 a 12,12 0 1 1 5,-23 a 16,16 0 0 1 22,15 a 9,9 0 0 1 -2,17 H -10 a 9,9 0 0 1 0,-9 z"
fill="white" stroke="white" stroke-width="1" stroke-linejoin="round"/></g><text class="component-name" y="55" style="font-size:14px"> API Catalog </text><text class="component-sub" y="72"> integrate.api.nvidia.com ← HTTP </text></g><g transform="translate(931, 579)"><g transform="translate(-3, -22)"><g stroke="#d97706" stroke-width="2" fill="none" stroke-linecap="round" stroke-linejoin="round"><circle cx="-10" cy="0" r="6" fill="#fff4e0"/><line x1="-4" y1="-2" x2="16" y2="-2"/><line x1="10" y1="-2" x2="10" y2="3"/><line x1="16" y1="-2" x2="16" y2="5"/></g></g><text x="0" y="2" style="font-size:13px;font-weight:700;text-anchor:middle;fill:#1f2937"> Auth </text><text x="0" y="20" style="font-size:11.5px;text-anchor:middle;fill:#374151"> NVIDIA_API_KEY · NGC_API_KEY </text></g><!-- region labels (drawn last so they sit on top of crossing arrows) --><text class="region-label" text-anchor="middle" x="239" y="146"> code-server (IDE) </text><text class="region-label" text-anchor="middle" x="630" y="146"> NVIDIA Brev (GPU pod) </text><text class="region-label" text-anchor="middle" x="931" y="146"> NVIDIA Cloud (SaaS) </text></svg>
