<?xml version="1.0" encoding="UTF-8"?>
<svg xmlns="http://www.w3.org/2000/svg" viewBox="0 0 316 648" width="316" height="648" style="max-width:100%;height:auto" font-family="-apple-system, BlinkMacSystemFont, 'Segoe UI', Roboto, 'Helvetica Neue', Arial, sans-serif">
<style>text{fill:#1f2937}.bg-grid{fill:url(#dot-grid)}.fc-shape{fill:#eff6ff;stroke:#3b82f6;stroke-width:1.6}.fc-shape-line{fill:none;stroke:#3b82f6;stroke-width:1.6;stroke-linecap:round}.fc-label{font-size:13px;font-weight:600;fill:#1e3a8a;text-anchor:middle;dominant-baseline:central}.edge-path{fill:none;stroke:#64748b;stroke-width:1.8;stroke-linejoin:round;stroke-linecap:round}.edge-label{font-size:11.5px;font-weight:500;fill:#334155;text-anchor:middle;paint-order:stroke;stroke:#fafafa;stroke-width:4;stroke-linejoin:round}.region-rect{fill:#eaf3ff;stroke:#b8d0ee;stroke-width:1.2}.region-label{font-size:11px;font-weight:500;fill:#475569;paint-order:stroke;stroke:#eaf3ff;stroke-width:3}</style>
<defs><marker id="arrow" viewBox="0 0 12 10" refX="11" refY="5" markerWidth="11" markerHeight="11" orient="auto" markerUnits="userSpaceOnUse"><path d="M2,1 L11,5 L2,9" fill="none" stroke="#64748b" stroke-width="1.6" stroke-linecap="round" stroke-linejoin="round"/></marker><pattern id="dot-grid" width="24" height="24" patternUnits="userSpaceOnUse"><circle cx="1.5" cy="1.5" r="1.2" fill="#0f172a" fill-opacity="0.05"/></pattern></defs>
<rect width="316" height="648" fill="#fafafa"/>
<rect width="316" height="648" class="bg-grid"/>
<path class="edge-path" d="M217,86 L217,126 L217,126 L217,166" marker-end="url(#arrow)"/>
<path class="edge-path" d="M159,198 L147,198 L147,333 L136,333" marker-end="url(#arrow)"/>
<text class="edge-label" x="147" y="265">yes</text>
<path class="edge-path" d="M217,230 L217,270 L217,270 L217,310"/>
<path class="edge-path" d="M217,356 L217,396 L217,396 L217,436" marker-end="url(#arrow)"/>
<path class="edge-path" style="stroke-dasharray:6 4" d="M136,333 L152,333 L152,585 L169,585" marker-end="url(#arrow)"/>
<path class="edge-path" d="M217,482 L217,522 L217,522 L217,562"/>
<rect class="fc-shape" x="180" y="40" width="74" height="46" rx="6"/><text class="fc-label" x="217" y="63">Submit</text>
<polygon class="fc-shape" points="217,166 275,198 217,230 159,198"/><text class="fc-label" x="217" y="198">Approved?</text>
<rect class="fc-shape" x="40" y="310" width="96" height="46" rx="6"/><text class="fc-label" x="88" y="333">Provision</text>
<rect class="fc-shape" x="187" y="310" width="60" height="46" rx="6"/><text class="fc-label" x="217" y="333">no</text>
<rect class="fc-shape" x="180" y="436" width="74" height="46" rx="6"/><text class="fc-label" x="217" y="459">Reject</text>
<rect class="fc-shape" x="169" y="562" width="96" height="46" rx="6"/><text class="fc-label" x="217" y="585">Audit log</text>
</svg>
