<?xml version="1.0" encoding="UTF-8"?>
<svg xmlns="http://www.w3.org/2000/svg" viewBox="0 0 201 630" width="201" height="630" style="max-width:100%;height:auto" font-family="-apple-system, BlinkMacSystemFont, 'Segoe UI', Roboto, 'Helvetica Neue', Arial, sans-serif">
<style>text{fill:#1f2937}.bg-grid{fill:url(#dot-grid)}.fc-shape{fill:#eff6ff;stroke:#3b82f6;stroke-width:1.6}.fc-shape-line{fill:none;stroke:#3b82f6;stroke-width:1.6;stroke-linecap:round}.fc-label{font-size:13px;font-weight:600;fill:#1e3a8a;text-anchor:middle;dominant-baseline:central}.edge-path{fill:none;stroke:#64748b;stroke-width:1.8;stroke-linejoin:round;stroke-linecap:round}.edge-label{font-size:11.5px;font-weight:500;fill:#334155;text-anchor:middle;paint-order:stroke;stroke:#fafafa;stroke-width:4;stroke-linejoin:round}.region-rect{fill:#eaf3ff;stroke:#b8d0ee;stroke-width:1.2}.region-label{font-size:11px;font-weight:500;fill:#475569;paint-order:stroke;stroke:#eaf3ff;stroke-width:3}</style>
<defs><marker id="arrow" viewBox="0 0 12 10" refX="11" refY="5" markerWidth="11" markerHeight="11" orient="auto" markerUnits="userSpaceOnUse"><path d="M2,1 L11,5 L2,9" fill="none" stroke="#64748b" stroke-width="1.6" stroke-linecap="round" stroke-linejoin="round"/></marker><pattern id="dot-grid" width="24" height="24" patternUnits="userSpaceOnUse"><circle cx="1.5" cy="1.5" r="1.2" fill="#0f172a" fill-opacity="0.05"/></pattern></defs>
<rect width="201" height="630" fill="#fafafa"/>
<rect width="201" height="630" class="bg-grid"/>
<rect class="region-rect" x="16" y="120" width="145" height="368" rx="12"/>
<path class="edge-path" d="M88,86 L88,126 L88,126 L88,166" marker-end="url(#arrow)"/>
<path class="edge-path" d="M88,212 L88,252 L88,252 L88,292" marker-end="url(#arrow)"/>
<path class="edge-path" d="M88,338 L88,378 L88,378 L88,418" marker-end="url(#arrow)"/>
<path class="edge-path" d="M88,464 L88,504 L88,504 L88,544" marker-end="url(#arrow)"/>
<rect class="fc-shape" x="55" y="40" width="66" height="46" rx="6"/><text class="fc-label" x="88" y="63">Start</text>
<rect class="fc-shape" x="55" y="166" width="66" height="46" rx="6"/><text class="fc-label" x="88" y="189">Fetch</text>
<rect class="fc-shape" x="40" y="292" width="96" height="46" rx="6"/><text class="fc-label" x="88" y="315">Transform</text>
<rect class="fc-shape" x="55" y="418" width="66" height="46" rx="6"/><text class="fc-label" x="88" y="441">Write</text>
<rect class="fc-shape" x="58" y="544" width="60" height="46" rx="6"/><text class="fc-label" x="88" y="567">Done</text>
<text class="region-label" text-anchor="start" x="28" y="136">Worker Pool</text>
</svg>
