<svg height="644" id="container" width="454.023" xmlns="http://www.w3.org/2000/svg" class="requirementDiagram" style="max-width: 454.0234375px;" viewBox="0 0 454.0234375 644" role="graphics-document document" aria-roledescription="requirement"><style>#container{font-family:"trebuchet ms",verdana,arial,sans-serif;font-size:16px;fill:#333;}@keyframes edge-animation-frame{from{stroke-dashoffset:0;}}@keyframes dash{to{stroke-dashoffset:0;}}#container .edge-animation-slow{stroke-dasharray:9,5!important;stroke-dashoffset:900;animation:dash 50s linear infinite;stroke-linecap:round;}#container .edge-animation-fast{stroke-dasharray:9,5!important;stroke-dashoffset:900;animation:dash 20s linear infinite;stroke-linecap:round;}#container .error-icon{fill:#552222;}#container .error-text{fill:#552222;stroke:#552222;}#container .edge-thickness-normal{stroke-width:1px;}#container .edge-thickness-thick{stroke-width:3.5px;}#container .edge-pattern-solid{stroke-dasharray:0;}#container .edge-thickness-invisible{stroke-width:0;fill:none;}#container .edge-pattern-dashed{stroke-dasharray:3;}#container .edge-pattern-dotted{stroke-dasharray:2;}#container .marker{fill:#333333;stroke:#333333;}#container .marker.cross{stroke:#333333;}#container svg{font-family:"trebuchet ms",verdana,arial,sans-serif;font-size:16px;}#container p{margin:0;}#container marker{fill:#333333;stroke:#333333;}#container marker.cross{stroke:#333333;}#container svg{font-family:"trebuchet ms",verdana,arial,sans-serif;font-size:16px;}#container .reqBox{fill:#ECECFF;fill-opacity:1.0;stroke:hsl(240, 60%, 86.2745098039%);stroke-width:1;}#container .reqTitle,#container .reqLabel{fill:#131300;}#container .reqLabelBox{fill:rgba(232,232,232, 0.8);fill-opacity:1.0;}#container .req-title-line{stroke:hsl(240, 60%, 86.2745098039%);stroke-width:1;}#container .relationshipLine{stroke:#333333;stroke-width:1px;}#container .relationshipLabel{fill:black;}#container .edgeLabel{background-color:rgba(232,232,232, 0.8);}#container .edgeLabel .label rect{fill:rgba(232,232,232, 0.8);}#container .edgeLabel .label text{fill:black;}#container .divider{stroke:#9370DB;stroke-width:1;}#container .label{font-family:"trebuchet ms",verdana,arial,sans-serif;color:#333;}#container .label text,#container span{fill:#333;color:#333;}#container .labelBkg{background-color:rgba(232,232,232, 0.8);}#container .node .neo-node{stroke:#9370DB;}#container [data-look="neo"].node rect,#container [data-look="neo"].cluster rect,#container [data-look="neo"].node polygon{stroke:#9370DB;filter:drop-shadow(1px 2px 2px rgba(185, 185, 185, 1));}#container [data-look="neo"].node path{stroke:#9370DB;stroke-width:1px;}#container [data-look="neo"].node .outer-path{filter:drop-shadow(1px 2px 2px rgba(185, 185, 185, 1));}#container [data-look="neo"].node .neo-line path{stroke:#9370DB;filter:none;}#container [data-look="neo"].node circle{stroke:#9370DB;filter:drop-shadow(1px 2px 2px rgba(185, 185, 185, 1));}#container [data-look="neo"].node circle .state-start{fill:#000000;}#container [data-look="neo"].icon-shape .icon{fill:#9370DB;filter:drop-shadow(1px 2px 2px rgba(185, 185, 185, 1));}#container [data-look="neo"].icon-shape .icon-neo path{stroke:#9370DB;filter:drop-shadow(1px 2px 2px rgba(185, 185, 185, 1));}#container :root{--mermaid-font-family:"trebuchet ms",verdana,arial,sans-serif;}</style><g><defs><marker id="container_requirement-requirement_containsStart" refX="0" refY="10" markerWidth="20" markerHeight="20" orient="auto"><g><circle cx="10" cy="10" r="9" fill="none"></circle><line x1="1" x2="19" y1="10" y2="10"></line><line y1="1" y2="19" x1="10" x2="10"></line></g></marker></defs><defs><marker id="container_requirement-requirement_arrowEnd" refX="20" refY="10" markerWidth="20" markerHeight="20" orient="auto"><path d="M0,0
      L20,10
      M20,10
      L0,20"></path></marker></defs><g class="root"><g class="clusters"></g><g class="edgePaths"><path d="M112.5,378L112.5,384.167C112.5,390.333,112.5,402.667,118.332,415C124.165,427.333,135.829,439.667,141.662,445.833L147.494,452" id="container-r2-r1-0" class="edge-thickness-normal edge-pattern-dashed relationshipLine" style="fill:none;stroke-dasharray: 10,7;;;fill:none;stroke-dasharray: 10,7" data-edge="true" data-et="edge" data-id="r2-r1-0" data-points="W3sieCI6MTEyLjUsInkiOjM3OH0seyJ4IjoxMTIuNSwieSI6NDE1fSx7IngiOjE0Ny40OTM5Mjg2NTc5NDU3MywieSI6NDUyfV0=" data-look="classic" marker-end="url(#container_requirement-requirement_arrowEnd)"></path><path d="M112.5,120L112.5,126.167C112.5,132.333,112.5,144.667,112.5,157C112.5,169.333,112.5,181.667,112.5,187.833L112.5,194" id="container-sim-r2-0" class="edge-thickness-normal edge-pattern-dashed relationshipLine" style="fill:none;stroke-dasharray: 10,7;;;fill:none;stroke-dasharray: 10,7" data-edge="true" data-et="edge" data-id="sim-r2-0" data-points="W3sieCI6MTEyLjUsInkiOjEyMH0seyJ4IjoxMTIuNSwieSI6MTU3fSx7IngiOjExMi41LCJ5IjoxOTR9XQ==" data-look="classic" marker-end="url(#container_requirement-requirement_arrowEnd)"></path><path d="M356.512,354L356.512,364.167C356.512,374.333,356.512,394.667,350.679,411C344.847,427.333,333.182,439.667,327.35,445.833L321.518,452" id="container-doc-r1-0" class="edge-thickness-normal edge-pattern-dashed relationshipLine" style="fill:none;stroke-dasharray: 10,7;;;fill:none;stroke-dasharray: 10,7" data-edge="true" data-et="edge" data-id="doc-r1-0" data-points="W3sieCI6MzU2LjUxMTcxODc1LCJ5IjozNTR9LHsieCI6MzU2LjUxMTcxODc1LCJ5Ijo0MTV9LHsieCI6MzIxLjUxNzc5MDA5MjA1NDI3LCJ5Ijo0NTJ9XQ==" data-look="classic" marker-end="url(#container_requirement-requirement_arrowEnd)"></path></g><g class="edgeLabels"><g class="edgeLabel" transform="translate(112.5, 415)"><g class="label" data-id="r2-r1-0" transform="translate(-42.51171875, -12)"><foreignObject width="85.0234375" height="24"><div xmlns="http://www.w3.org/1999/xhtml" class="labelBkg" style="display: table-cell; white-space: nowrap; line-height: 1.5; max-width: 200px; text-align: center;"><span class="edgeLabel"><p>&lt;&lt;derives&gt;&gt;</p></span></div></foreignObject></g></g><g class="edgeLabel" transform="translate(112.5, 157)"><g class="label" data-id="sim-r2-0" transform="translate(-43.29296875, -12)"><foreignObject width="86.5859375" height="24"><div xmlns="http://www.w3.org/1999/xhtml" class="labelBkg" style="display: table-cell; white-space: nowrap; line-height: 1.5; max-width: 200px; text-align: center;"><span class="edgeLabel"><p>&lt;&lt;verifies&gt;&gt;</p></span></div></foreignObject></g></g><g class="edgeLabel" transform="translate(356.51171875, 415)"><g class="label" data-id="doc-r1-0" transform="translate(-41.46484375, -12)"><foreignObject width="82.9296875" height="24"><div xmlns="http://www.w3.org/1999/xhtml" class="labelBkg" style="display: table-cell; white-space: nowrap; line-height: 1.5; max-width: 200px; text-align: center;"><span class="edgeLabel"><p>&lt;&lt;refines&gt;&gt;</p></span></div></foreignObject></g></g></g><g class="nodes"><g class="node default" id="container-r1" data-look="classic" transform="translate(234.505859375, 544)"><g class="basic label-container outer-path" style=""><path d="M-93.8125 -92 L93.8125 -92 L93.8125 92 L-93.8125 92" stroke="none" stroke-width="0" fill="#ECECFF"></path><path d="M-93.8125 -92 C-43.01537423422869 -92, 7.781751531542625 -92, 93.8125 -92 M-93.8125 -92 C-55.73187894312935 -92, -17.651257886258705 -92, 93.8125 -92 M93.8125 -92 C93.8125 -18.532360026309192, 93.8125 54.935279947381616, 93.8125 92 M93.8125 -92 C93.8125 -40.2466948876635, 93.8125 11.506610224672997, 93.8125 92 M93.8125 92 C39.47164537040287 92, -14.869209259194264 92, -93.8125 92 M93.8125 92 C31.727749047873615 92, -30.35700190425277 92, -93.8125 92 M-93.8125 92 C-93.8125 44.09678276602187, -93.8125 -3.806434467956265, -93.8125 -92 M-93.8125 92 C-93.8125 53.07795409002195, -93.8125 14.155908180043895, -93.8125 -92" stroke="#9370DB" stroke-width="1.3" fill="none" stroke-dasharray="0 0"></path></g><g class="label" style="" transform="translate(-62.60546875, -84)"><foreignObject width="125.2109375" height="24"><div xmlns="http://www.w3.org/1999/xhtml" style="display: table-cell; white-space: nowrap; line-height: 1.5; max-width: 253px; text-align: center;"><span class="nodeLabel markdown-node-label"><p>&lt;&lt;Requirement&gt;&gt;</p></span></div></foreignObject></g><g class="label" style="; font-weight: bold;" transform="translate(-8.10546875, -60)"><foreignObject width="16.2109375" height="24"><div style="font-weight: bold; display: table-cell; white-space: nowrap; line-height: 1.5; max-width: 62px; text-align: center;" xmlns="http://www.w3.org/1999/xhtml"><span style="; font-weight: bold;" class="nodeLabel markdown-node-label"><p>r1</p></span></div></foreignObject></g><g class="label" style="" transform="translate(-83.8125, -16)"><foreignObject width="33.3515625" height="24"><div xmlns="http://www.w3.org/1999/xhtml" style="display: table-cell; white-space: nowrap; line-height: 1.5; max-width: 81px; text-align: center;"><span class="nodeLabel markdown-node-label"><p>ID: 1</p></span></div></foreignObject></g><g class="label" style="" transform="translate(-83.8125, 8)"><foreignObject width="167.625" height="24"><div xmlns="http://www.w3.org/1999/xhtml" style="display: table-cell; white-space: nowrap; line-height: 1.5; max-width: 222px; text-align: center;"><span class="nodeLabel markdown-node-label"><p>Text: base requirement</p></span></div></foreignObject></g><g class="label" style="" transform="translate(-83.8125, 32)"><foreignObject width="67.7109375" height="24"><div xmlns="http://www.w3.org/1999/xhtml" style="display: table-cell; white-space: nowrap; line-height: 1.5; max-width: 121px; text-align: center;"><span class="nodeLabel markdown-node-label"><p>Risk: Low</p></span></div></foreignObject></g><g class="label" style="" transform="translate(-83.8125, 56)"><foreignObject width="122.1640625" height="24"><div xmlns="http://www.w3.org/1999/xhtml" style="display: table-cell; white-space: nowrap; line-height: 1.5; max-width: 176px; text-align: center;"><span class="nodeLabel markdown-node-label"><p>Verification: Test</p></span></div></foreignObject></g><g class="divider"><path d="M-93.8125 -24 C-23.391158676143263 -24, 47.030182647713474 -24, 93.8125 -24 M-93.8125 -24 C-31.700101586313238 -24, 30.412296827373524 -24, 93.8125 -24" stroke="#9370DB" stroke-width="1.3" fill="none" stroke-dasharray="0 0"></path></g></g><g class="node default" id="container-r2" data-look="classic" transform="translate(112.5, 286)"><g class="basic label-container outer-path" style=""><path d="M-104.5 -92 L104.5 -92 L104.5 92 L-104.5 92" stroke="none" stroke-width="0" fill="#ECECFF"></path><path d="M-104.5 -92 C-34.99962148490165 -92, 34.500757030196695 -92, 104.5 -92 M-104.5 -92 C-52.38014060728857 -92, -0.2602812145771338 -92, 104.5 -92 M104.5 -92 C104.5 -29.27153099113511, 104.5 33.45693801772978, 104.5 92 M104.5 -92 C104.5 -22.993177365654375, 104.5 46.01364526869125, 104.5 92 M104.5 92 C61.327978401502065 92, 18.15595680300413 92, -104.5 92 M104.5 92 C51.51232172498613 92, -1.4753565500277404 92, -104.5 92 M-104.5 92 C-104.5 24.054500163169507, -104.5 -43.890999673660986, -104.5 -92 M-104.5 92 C-104.5 43.728189554686786, -104.5 -4.543620890626428, -104.5 -92" stroke="#9370DB" stroke-width="1.3" fill="none" stroke-dasharray="0 0"></path></g><g class="label" style="" transform="translate(-62.60546875, -84)"><foreignObject width="125.2109375" height="24"><div xmlns="http://www.w3.org/1999/xhtml" style="display: table-cell; white-space: nowrap; line-height: 1.5; max-width: 253px; text-align: center;"><span class="nodeLabel markdown-node-label"><p>&lt;&lt;Requirement&gt;&gt;</p></span></div></foreignObject></g><g class="label" style="; font-weight: bold;" transform="translate(-8.10546875, -60)"><foreignObject width="16.2109375" height="24"><div style="font-weight: bold; display: table-cell; white-space: nowrap; line-height: 1.5; max-width: 66px; text-align: center;" xmlns="http://www.w3.org/1999/xhtml"><span style="; font-weight: bold;" class="nodeLabel markdown-node-label"><p>r2</p></span></div></foreignObject></g><g class="label" style="" transform="translate(-94.5, -16)"><foreignObject width="33.3515625" height="24"><div xmlns="http://www.w3.org/1999/xhtml" style="display: table-cell; white-space: nowrap; line-height: 1.5; max-width: 84px; text-align: center;"><span class="nodeLabel markdown-node-label"><p>ID: 2</p></span></div></foreignObject></g><g class="label" style="" transform="translate(-94.5, 8)"><foreignObject width="189" height="24"><div xmlns="http://www.w3.org/1999/xhtml" style="display: table-cell; white-space: nowrap; line-height: 1.5; max-width: 242px; text-align: center;"><span class="nodeLabel markdown-node-label"><p>Text: derived requirement</p></span></div></foreignObject></g><g class="label" style="" transform="translate(-94.5, 32)"><foreignObject width="67.7109375" height="24"><div xmlns="http://www.w3.org/1999/xhtml" style="display: table-cell; white-space: nowrap; line-height: 1.5; max-width: 121px; text-align: center;"><span class="nodeLabel markdown-node-label"><p>Risk: Low</p></span></div></foreignObject></g><g class="label" style="" transform="translate(-94.5, 56)"><foreignObject width="122.1640625" height="24"><div xmlns="http://www.w3.org/1999/xhtml" style="display: table-cell; white-space: nowrap; line-height: 1.5; max-width: 176px; text-align: center;"><span class="nodeLabel markdown-node-label"><p>Verification: Test</p></span></div></foreignObject></g><g class="divider"><path d="M-104.5 -24 C-32.65263305189838 -24, 39.194733896203246 -24, 104.5 -24 M-104.5 -24 C-51.00390486188456 -24, 2.492190276230886 -24, 104.5 -24" stroke="#9370DB" stroke-width="1.3" fill="none" stroke-dasharray="0 0"></path></g></g><g class="node default" id="container-sim" data-look="classic" transform="translate(112.5, 64)"><g class="basic label-container outer-path" style=""><path d="M-69.046875 -56 L69.046875 -56 L69.046875 56 L-69.046875 56" stroke="none" stroke-width="0" fill="#ECECFF"></path><path d="M-69.046875 -56 C-33.449348775220216 -56, 2.1481774495595687 -56, 69.046875 -56 M-69.046875 -56 C-15.752377550053211 -56, 37.54211989989358 -56, 69.046875 -56 M69.046875 -56 C69.046875 -21.96395864117445, 69.046875 12.0720827176511, 69.046875 56 M69.046875 -56 C69.046875 -11.397479124997446, 69.046875 33.20504175000511, 69.046875 56 M69.046875 56 C33.66901292733689 56, -1.7088491453262264 56, -69.046875 56 M69.046875 56 C34.66016480293724 56, 0.2734546058744769 56, -69.046875 56 M-69.046875 56 C-69.046875 28.33296991025492, -69.046875 0.6659398205098412, -69.046875 -56 M-69.046875 56 C-69.046875 15.711239780602071, -69.046875 -24.577520438795858, -69.046875 -56" stroke="#9370DB" stroke-width="1.3" fill="none" stroke-dasharray="0 0"></path></g><g class="label" style="" transform="translate(-46.3359375, -48)"><foreignObject width="92.671875" height="24"><div xmlns="http://www.w3.org/1999/xhtml" style="display: table-cell; white-space: nowrap; line-height: 1.5; max-width: 218px; text-align: center;"><span class="nodeLabel markdown-node-label"><p>&lt;&lt;Element&gt;&gt;</p></span></div></foreignObject></g><g class="label" style="; font-weight: bold;" transform="translate(-12.70703125, -24)"><foreignObject width="25.4140625" height="24"><div style="font-weight: bold; display: table-cell; white-space: nowrap; line-height: 1.5; max-width: 76px; text-align: center;" xmlns="http://www.w3.org/1999/xhtml"><span style="; font-weight: bold;" class="nodeLabel markdown-node-label"><p>sim</p></span></div></foreignObject></g><g class="label" style="" transform="translate(-59.046875, 20)"><foreignObject width="118.09375" height="24"><div xmlns="http://www.w3.org/1999/xhtml" style="display: table-cell; white-space: nowrap; line-height: 1.5; max-width: 172px; text-align: center;"><span class="nodeLabel markdown-node-label"><p>Type: simulation</p></span></div></foreignObject></g><g class="divider"><path d="M-69.046875 12 C-16.22921581446917 12, 36.58844337106166 12, 69.046875 12 M-69.046875 12 C-31.46196173537622 12, 6.122951529247558 12, 69.046875 12" stroke="#9370DB" stroke-width="1.3" fill="none" stroke-dasharray="0 0"></path></g></g><g class="node default" id="container-doc" data-look="classic" transform="translate(356.51171875, 286)"><g class="basic label-container outer-path" style=""><path d="M-89.51171875 -68 L89.51171875 -68 L89.51171875 68 L-89.51171875 68" stroke="none" stroke-width="0" fill="#ECECFF"></path><path d="M-89.51171875 -68 C-44.00395096492885 -68, 1.5038168201423048 -68, 89.51171875 -68 M-89.51171875 -68 C-52.94160404805293 -68, -16.37148934610586 -68, 89.51171875 -68 M89.51171875 -68 C89.51171875 -14.166230713933302, 89.51171875 39.667538572133395, 89.51171875 68 M89.51171875 -68 C89.51171875 -26.936462289558833, 89.51171875 14.127075420882335, 89.51171875 68 M89.51171875 68 C21.568042327226053 68, -46.375634095547895 68, -89.51171875 68 M89.51171875 68 C38.08971837448015 68, -13.332282001039701 68, -89.51171875 68 M-89.51171875 68 C-89.51171875 22.060873923507017, -89.51171875 -23.878252152985965, -89.51171875 -68 M-89.51171875 68 C-89.51171875 16.454579582515713, -89.51171875 -35.090840834968574, -89.51171875 -68" stroke="#9370DB" stroke-width="1.3" fill="none" stroke-dasharray="0 0"></path></g><g class="label" style="" transform="translate(-46.3359375, -60)"><foreignObject width="92.671875" height="24"><div xmlns="http://www.w3.org/1999/xhtml" style="display: table-cell; white-space: nowrap; line-height: 1.5; max-width: 218px; text-align: center;"><span class="nodeLabel markdown-node-label"><p>&lt;&lt;Element&gt;&gt;</p></span></div></foreignObject></g><g class="label" style="; font-weight: bold;" transform="translate(-13.265625, -36)"><foreignObject width="26.53125" height="24"><div style="font-weight: bold; display: table-cell; white-space: nowrap; line-height: 1.5; max-width: 78px; text-align: center;" xmlns="http://www.w3.org/1999/xhtml"><span style="; font-weight: bold;" class="nodeLabel markdown-node-label"><p>doc</p></span></div></foreignObject></g><g class="label" style="" transform="translate(-79.51171875, 8)"><foreignObject width="109.5390625" height="24"><div xmlns="http://www.w3.org/1999/xhtml" style="display: table-cell; white-space: nowrap; line-height: 1.5; max-width: 166px; text-align: center;"><span class="nodeLabel markdown-node-label"><p>Type: word doc</p></span></div></foreignObject></g><g class="label" style="" transform="translate(-79.51171875, 32)"><foreignObject width="159.0234375" height="24"><div xmlns="http://www.w3.org/1999/xhtml" style="display: table-cell; white-space: nowrap; line-height: 1.5; max-width: 215px; text-align: center;"><span class="nodeLabel markdown-node-label"><p>Doc Ref: reqs/req.doc</p></span></div></foreignObject></g><g class="divider"><path d="M-89.51171875 0 C-43.860535532397144 0, 1.7906476852057125 0, 89.51171875 0 M-89.51171875 0 C-44.0673187009544 0, 1.3770813480911954 0, 89.51171875 0" stroke="#9370DB" stroke-width="1.3" fill="none" stroke-dasharray="0 0"></path></g></g></g></g></g><defs><filter id="container-drop-shadow" height="130%" width="130%"><feDropShadow dx="4" dy="4" stdDeviation="0" flood-opacity="0.06" flood-color="#000000"></feDropShadow></filter></defs><defs><filter id="container-drop-shadow-small" height="150%" width="150%"><feDropShadow dx="2" dy="2" stdDeviation="0" flood-opacity="0.06" flood-color="#000000"></feDropShadow></filter></defs></svg>