<?xml version="1.0" encoding="UTF-8"?>
<svg xmlns="http://www.w3.org/2000/svg" viewBox="102 30 628 496" width="628" height="496">
  <defs>
    <marker id="arrow" viewBox="0 0 10 10" refX="8" refY="5"
            markerWidth="7" markerHeight="7" orient="auto-start-reverse">
      <path d="M0,0 L10,5 L0,10 z" fill="#94a3b8"/>
    </marker>
    <filter id="soft" x="-40%" y="-40%" width="180%" height="180%">
      <feDropShadow dx="0" dy="2" stdDeviation="3" flood-color="#0f172a" flood-opacity="0.18"/>
    </filter>
    <pattern id="grid" width="28" height="28" patternUnits="userSpaceOnUse">
      <circle cx="2" cy="2" r="1" fill="#0f172a" fill-opacity="0.05"/>
    </pattern>
  </defs>
  <style>
    text { font-family: ui-sans-serif, system-ui, -apple-system, "Segoe UI", Roboto, sans-serif; }
    .title { fill: #0f172a; font-size: 17px; font-weight: 700; }
    .label { fill: #1e293b; font-size: 13px; font-weight: 600; text-anchor: middle; }
    .elabel { fill: #64748b; font-size: 10.5px; text-anchor: middle; }
    .region-rect        { fill: rgba(15,23,42,0.02); stroke: #cbd5e1; stroke-width: 1.4; }
    .region-rect--inner { fill: rgba(124,58,237,0.03); stroke: #7c3aed; stroke-width: 1.3; stroke-dasharray: 4 4; }
    .region-label--inner { font-size: 12px; font-weight: 600; fill: #6d28d9; }
  </style>
  <rect x="102" y="30" width="628" height="496" rx="14" fill="#f8fafc"/>
  <rect x="102" y="30" width="628" height="496" rx="14" fill="url(#grid)"/>
  <text class="title" x="154" y="60">Kymo on tldraw — Render Pipeline</text>
  <g class="regions">
    <rect class="region-rect" x="270" y="104" width="326" height="170" rx="8"/>
    <rect class="region-rect" x="183" y="304" width="495" height="170" rx="8"/>
    <rect class="region-rect" x="154" y="128" width="418" height="122" rx="8"/>
    <rect class="region-rect" x="207" y="328" width="447" height="122" rx="8"/>
  </g>
  <g class="edges">
    <path d="M230,168 C270,168 261,168 301,168" fill="none" stroke="#94a3b8" stroke-width="2" marker-end="url(#arrow)"/>
    <text class="elabel" x="265.5" y="162">type</text>
    <path d="M371,168 C421.5,168 421.5,168 472,168" fill="none" stroke="#94a3b8" stroke-width="2" marker-end="url(#arrow)"/>
    <path d="M512,250 C512,374 264,204 264,328" fill="none" stroke="#94a3b8" stroke-width="2" marker-end="url(#arrow)"/>
    <text class="elabel" x="388" y="283">diff-sync</text>
    <path d="M304,368 C350.5,368 350.5,368 397,368" fill="none" stroke="#94a3b8" stroke-width="2" marker-end="url(#arrow)"/>
    <path d="M467,368 C516,368 516,368 565,368" fill="none" stroke="#94a3b8" stroke-width="2" marker-end="url(#arrow)"/>
    <text class="elabel" x="516" y="362">persist</text>
    <path d="M432,333 C432,285 336,289 336,241" fill="none" stroke="#94a3b8" stroke-width="2" marker-end="url(#arrow)"/>
    <text class="elabel" x="384" y="281">drag → patch text</text>
  </g>
  <g class="nodes">
    <g transform="translate(336,168)" filter="url(#soft)"><g class="icon-shadow"><rect x="-35" y="-35" width="70" height="70" rx="8" fill="url(#g-box-orange)" stroke="#c2410c" stroke-width="1.5"/>
  <g fill="white" stroke="white" stroke-width="1.2" stroke-linejoin="round">
    <rect x="-18" y="-18" width="20" height="26" rx="2" fill="white" opacity="0.6"/>
    <rect x="-8" y="-8" width="22" height="28" rx="2" fill="white"/>
    <line x1="-3" y1="-1" x2="10" y2="-1" stroke="#d97706" stroke-width="1.2"/>
    <line x1="-3" y1="4"  x2="10" y2="4"  stroke="#d97706" stroke-width="1.2"/>
    <line x1="-3" y1="9"  x2="6"  y2="9"  stroke="#d97706" stroke-width="1.2"/>
  </g>
</g></g><text class="label" x="336" y="221">Source .kymo</text>
    <g transform="translate(512,168)" filter="url(#soft)"><g class="icon-shadow" transform="translate(-40,-40)"><polygon points="40,4.8 75.2,22.4 40,39.2 4.8,22.4" fill="url(#g-face-top)" stroke="#3d5d00" stroke-width="1"/><polygon points="40,39.2 75.2,22.4 75.2,57.6 40,75.2" fill="url(#g-face-side)" stroke="#3d5d00" stroke-width="1"/><polygon points="4.8,22.4 40,39.2 40,75.2 4.8,57.6" fill="url(#g-face-front)" stroke="#3d5d00" stroke-width="1"/><g transform="matrix(35.2,16.8,0,35.2,4.8,22.4)" stroke-linejoin="round">
  <g stroke="white" stroke-width="0.04" fill="white">
    <line x1="0.50" y1="0.20" x2="0.20" y2="0.50"/>
    <line x1="0.50" y1="0.20" x2="0.80" y2="0.50"/>
    <line x1="0.20" y1="0.50" x2="0.50" y2="0.80"/>
    <line x1="0.80" y1="0.50" x2="0.50" y2="0.80"/>
    <line x1="0.20" y1="0.50" x2="0.80" y2="0.50"/>
    <line x1="0.50" y1="0.20" x2="0.50" y2="0.80"/>
    <circle cx="0.50" cy="0.20" r="0.055"/>
    <circle cx="0.20" cy="0.50" r="0.055"/>
    <circle cx="0.80" cy="0.50" r="0.055"/>
    <circle cx="0.50" cy="0.80" r="0.055"/>
  </g>
</g></g></g><text class="label" x="512" y="226">parseDiagram</text>
    <g transform="translate(264,368)" filter="url(#soft)"><g class="icon-shadow" transform="translate(-40,-40)"><polygon points="40,4.8 75.2,22.4 40,39.2 4.8,22.4" fill="url(#g-face-top)" stroke="#3d5d00" stroke-width="1"/><polygon points="40,39.2 75.2,22.4 75.2,57.6 40,75.2" fill="url(#g-face-side)" stroke="#3d5d00" stroke-width="1"/><polygon points="4.8,22.4 40,39.2 40,75.2 4.8,57.6" fill="url(#g-face-front)" stroke="#3d5d00" stroke-width="1"/><g transform="matrix(35.2,16.8,0,35.2,4.8,22.4)" stroke-linejoin="round">
  <g fill="white">
    <rect x="0.10" y="0.30" width="0.34" height="0.18"/>
    <rect x="0.56" y="0.30" width="0.34" height="0.18"/>
    <rect x="0.10" y="0.56" width="0.34" height="0.18"/>
    <rect x="0.56" y="0.56" width="0.34" height="0.18"/>
  </g>
</g></g></g><text class="label" x="264" y="426">diagramToShapes</text>
    <g transform="translate(432,368)" filter="url(#soft)"><g class="icon-shadow"><rect x="-35" y="-35" width="70" height="70" rx="8" fill="url(#g-box-orange)" stroke="#c2410c" stroke-width="1.5"/>
  <polygon points="2,-18 -12,4 -1,4 -3,18 11,-4 0,-4 2,-18" fill="white" stroke="white" stroke-width="1.2" stroke-linejoin="round"/>
</g></g><text class="label" x="432" y="421">tldraw canvas</text>
    <g transform="translate(600,368)" filter="url(#soft)">
  <g class="icon-shadow" transform="translate(-35, -35)">
    <ellipse cx="35" cy="12" rx="28" ry="8" fill="#fdba74" stroke="#c2410c" stroke-width="1.4"/>
    <path d="M 7,12 V 58 a 28,8 0 0 0 56,0 V 12" fill="url(#g-cyl-orange)" stroke="#c2410c" stroke-width="1.4"/>
    <ellipse cx="35" cy="12" rx="28" ry="8" fill="none" stroke="#c2410c" stroke-width="1.2"/>
    <path d="M 7,28 a 28,8 0 0 0 56,0" fill="none" stroke="#c2410c" stroke-width="0.8" opacity="0.55"/>
    <path d="M 7,42 a 28,8 0 0 0 56,0" fill="none" stroke="#c2410c" stroke-width="0.8" opacity="0.55"/>
  </g>
</g><text class="label" x="600" y="421">Snapshot</text>
    <g transform="translate(192,168)" filter="url(#soft)">
  <g class="icon-shadow">
    <circle r="38" fill="url(#g-user-blue)"/>
    <circle cy="-9" r="10" fill="white"/>
    <path d="M -18,20 a 18,14 0 0 1 36,0 z" fill="white"/>
  </g>
</g><text class="label" x="192" y="224">You</text>
  </g>
  <g class="region-labels">
    <text class="region-label--inner" x="282" y="120">Authoring</text>
    <text class="region-label--inner" x="195" y="320">tldraw Board</text>
    
    
  </g>
</svg>
